<svg xmlns="http://www.w3.org/2000/svg" width="5.6" height="36.95" viewBox="0 0 5.6 36.95"><defs><style>.cls-1{fill:#f6fbfd;}</style></defs><title>Asset 11</title><g id="Layer_2" data-name="Layer 2"><g id="Layer_10" data-name="Layer 10"><path class="cls-1" d="M3.83,36.95a7.73,7.73,0,0,0,.77-2.21,8.4,8.4,0,0,0,0-2.27A22.8,22.8,0,0,0,3.45,28,69.59,69.59,0,0,1,.6,18.8,31.71,31.71,0,0,1,0,13.92,25,25,0,0,1,.35,9,24.36,24.36,0,0,1,3.83,0,40.77,40.77,0,0,0,1.9,9.21a32.05,32.05,0,0,0,.65,9.19c.59,3,1.61,6,2.39,9.15a18.62,18.62,0,0,1,.65,4.87,8.37,8.37,0,0,1-.47,2.46A6.57,6.57,0,0,1,3.83,36.95Z"/></g></g></svg>