<svg xmlns="http://www.w3.org/2000/svg" xmlns:xlink="http://www.w3.org/1999/xlink" width="43.85" height="50.81" viewBox="0 0 43.85 50.81"><defs><style>.cls-1{fill:none;}.cls-2{fill:#c5e9fa;}.cls-3{fill:#addcf1;}.cls-4{fill:#00b4d2;}.cls-5{fill:#049cbe;}.cls-6{fill:#465578;}.cls-7{fill:#f6fbfd;}.cls-8{clip-path:url(#clip-path);}.cls-9{fill:#fafeff;}</style><clipPath id="clip-path"><path class="cls-1" d="M21.33,30.51c0,.15,0,.29,0,.44a4.7,4.7,0,1,0,9.4.2c0-.15,0-.3,0-.44Z"/></clipPath></defs><title>Asset 2x</title><g id="Layer_2" data-name="Layer 2"><g id="Layer_2-2" data-name="Layer 2"><polygon class="cls-2" points="3.85 31.7 5.3 33.24 4.8 29.07 3.85 31.7"/><polygon class="cls-2" points="0.64 24.11 2.51 26.13 4.47 21.59 0.64 24.11"/><polygon class="cls-2" points="0 22.03 2.18 22.64 6.1 17.45 0 22.03"/><path class="cls-2" d="M1.85,15.87S3.8,17,3.33,18L8.21,14S6.44,11,1.85,15.87Z"/><path class="cls-2" d="M4.08,9.7s1.34,1.61.71,3l5-.83S10.13,7.56,4.08,9.7Z"/><path class="cls-2" d="M5.9,3.67S9.49,7,7.7,9.09c0,0,3.8.65,4.06,1.67C11.76,10.75,14.67,5.09,5.9,3.67Z"/><path class="cls-2" d="M12.3,0s1.42,2.75-.73,4.61l3.6,4.13S18.85,3.64,12.3,0Z"/><path class="cls-2" d="M17.33.93s-.11,2.85-1,2.22L18.1,4.4S19.1,2.05,17.33.93Z"/><path class="cls-2" d="M28.82.78s-1.2,2.51.16,4L24.64,7.51S23.31,2.05,28.82.78Z"/><path class="cls-2" d="M35.54,3.15s-2.78,2.17-1,4.68L27,8.94S28.15,2.93,35.54,3.15Z"/><path class="cls-2" d="M39.62,10.94s-2.3.82-2.32,2l-5.85-2.6S35.05,7.2,39.62,10.94Z"/><path class="cls-2" d="M41.9,17.07s-2.11-.46-2.09.83l-4.46-4.56S40.71,14.19,41.9,17.07Z"/><path class="cls-2" d="M43.85,22.85s-2.74-.54-3.31.74l-2.61-5.48S42.35,20.92,43.85,22.85Z"/><path class="cls-2" d="M43.73,28.36a3.16,3.16,0,0,0-2.8,1.51l-3.09-3.5Z"/><path class="cls-2" d="M41.17,35.07c-.25-.73-1.81-1.85-1.81-1.85l1-2.88A16.79,16.79,0,0,1,41.17,35.07Z"/><path class="cls-3" d="M2.81,41.34A12.4,12.4,0,0,1,4.45,39a39.7,39.7,0,0,1,1.62,5.52l.69-1.39,3.51,4.52,1.47-2,3.46,4.11L16.78,48a14,14,0,0,1,1.68,2.78,7.58,7.58,0,0,1,.49-2.23l1.61,2.27c.57-.42.64-1.35,1.28-1.65.44-.21,1.82,1.17,2,1.62l1.88-2.37A13.09,13.09,0,0,0,28,50.14l2.18-2.61,1.38,1.24,2.78-4.39.08,2.25Q35.79,42.9,36.85,39c-2.49,2.09-5.06,4.22-8.15,5.2a12.43,12.43,0,0,1-5.5.44c-5.25-.76-9.4-4.72-14.28-6.8-1.06-.45-2.83-1.75-4-1.69C2.11,36.36,2.83,39.12,2.81,41.34Z"/><path class="cls-2" d="M3.82,37.15a16.44,16.44,0,0,1,2.46,5.14l1-1.71a22.64,22.64,0,0,1,2.82,5.34,21.3,21.3,0,0,1,.8-3.79l4.24,4.69.44-3.28a5,5,0,0,1,2.51,3.33,2.46,2.46,0,0,0,.76-1.68A6.46,6.46,0,0,1,21.26,48l.85-2.06,2.54,2.31L26,46.37l1.52,1.87,3.67-2.87a2.22,2.22,0,0,0,.66,1.35l3.63-5.07a12.21,12.21,0,0,0-.83,4.77,18.49,18.49,0,0,0,2.42-5.2c.29.54.93.68,1.4,1.07,1.15-2.57-.07-5.38-.24-8.24-2.31-.36-4.59.78-6.51,2.11s-3.76,2.9-6,3.59c-3.61,1.12-7.46-.26-11-1.62a13.75,13.75,0,0,1-3.51-1.76C10,35.33,9,33.86,7.71,32.83s-3.41-1.45-4.57-.25a4.13,4.13,0,0,0-.84,3c0,.9-.12,3.26.8,3.67C3.22,39,4,37.35,3.82,37.15Z"/><path class="cls-4" d="M11.73,26.56s-.86-8.17,4-13.69c0,0,2.47,2.69,2.29,5.56l3.18-4,2.46,3,1.77-2.26L28,20.59l3.08-4.64,2.35,2.69,1.4-4.76A19.62,19.62,0,0,1,38.49,28l-2.32-.77,1.22,2.09-2.52-.4.3,2.19-2.84-1.55,1.25,5.88-1.48-.49L33,37.81l-1.71-.61-.18,3.21-1.78-2.56L27.74,40.1l-2-1.77-3,2.23-1-2.2-2.54.52,1.68-3.18L19,36.47l1-3.88-2,.88,1.49-5.14-3.82,1.3,1-2.39-2.87-.06,1.41-1.69Z"/><polygon class="cls-5" points="14.36 12.86 16.71 19.73 19.84 14.47 22.51 19.8 24.26 16.97 26.46 22.81 29.79 15.95 32.43 19.87 34.89 13.88 14.36 12.86"/><circle class="cls-6" cx="26.02" cy="26.54" r="0.71" transform="matrix(0.02, -1, 1, 0.02, -1.06, 51.99)"/><circle class="cls-6" cx="28.94" cy="26.6" r="0.71" transform="translate(1.73 54.96) rotate(-88.77)"/><path class="cls-5" d="M25.39,27.89a2.46,2.46,0,0,0,4.12.09Z"/><path class="cls-6" d="M20.68,22.59A2.41,2.41,0,0,1,23,24.66a2.41,2.41,0,1,0-4.76-.1A2.41,2.41,0,0,1,20.68,22.59Z"/><path class="cls-6" d="M32.43,22.94A2.41,2.41,0,0,1,34.76,25a2.41,2.41,0,1,0-4.76-.1A2.41,2.41,0,0,1,32.43,22.94Z"/><path class="cls-6" d="M21.33,30.51c0,.15,0,.29,0,.44a4.7,4.7,0,1,0,9.4.2c0-.15,0-.3,0-.44Z"/><path class="cls-5" d="M27.69,36.32a2.5,2.5,0,0,1-3.27,0l-.54,0a2.52,2.52,0,0,0,4.32.05Z"/><path class="cls-7" d="M38.2,18.48l5.65,4.37S40,16.68,35.78,13.61c0,0,4.79,1.37,6.13,3.46,0,0-1.39-5-9.62-6.75a8.89,8.89,0,0,1,7.34.62A10.18,10.18,0,0,0,27.74,8.38S29,3.82,35.54,3.15A11.42,11.42,0,0,0,24.79,6.71s0-4.94,4.26-6A12.37,12.37,0,0,0,20.14,4s-.85-3.12-2.81-3c0,0,1.1,2.09.4,2.76,0,0-3.24-4-5.43-3.68,0,0,5.19,4.47,2.69,8.21A7.42,7.42,0,0,0,5.9,3.67s7,1.64,5.83,6.78c0,0-1-3.69-7.79-.74,0,0,5.29-.58,5.59,1.84,0,0-3.63-2-7.67,4.31,0,0,3.28-2.8,6-1.94L4,16.37,0,22l5.84-4.47S1.15,22.17.64,24.11l3.37-2A15.23,15.23,0,0,0,1.17,31.7,2.07,2.07,0,0,0,2,30.45s-.15,7.23.6,9.31l1.51-6.28,2.65,5.11.38-1.48,2.43,4.64,1.34-3.65,3.59,3.75.74-2.4,2.66,4.65.73-1.82,2.25,2.34,1.76-1.91.9,1.05,1.18-1.58L26.26,45l2.94-3.15,1,1.51,2.5-4,1.12,1.52L36,36s2.91,3.51,2.5,6.37c0,0,2.73-4.19,1.62-11.22a11.28,11.28,0,0,1,1.06,3.93s.55-4,0-5.05-1.57-3.12-1.57-3.12l4.14,1.46ZM38.49,28l-2.32-.77,1.22,2.09-2.52-.4.3,2.19-2.84-1.55,1.25,5.88-1.48-.49L33,37.81l-1.71-.61-.18,3.21-1.78-2.56L27.74,40.1l-2-1.77-3,2.23-1-2.2-2.54.52,1.68-3.18L19,36.47l1-3.88-2,.88,1.49-5.14-3.82,1.3,1-2.39-2.87-.06,1.41-1.69-3.47,1.07s-.86-8.17,4-13.69c0,0,2.47,2.69,2.29,5.56l3.18-4,2.46,3,1.77-2.26L28,20.59l3.08-4.64,2.35,2.69,1.4-4.76A19.62,19.62,0,0,1,38.49,28Z"/><g class="cls-8"><path class="cls-9" d="M21.15,30.26s.48,2.94,1.18,3l.48-1.72.85,1.85.78-1.77.45,2L26,31.9l.7,2.15,1.14-2.11s.66,1.6.71,1.45,1-1.22,1-1.22l.36,1.59a3.66,3.66,0,0,0,.84-3.06Z"/></g></g></g></svg>