<?xml version="1.0" encoding="utf-8"?>
<!-- Generator: Adobe Illustrator 21.0.0, SVG Export Plug-In . SVG Version: 6.00 Build 0)  -->
<svg version="1.1" id="Layer_1" xmlns="http://www.w3.org/2000/svg" xmlns:xlink="http://www.w3.org/1999/xlink" x="0px" y="0px"
	 width="181.9px" height="209.8px" viewBox="0 0 181.9 209.8" style="enable-background:new 0 0 181.9 209.8;" xml:space="preserve"
	>
<style type="text/css">
	.st0{opacity:0.3;fill:#99E5FF;enable-background:new    ;}
	.st1{fill:#1C174C;}
	.st2{fill:#221F66;}
	.st3{fill:#DE4F03;}
	.st4{fill:#F98142;}
	.st5{fill:none;stroke:#FFFFFF;stroke-width:0.76;stroke-linecap:round;stroke-linejoin:round;stroke-dasharray:0,5.96;}
	.st6{fill:#877DB2;}
	.st7{fill:#655C99;}
	.st8{fill:#ADDCF1;}
	.st9{fill:#F6FBFD;}
	.st10{enable-background:new    ;}
	.st11{fill:none;stroke:#877DB2;stroke-width:0.76;stroke-miterlimit:10;}
	.st12{fill:none;stroke:#FFFFFF;stroke-width:1.18;stroke-linecap:round;stroke-linejoin:round;}
	.st13{fill:none;stroke:#F98142;stroke-width:1.18;stroke-linecap:round;stroke-linejoin:round;}
	.st14{fill:none;stroke:#00B4D2;stroke-width:1.18;stroke-linecap:round;stroke-linejoin:round;}
	.st15{fill:none;stroke:#655C99;stroke-width:0.38;stroke-linecap:round;stroke-miterlimit:10;}
	.st16{fill:none;stroke:#877DB2;stroke-width:1.18;stroke-linecap:round;stroke-linejoin:round;}
	.st17{fill:#FFFFFF;}
	.st18{fill:#00B4D2;}
	.st19{fill:#049CBE;}
</style>
<title>Asset 10x</title>
<g id="Layer_2">
	<g id="Layer_5">
		<circle class="st0" cx="78.2" cy="71.4" r="56.9"/>
		<path class="st1" d="M19.4,87.3c-0.9-2.8-1.6-5.8-2-8.7c-0.4-3-0.5-5.9-0.5-8.9c0.1-3,0.4-6,1-8.9s1.4-5.8,2.5-8.6
			c-0.8,2.9-1.4,5.8-1.9,8.7s-0.7,5.9-0.8,8.8c-0.1,3,0,5.9,0.3,8.8C18.3,81.4,18.8,84.4,19.4,87.3z"/>
		<path class="st2" d="M136.2,53.4c1,2.8,1.8,5.6,2.3,8.5c1,5.8,1.1,11.8,0.2,17.6c-0.4,2.9-1.1,5.8-2.1,8.6
			c0.7-2.9,1.2-5.7,1.5-8.7c0.7-5.8,0.6-11.7-0.2-17.5C137.5,59.1,136.9,56.2,136.2,53.4z"/>
		<path class="st1" d="M13.8,80.8c-0.3-1.7-0.5-3.4-0.7-5.2c-0.1-1.7-0.2-3.5-0.2-5.2s0.1-3.5,0.3-5.2c0.2-1.7,0.5-3.4,0.9-5.2
			c-0.2,1.7-0.4,3.4-0.6,5.2c-0.1,1.7-0.2,3.5-0.3,5.2s0,3.5,0.1,5.2S13.6,79,13.8,80.8z"/>
		<path class="st2" d="M141.9,59c0.4,1.8,0.8,3.6,1,5.4s0.4,3.6,0.4,5.4s0,3.6-0.1,5.4s-0.3,3.6-0.7,5.4c0.2-1.8,0.3-3.6,0.4-5.4
			c0.1-1.8,0.1-3.6,0-5.4s-0.2-3.6-0.3-5.4S142.1,60.8,141.9,59z"/>
		<path class="st3" d="M142.4,166.8H40.9v-52.4h84.9c4.5,0,8.3,3.2,9,7.6L142.4,166.8z"/>
		<path class="st4" d="M123.3,166.8H14.8l7.6-44.8c0.7-4.4,4.5-7.6,9-7.6h76.8c5.7,0,10.5,4.3,11,10L123.3,166.8z"/>
		<rect x="34.3" y="108.3" class="st3" width="87.9" height="6.1"/>
		<path class="st4" d="M39.8,108.3h25.7l0,0l0,0c0,2-1.6,3.6-3.6,3.6H43.4C41.4,111.9,39.8,110.3,39.8,108.3L39.8,108.3L39.8,108.3z
			"/>
		<path class="st3" d="M34.3,108.5l-5.3-8.4c-0.2-0.3-0.2-0.7,0.1-0.9s0.7-0.2,0.9,0.1l9.8,9.2C39.8,108.5,34.3,108.5,34.3,108.5z"
			/>
		<path class="st3" d="M122.3,108.5l5.2-8.3c0.2-0.3,0.2-0.7-0.1-0.9s-0.7-0.2-0.9,0.1l0,0l-9.7,9.1
			C116.8,108.5,122.3,108.5,122.3,108.5z"/>
		<path class="st3" d="M0,209.8h101.5v-52.4H16.6c-4.5,0-8.3,3.2-9,7.6L0,209.8z"/>
		<path class="st3" d="M150.6,209.8H49.1v-52.4H134c4.5,0,8.3,3.2,9,7.6L150.6,209.8z"/>
		<path class="st3" d="M38.9,147.1c0.2,1.3-5.7,1.7-6.2,1.5s-0.4,3.6-4,1.7s-10.1-6.6-10-7.2c0-0.3,0.9-4.4,0.9-4.4L38.9,147.1z"/>
		<circle class="st5" cx="40.3" cy="137.4" r="11.4"/>
		<path class="st3" d="M108.8,152.4H57.2c-3,0-5.3-1.9-5.1-4.2l2.2-22.3c0.4-3.6,3.4-6.3,7-6.2h43.5c3.6,0,6.6,2.7,7,6.2l2.2,22.3
			C114.2,150.5,111.8,152.4,108.8,152.4z"/>
		<path class="st6" d="M111.4,152.4H59.7c-3,0-5.3-1.9-5.1-4.2l2.2-22.3c0.4-3.6,3.4-6.3,7-6.2h43.6c3.6,0,6.6,2.7,7,6.2l2.2,22.3
			C116.7,150.5,114.3,152.4,111.4,152.4z"/>
		<path class="st7" d="M60.2,126.2l-1.9,20.7c-0.1,1.5,1,2.9,2.5,3.1c0.1,0,0.2,0,0.3,0h10.8c1.5,0,2.8-1.2,2.8-2.8L74.1,137l1-10.4
			c0-1.6-1.2-2.8-2.7-2.9c0,0,0,0-0.1,0H63C61.5,123.6,60.3,124.7,60.2,126.2z"/>
		<path class="st7" d="M110.4,126.2l0.3,10.8l1.6,9.9c0.1,1.5-1,2.9-2.5,3.1c-0.1,0-0.2,0-0.3,0h-11c-1.5,0-2.8-1.2-2.8-2.8
			l-0.4-20.7c0-1.6,1.2-2.8,2.7-2.9c0,0,0,0,0.1,0h9.5C109,123.6,110.3,124.7,110.4,126.2z"/>
		<path class="st7" d="M90.4,149.9H79.9c-1.6,0-2.8-1.3-2.8-2.8c0,0,0,0,0-0.1l0.4-20.7c0-1.5,1.3-2.8,2.8-2.8H90
			c1.5,0,2.8,1.2,2.8,2.8L92.3,137l1,10.1C93.3,148.6,92.1,149.9,90.4,149.9C90.5,149.9,90.5,149.9,90.4,149.9z"/>
		<path class="st8" d="M60.5,125.2l-1.9,20.7c-0.1,1.5,1,2.9,2.5,3.1c0.1,0,0.2,0,0.3,0h10.8c1.5,0,2.7-1.2,2.8-2.7l0.4-20.7
			c0-1.6-1.2-2.8-2.7-2.9c0,0,0,0-0.1,0h-9.3C61.9,122.7,60.7,123.8,60.5,125.2z"/>
		<path class="st8" d="M110.6,125.2l1.9,20.7c0.1,1.5-1,2.9-2.5,3.1c-0.1,0-0.2,0-0.3,0h-11c-1.5,0-2.8-1.2-2.8-2.8l-0.4-20.7
			c0-1.6,1.2-2.8,2.7-2.9c0,0,0,0,0.1,0h9.5C109.2,122.7,110.4,123.8,110.6,125.2z"/>
		<path class="st8" d="M90.8,149H80.3c-1.6,0-2.8-1.3-2.8-2.8c0,0,0,0,0-0.1l0.4-20.7c0-1.5,1.3-2.8,2.8-2.8h9.6
			c1.5,0,2.8,1.2,2.8,2.8l0.4,20.7C93.7,147.7,92.4,149,90.8,149C90.9,149,90.9,149,90.8,149z"/>
		<path class="st9" d="M59.6,125.2l-1.9,20.7c-0.1,1.5,1,2.9,2.5,3.1c0.1,0,0.2,0,0.3,0h10.8c1.5,0,2.8-1.2,2.8-2.8l0.4-20.7
			c0-1.6-1.2-2.8-2.7-2.9c0,0,0,0-0.1,0h-9.3C61,122.7,59.7,123.8,59.6,125.2z"/>
		<path class="st9" d="M109.6,125.2l1.9,20.7c0.1,1.5-1,2.9-2.5,3.1c-0.1,0-0.2,0-0.3,0h-11c-1.5,0-2.7-1.2-2.8-2.7l-0.4-20.7
			c0-1.6,1.2-2.8,2.7-2.9c0,0,0,0,0.1,0h9.5C108.3,122.7,109.5,123.8,109.6,125.2z"/>
		<path class="st9" d="M89.9,149H79.4c-1.6,0-2.8-1.3-2.8-2.8c0,0,0,0,0-0.1l0.4-20.7c0-1.5,1.3-2.8,2.8-2.8h9.6
			c1.5,0,2.8,1.2,2.8,2.8l0.4,20.7C92.7,147.7,91.5,148.9,89.9,149C90,149,89.9,149,89.9,149z"/>
		<g class="st10">
			<path class="st6" d="M80.5,142.7v-11.1l-2,1.5v-2.3l2-1.6h2v13.5L80.5,142.7L80.5,142.7z"/>
			<path class="st6" d="M87.1,142.7h-2l3.5-11.7h-2.3v1.8h-1.9v-3.6h6.3v1.7L87.1,142.7z"/>
		</g>
		<g class="st10">
			<path class="st6" d="M65.6,142.1c-0.5,0.5-1.3,0.8-2.1,0.8c-0.8,0-1.6-0.3-2.2-0.8c-0.5-0.5-0.9-1.2-0.9-2.2v-7.7
				c0-1.1,0.3-1.7,0.9-2.2c0.5-0.5,1.3-0.8,2.2-0.8c0.8,0,1.6,0.3,2.1,0.8s0.9,1.2,0.9,2.2v7.7C66.4,140.9,66.1,141.6,65.6,142.1z
				 M64.4,132.1c0-0.8-0.4-1.2-1-1.2c-0.5,0-1,0.4-1,1.2v7.9c0,0.8,0.5,1.2,1,1.2s1-0.4,1-1.2V132.1z"/>
			<path class="st6" d="M73.4,140.6v2.1h-2v-2.1h-3.7v-1.8l3.5-9.6h1.9l-3.3,9.6h1.7v-2.4h2v2.4h0.9v1.8H73.4z"/>
		</g>
		<g class="st10">
			<path class="st6" d="M98.1,142.7v-11.1l-2,1.5v-2.3l2-1.6h2v13.5L98.1,142.7L98.1,142.7z"/>
			<path class="st6" d="M107.6,136.5l-2.4,6.2h-2.1l2.2-5.4c-0.2,0.2-0.5,0.2-0.8,0.2c-0.7,0-1.4-0.3-1.8-0.8
				c-0.5-0.6-0.7-1.3-0.7-3.3c0-1.8,0.2-2.5,0.7-3.2c0.5-0.8,1.4-1.1,2.4-1.1c1.1,0,1.9,0.4,2.4,1.1c0.5,0.8,0.7,1.5,0.7,3.2
				C108.2,134.6,108,135.7,107.6,136.5z M105.9,131.3c-0.2-0.2-0.4-0.3-0.7-0.3c-0.3,0-0.6,0.1-0.7,0.3c-0.3,0.4-0.3,1.3-0.3,2.1
				s0,1.7,0.3,2.2c0.2,0.2,0.5,0.3,0.7,0.3c0.3,0,0.5-0.1,0.7-0.3c0.3-0.4,0.3-1.3,0.3-2.2C106.2,132.6,106.2,131.7,105.9,131.3z"/>
		</g>
		<line class="st11" x1="56.8" y1="135.9" x2="115.3" y2="135.9"/>
		<ellipse transform="matrix(0.7357 -0.6773 0.6773 0.7357 -2.0295 46.9886)" class="st0" cx="59.2" cy="26.1" rx="3.7" ry="2.2"/>
		<path class="st7" d="M122.9,120.6l3.2,28.4c0.1,0.9,0.9,1.6,1.8,1.6h0.1c1,0,1.8-0.8,1.8-1.8c0-0.1,0-0.1,0-0.2l-3.3-28.4
			c-0.1-1-1-1.7-2-1.6l0,0C123.6,118.8,122.9,119.6,122.9,120.6z"/>
		<path class="st6" d="M126.4,128.7h4c0.9,0,1.7,0.8,1.7,1.7l0,0c0,0.9-0.8,1.7-1.7,1.7h-4c-0.9,0-1.7-0.8-1.7-1.7l0,0
			C124.7,129.5,125.5,128.7,126.4,128.7z"/>
		<path class="st12" d="M131.1,130.3c13.1,0,7.6,24.2,20.4,24.2c26.3,0,29.8,31.7-4.5,31.7"/>
		<path class="st6" d="M127.4,136.3h4c0.9,0,1.7,0.8,1.7,1.7l0,0c0,0.9-0.8,1.7-1.7,1.7h-4c-0.9,0-1.7-0.8-1.7-1.7l0,0
			C125.7,137.1,126.4,136.3,127.4,136.3z"/>
		<path class="st13" d="M132.1,137.8c6.4,0,6.4,10.2,20.4,10.2c36.5,0,35.2,45-4.3,45"/>
		<path class="st6" d="M128.5,143.9h4c0.9,0,1.7,0.8,1.7,1.7l0,0c0,0.9-0.8,1.7-1.7,1.7h-4c-0.9,0-1.7-0.8-1.7-1.7l0,0
			C126.8,144.6,127.6,143.9,128.5,143.9z"/>
		<path class="st14" d="M133.2,145.4c6.4,0,5.7,5.3,18.5,5.3c37.9,0,41.6,46.5-2.7,46.5"/>
		<line class="st15" x1="124.7" y1="131.6" x2="127.2" y2="131.6"/>
		<path class="st6" d="M125.5,121.2h4c0.9,0,1.7,0.8,1.7,1.7l0,0c0,0.9-0.8,1.7-1.7,1.7h-4c-0.9,0-1.7-0.8-1.7-1.7l0,0
			C123.8,121.9,124.5,121.2,125.5,121.2z"/>
		<line class="st15" x1="123.8" y1="124" x2="126.2" y2="124"/>
		<path class="st16" d="M130.2,122.7c13.1,0,7.6,16.6,20.4,16.6c36.9,0,34.8,49.8-3.1,49.8"/>
		<line class="st15" x1="125.8" y1="139.1" x2="128.3" y2="139.1"/>
		<line class="st15" x1="126.8" y1="146.7" x2="129.3" y2="146.7"/>
		<path class="st17" d="M127.1,53.5c-1.4-0.7-2.8-1.4-4.2-2.1l0.5-0.3c0.1,0.9,0.1,1.8,0.2,2.7c0,0.2-0.2,0.5-0.4,0.5
			c-0.1,0-0.2,0-0.3-0.1l0,0c-1.2-0.7-2.4-1.5-3.7-2.3l0.7-0.2c-0.6,1.8-1.3,3.5-2,5.3l0,0c-0.1,0.2-0.2,0.2-0.4,0.2l0,0
			c0,0-0.1,0-0.1-0.1c-0.8-0.8-1.5-1.7-2.2-2.5c0.9,0.7,1.8,1.3,2.6,2l-0.5,0.1c0.5-1.8,1.1-3.6,1.7-5.4c0.1-0.2,0.3-0.4,0.6-0.3
			l0,0h0.1l0,0c1.2,0.7,2.4,1.5,3.7,2.3l-0.7,0.4c0-0.9,0-1.8,0-2.8l0,0c0-0.2,0.2-0.3,0.4-0.3c0.1,0,0.1,0,0.2,0.1
			C124.6,51.6,125.9,52.5,127.1,53.5z"/>
		<ellipse transform="matrix(0.9171 -0.3986 0.3986 0.9171 -9.78 54.759)" class="st18" cx="126.8" cy="50.9" rx="3.6" ry="5.5"/>
		<path class="st18" d="M126.5,50.4c2-1,3.9-2.1,5.8-3.4c1.8-1.3,3.5-2.8,4.9-4.5c0.7-0.9,1.3-1.8,1.8-2.8s0.6-2.1,0.3-3.2
			c-0.5-1-1.6-1.6-2.7-1.4c-1.1,0.1-2.2,0.5-3.2,1c1-0.6,2.1-1,3.2-1.2c0.6-0.1,1.2,0,1.7,0.2c0.6,0.2,1,0.7,1.3,1.2
			c0.4,1.1,0.3,2.4-0.2,3.4c-0.4,1.1-1,2.1-1.7,3c-1.4,1.8-3,3.4-4.9,4.8c-1.8,1.4-3.7,2.6-5.8,3.7L126.5,50.4z"/>
		<path class="st19" d="M129.8,51.1c0,0.5-0.1,0.9-0.3,1.3c-0.3,0.4-0.8,0.6-1.3,0.5c-0.9-0.2-1.7-0.9-2.1-1.8
			c-0.4-0.8-0.5-1.8-0.2-2.7c0.2-0.5,0.5-0.8,1-1c0.5-0.1,0.9,0,1.3,0.3c-0.4-0.2-0.8-0.2-1.2,0c-0.3,0.2-0.6,0.5-0.7,0.9
			c-0.2,0.8-0.1,1.6,0.3,2.3c0.3,0.7,0.9,1.3,1.6,1.6C129,52.7,129.7,51.9,129.8,51.1z"/>
		<path class="st18" d="M122.6,55.6c-0.3,0-0.6,0-0.8-0.1c-0.3-0.1-0.6-0.1-0.8-0.2l0.2-0.1c-0.2,0.2-0.3,0.4-0.5,0.6
			c-0.2,0.2-0.3,0.4-0.5,0.5c0.1-0.2,0.2-0.5,0.3-0.7c0.1-0.2,0.3-0.4,0.4-0.6c0-0.1,0.1-0.1,0.2-0.1l0,0c0.3,0.1,0.5,0.2,0.8,0.3
			C122.1,55.4,122.3,55.5,122.6,55.6z"/>
		<path class="st18" d="M120.7,50c-0.8-0.3-1.6-0.7-2.4-1.1l0.2-0.1c-0.1,0.7-0.1,1.3-0.3,2s-0.2,1.3-0.4,2l0,0c0,0,0,0.1-0.1,0.1
			c-0.4,0.1-0.8,0.3-1.3,0.4c0.4-0.2,0.8-0.4,1.2-0.6l-0.1,0.1c0-0.7,0.1-1.3,0.2-2s0.2-1.3,0.3-2l0,0c0-0.1,0.1-0.1,0.2-0.1l0,0
			l0,0C119.1,49,119.9,49.5,120.7,50z"/>
		<path class="st17" d="M114.6,86.1c2.2-0.3,4.4-0.5,6.7-0.7c0.2,0,0.4,0.1,0.4,0.4c0,0.1,0,0.2-0.1,0.2l0,0c-0.7,1-1.4,2.1-2.1,3.1
			l-0.5-0.7c2.8-0.6,5.6-1.1,8.3-1.7l0,0c0.2,0,0.4,0.1,0.5,0.3c0,0.1,0,0.1,0,0.2c-0.5,1.7-1.1,3.5-1.7,5.2l-0.2-0.3
			c1.3,0,2.6-0.1,3.9-0.2c-1.3,0.2-2.5,0.4-3.8,0.6c-0.1,0-0.2-0.1-0.3-0.2v-0.1l0,0c0.4-1.8,0.9-3.6,1.3-5.3l0.5,0.5
			c-2.8,0.6-5.5,1.2-8.3,1.8l0,0c-0.3,0-0.5-0.1-0.5-0.4c0-0.1,0-0.2,0.1-0.3c0.7-1,1.5-2,2.2-3l0.3,0.6
			C119.1,86.2,116.9,86.2,114.6,86.1z"/>
		
			<ellipse transform="matrix(0.3986 -0.9171 0.9171 0.3986 -5.3432 170.5709)" class="st18" cx="127.4" cy="89.4" rx="5.5" ry="3.6"/>
		<path class="st18" d="M127.7,89c2,1.1,3.9,2.3,5.7,3.7c1.8,1.4,3.5,3,4.8,4.8c0.7,0.9,1.3,1.9,1.7,3c0.5,1.1,0.6,2.3,0.2,3.4
			c-0.2,0.6-0.7,1-1.3,1.2c-0.5,0.2-1.1,0.3-1.7,0.2c-1.1-0.2-2.2-0.5-3.2-1.1c1,0.5,2.1,0.9,3.2,1c1.1,0.2,2.2-0.4,2.7-1.4
			c0.3-1.1,0.2-2.2-0.3-3.1c-0.4-1-1-1.9-1.7-2.8c-1.4-1.7-3.1-3.2-4.9-4.4c-1.8-1.3-3.7-2.5-5.7-3.5L127.7,89z"/>
		<path class="st19" d="M130.4,89.3c-0.1-0.8-0.8-1.6-1.5-1.4c-0.7,0.3-1.3,0.8-1.6,1.6c-0.4,0.7-0.5,1.5-0.3,2.3
			c0.1,0.4,0.3,0.7,0.7,0.9c0.4,0.2,0.8,0.2,1.2,0c-0.4,0.3-0.8,0.4-1.3,0.3c-0.5-0.2-0.8-0.5-1-1c-0.3-0.9-0.2-1.8,0.2-2.7
			c0.4-0.9,1.1-1.5,2.1-1.7c0.5-0.1,1,0.1,1.3,0.5C130.3,88.4,130.4,88.9,130.4,89.3z"/>
		<path class="st18" d="M122.9,85.9c-0.1-0.8-0.2-1.6-0.2-2.5l0.2,0.2c-0.9,0.1-1.8,0.2-2.7,0.2c0.9-0.3,1.7-0.4,2.6-0.6
			c0.1,0,0.2,0,0.2,0.1l0,0l0,0C123.1,84.2,123,85.1,122.9,85.9z"/>
		<path class="st18" d="M120.9,90.3c-0.8,0.1-1.7,0.2-2.6,0.3s-1.7,0.1-2.6,0.1l0,0c-0.1,0-0.2-0.1-0.2-0.2v-0.1
			c0.4-0.7,0.8-1.4,1.2-2v0.2c-0.4-0.3-0.8-0.6-1.3-0.8c0.5,0.2,0.9,0.4,1.4,0.7v0.1l0,0c-0.3,0.7-0.7,1.4-1.1,2.1l-0.2-0.3
			c0.8-0.1,1.7,0,2.6-0.1S120.1,90.3,120.9,90.3z"/>
		<path class="st17" d="M39,58.1c-0.6-1.2-1.2-2.4-1.8-3.6l0.5,0.2c-0.8,0.5-1.6,0.9-2.4,1.3c-0.2,0.1-0.5,0-0.6-0.2
			c0-0.1-0.1-0.2-0.1-0.3l0,0c0.1-1.4,0.3-2.8,0.5-4.3l0.7,0.5c-1.6,0.8-3.3,1.5-4.9,2.2l0,0c-0.2,0.1-0.4,0-0.4-0.2
			c0-0.1,0-0.1,0-0.2c0.3-1.6,0.7-3.3,1.1-4.9c-0.1,1.7-0.3,3.3-0.5,5l-0.5-0.3c1.6-0.9,3.1-1.7,4.7-2.5c0.2-0.1,0.5,0,0.6,0.2
			c0,0.1,0.1,0.2,0.1,0.3l0,0c-0.1,1.4-0.3,2.8-0.5,4.3l-0.7-0.5c0.8-0.4,1.7-0.8,2.5-1.2l0,0c0.2-0.1,0.4,0,0.4,0.2l0,0
			C38.3,55.5,38.6,56.8,39,58.1z"/>
		
			<ellipse transform="matrix(0.3667 -0.9303 0.9303 0.3667 -28.8175 59.4284)" class="st18" cx="29.2" cy="50.9" rx="5.5" ry="3.6"/>
		<path class="st19" d="M26.1,51c0.1,0.8,0.8,1.6,1.5,1.4c0.7-0.3,1.3-0.8,1.6-1.6c0.4-0.7,0.5-1.5,0.3-2.3
			c-0.1-0.4-0.3-0.7-0.7-0.9c-0.4-0.2-0.8-0.2-1.2,0c0.4-0.3,0.8-0.3,1.2-0.2c0.5,0.2,0.8,0.5,1,1c0.3,0.9,0.2,1.9-0.2,2.7
			c-0.4,0.9-1.1,1.5-2.1,1.8c-0.5,0.1-1-0.1-1.3-0.5C26.2,51.9,26.1,51.5,26.1,51z"/>
		<path class="st18" d="M28.5,50.4c-2-1.1-3.9-2.3-5.8-3.7c-1.8-1.4-3.5-3-4.9-4.8c-0.7-0.9-1.3-1.9-1.7-3c-0.5-1.1-0.6-2.3-0.2-3.4
			c0.2-0.6,0.7-1,1.3-1.2s1.2-0.3,1.8-0.2c1.1,0.2,2.2,0.5,3.2,1.1c-1-0.5-2.1-0.9-3.2-1c-1.1-0.2-2.2,0.3-2.7,1.4
			c-0.3,1.1-0.2,2.2,0.3,3.2c0.4,1,1,2,1.8,2.8c1.4,1.7,3.1,3.3,5,4.5c1.8,1.3,3.8,2.4,5.8,3.4L28.5,50.4z"/>
		<path class="st18" d="M34.4,49.4c1-0.4,2.1-0.8,3.2-1.1c0.1,0,0.2,0,0.2,0.1v0.1l0,0c-0.2,1.2-0.4,2.4-0.6,3.6L37.1,52
			c0.4,0.1,0.9,0.2,1.3,0.3c-0.5,0-0.9,0-1.3-0.1c-0.1,0-0.1-0.1-0.1-0.1l0,0l0,0c0.1-1.2,0.3-2.4,0.5-3.6l0.2,0.2
			C36.6,48.9,35.5,49.2,34.4,49.4z"/>
		<path class="st18" d="M32.7,55.3c0.6,0.6,1.1,1.3,1.6,2.1l-0.2-0.1c1,0,2,0.1,2.9,0.3c-1,0.1-2,0.1-2.9,0.1c-0.1,0-0.1,0-0.2-0.1
			C33.5,56.8,33.1,56,32.7,55.3z"/>
		<path class="st17" d="M77.6,32c0.3-1.5,0.7-2.9,1.1-4.4l0.1,0.4c-0.7-0.5-1.4-1.1-2.2-1.7c-0.2-0.2-0.2-0.4-0.1-0.6l0.1-0.1l0,0
			c0.9-0.4,1.8-0.8,2.6-1.2l-0.1,0.8c-1.3-1.2-2.7-2.4-4-3.6l0,0c-0.1-0.1-0.1-0.3,0-0.5c0-0.1,0.1-0.1,0.2-0.1
			c1.6-0.3,3.3-0.6,5-0.8c-1.6,0.5-3.2,1-4.8,1.5l0.1-0.6c1.4,1.1,2.8,2.3,4.1,3.4c0.2,0.2,0.2,0.4,0.1,0.6l-0.1,0.1l0,0
			c-0.9,0.4-1.7,0.8-2.6,1.2l0.1-0.8c0.7,0.6,1.4,1.2,2,1.9l0,0c0.1,0.1,0.1,0.2,0.1,0.4C78.8,29.3,78.2,30.7,77.6,32z"/>
		
			<ellipse transform="matrix(0.9999 -1.448566e-02 1.448566e-02 0.9999 -0.2642 1.1261)" class="st18" cx="77.6" cy="18.8" rx="5.5" ry="3.6"/>
		<path class="st19" d="M75.9,16c-0.7,0.4-1.2,1.4-0.7,2s1.3,0.9,2.1,0.9c0.8,0.1,1.6-0.1,2.3-0.6c0.3-0.2,0.5-0.6,0.6-1
			c0-0.4-0.2-0.8-0.5-1.1c0.4,0.2,0.7,0.6,0.8,1.1c0,0.5-0.2,1-0.5,1.3c-0.7,0.6-1.6,0.9-2.6,0.8c-1,0-1.9-0.5-2.4-1.3
			c-0.3-0.4-0.3-1,0-1.4C75.1,16.4,75.5,16.1,75.9,16z"/>
		<path class="st18" d="M77.7,18.7c-0.2-2.3-0.2-4.6,0-6.9c0.1-2.3,0.6-4.6,1.3-6.7c0.4-1.1,0.9-2.1,1.6-3c0.6-1,1.6-1.8,2.8-2.1
			c0.6-0.1,1.2,0,1.7,0.4c0.5,0.3,0.8,0.8,1.1,1.3C86.7,2.7,87,3.8,87,5c-0.1-1.1-0.4-2.2-0.9-3.2c-0.4-1-1.5-1.7-2.6-1.5
			c-1,0.3-1.9,1.1-2.5,2s-1.1,1.9-1.4,3c-0.6,2.1-1,4.3-1.1,6.6c-0.1,2.2,0,4.5,0.3,6.7L77.7,18.7z"/>
		<path class="st18" d="M80.9,23c0.8,0.8,1.5,1.6,2.2,2.5c0.1,0.1,0.1,0.2,0,0.2H83l0,0c-1.2,0.3-2.4,0.6-3.6,0.8v-0.2
			c0.6,0.5,1.2,0.9,1.8,1.4c-0.6-0.4-1.3-0.8-1.9-1.2c-0.1,0-0.1-0.1,0-0.2l0,0l0,0c1.2-0.3,2.3-0.6,3.5-0.9l-0.1,0.3
			C82.1,24.8,81.5,23.9,80.9,23z"/>
		<path class="st18" d="M76.3,23.7c-0.9,0.8-1.9,1.6-2.9,2.3v-0.3c0.8,0.9,1.6,1.9,2.4,2.9c-0.9-0.8-1.8-1.7-2.7-2.6
			c-0.1-0.1-0.1-0.2,0-0.3l0,0l0,0C74.2,25,75.2,24.3,76.3,23.7z"/>
		<path class="st17" d="M40.1,83.8c-0.9,0.1-1.9,0.1-2.8,0.1s-1.9,0-2.8,0l0.4-0.3c-0.2,1-0.4,2.1-0.7,3.1c-0.1,0.2-0.3,0.4-0.5,0.3
			l0,0c-1.7-0.3-3.4-0.7-5.1-1l0.5-0.5c0.1,1.3,0.2,2.6,0.2,3.9l0,0c0,0.1-0.1,0.3-0.2,0.3l0,0H29c-1-0.4-2.1-0.8-3.1-1.3
			c1.1,0.2,2.2,0.5,3.2,0.8l-0.4,0.3c-0.2-1.3-0.4-2.6-0.6-3.8c0-0.2,0.1-0.4,0.4-0.5h0.1c1.7,0.3,3.4,0.6,5.1,1l-0.5,0.3
			c0.3-1,0.5-2.1,0.8-3.1l0,0c0-0.2,0.2-0.3,0.4-0.3c0.9,0.1,1.9,0.2,2.8,0.3C38.2,83.6,39.2,83.6,40.1,83.8z"/>
		
			<ellipse transform="matrix(0.9303 -0.3667 0.3667 0.9303 -30.4418 16.5281)" class="st18" cx="28.3" cy="88.4" rx="3.6" ry="5.5"/>
		<path class="st19" d="M25.2,88.3c0-0.5,0.1-0.9,0.3-1.3c0.3-0.4,0.8-0.6,1.3-0.5c0.9,0.2,1.7,0.9,2.1,1.8c0.4,0.8,0.5,1.8,0.2,2.7
			c-0.2,0.5-0.5,0.8-1,1c-0.5,0.1-0.9,0-1.3-0.3c0.4,0.2,0.8,0.2,1.2,0c0.3-0.2,0.6-0.5,0.7-0.9c0.2-0.8,0.1-1.6-0.3-2.3
			c-0.3-0.7-0.9-1.3-1.6-1.6C26,86.7,25.3,87.4,25.2,88.3z"/>
		<path class="st18" d="M28.1,89.9c-2,1-3.9,2.1-5.8,3.4c-1.8,1.3-3.5,2.8-4.9,4.5c-0.7,0.9-1.3,1.8-1.8,2.8c-0.5,1-0.6,2.1-0.3,3.2
			c0.5,1,1.6,1.6,2.7,1.4c1.1-0.1,2.2-0.5,3.2-1c-1,0.6-2.1,1-3.2,1.1c-0.6,0.1-1.2,0-1.7-0.2c-0.6-0.2-1-0.7-1.3-1.2
			c-0.4-1.1-0.3-2.4,0.2-3.4c0.4-1.1,1-2.1,1.7-3c1.4-1.8,3-3.4,4.9-4.8c1.8-1.4,3.7-2.6,5.8-3.7L28.1,89.9z"/>
		<path class="st18" d="M32,83.4c0.4-0.8,0.9-1.5,1.4-2.2c0-0.1,0.1-0.1,0.2-0.1c0.9,0.3,1.8,0.7,2.6,1.1c-0.9-0.2-1.8-0.4-2.7-0.8
			l0.2-0.1C33.1,82.2,32.6,82.8,32,83.4z"/>
		<path class="st18" d="M33.7,88.3c0.6-0.4,1.3-0.7,2-0.9l-0.1,0.2c0-0.5,0-1,0-1.5l0,0c0-0.1,0-0.1,0.1-0.1
			c0.6-0.3,1.2-0.6,1.8-0.8c-0.5,0.4-1.1,0.8-1.6,1.1l0.1-0.2c0,0.5,0,1,0,1.5l0,0c0,0.1,0,0.1-0.1,0.2C35.1,88,34.4,88.2,33.7,88.3
			z"/>
	</g>
</g>
</svg>
