<svg xmlns="http://www.w3.org/2000/svg" width="22.55" height="20.54" viewBox="0 0 22.55 20.54"><defs><style>.cls-1{fill:#de4f03;}.cls-2{fill:#0088b2;}.cls-3{fill:#00b4d2;}.cls-4{fill:#f6fbfd;}</style></defs><title>Asset 3x</title><g id="Layer_2" data-name="Layer 2"><g id="Layer_3" data-name="Layer 3"><path class="cls-1" d="M19.28,3.92,19.63,1a.57.57,0,0,0-.56-.64H17L15.29,1.87a9.47,9.47,0,1,0,4,2.05Z"/><circle class="cls-2" cx="11.76" cy="10.69" r="9.46"/><path class="cls-2" d="M13.13,2.19,15.72,0h2a.57.57,0,0,1,.56.64l-.58,4.83Z"/><circle class="cls-3" cx="9.46" cy="10.69" r="9.46"/><path class="cls-4" d="M9.4,5.09V3.9a.2.2,0,0,0-.35-.14L6.14,6.67a.2.2,0,0,0,0,.29L9.05,9.87a.2.2,0,0,0,.35-.14V8.34a2.47,2.47,0,1,1-2.34,3.28.33.33,0,0,0-.29-.22.32.32,0,0,0-.32.43,3.15,3.15,0,0,0,2.85,2.09,3.32,3.32,0,0,0,3.2-2.45,3.15,3.15,0,0,0-1.24-3.28.36.36,0,0,1-.11-.46.35.35,0,0,1,.48-.13l0,0a3.86,3.86,0,1,1-6,4.06.3.3,0,0,0-.58.13h0a4.43,4.43,0,0,0,.8,1.67.36.36,0,0,1,0,.49.35.35,0,0,1-.49,0v0a5.12,5.12,0,0,1-1-2.25.31.31,0,0,0-.27-.26.3.3,0,0,0-.32.34A5.72,5.72,0,1,0,9.4,5.09Zm.66,1.25-.34,0a.35.35,0,0,1,0-.7l.39,0A5.18,5.18,0,0,1,14,8.34a.35.35,0,0,1-.14.47l-.06,0a.37.37,0,0,1-.43-.19A4.47,4.47,0,0,0,10.06,6.35Zm4.46,5.15a5.16,5.16,0,0,1-8.2,3.38.35.35,0,1,1,.42-.56,4.46,4.46,0,0,0,7.09-2.92.35.35,0,0,1,.69.1Z"/><path class="cls-3" d="M11.9,2l3.6-2a.58.58,0,0,1,.8.61l-.53,4.43a0,0,0,0,1,0,0L11.2,1.88S11.88,2,11.9,2Z"/></g></g></svg>