<svg xmlns="http://www.w3.org/2000/svg" width="68.06" height="40.65" viewBox="0 0 68.06 40.65"><defs><style>.cls-1{fill:#addcf1;}.cls-2{fill:#465679;}.cls-2,.cls-3{fill-rule:evenodd;}.cls-3{fill:#2f3b4f;}.cls-4{fill:#c5e9fa;}.cls-5{fill:#f6fbfd;}</style></defs><title>Asset 4x</title><g id="Layer_2" data-name="Layer 2"><g id="Layer_8" data-name="Layer 8"><path class="cls-1" d="M50.73,14.72s5.71-2.89,5.85-3.62c0,0,.6,1.22-.89,3S50.73,14.72,50.73,14.72Z"/><path class="cls-2" d="M52.72,24.2l-5.05-6.31A28.44,28.44,0,0,0,52.31,14c1.29-1.59,2.46-6.22,3.67-7.16.79-.61,2.9-3.14,3-4.83s.44-2.26.9-2c1.72,1,1.29,7.08-.56,7.83a19.42,19.42,0,0,0,5.83-2.66c1.37-.84,2.69,2.32,1.25,3.32-.81.56-1.24.29-1.21.52s1.18-.27,1.52-.53,2.31,2.59-.36,3.91c1.13-.85,2.57,1,1.09,2.63-1.65,1.77-2.07,2-8.41,4.73-1.94.8-6.3,4.4-6.3,4.4"/><path class="cls-3" d="M59.32,8.17a14,14,0,0,1-2.14.29,18.94,18.94,0,0,0,1.91-.71c.59-.25.86-1.45.86-1.45l-.17,1a9.51,9.51,0,0,1,.45-1.22c0,.19,0,1.44.1,1.4S61.88,7,61.88,7A15.73,15.73,0,0,1,59.32,8.17Z"/><path class="cls-4" d="M51.92,25.89c-.87.65-2,1.33-3,.91a13.05,13.05,0,0,0,7.4-5.5,4.75,4.75,0,0,1-3.06-.41l.38,0,2.89-.11A13.4,13.4,0,0,1,53,19a12.87,12.87,0,0,1,3.91-.8A31.64,31.64,0,0,0,53,16.43a2.45,2.45,0,0,0,1.91-1,2.6,2.6,0,0,1-1.76-.57,3.79,3.79,0,0,1,3,.68c-.33-2.42-2.69-1.81-3.47-1.55,1.09-.38.89-1.32,1.22-2.42C51,13.71,48.63,15,45.07,15.22a4.08,4.08,0,0,1,2.65-1.5c-4.94.29-10,.61-14.48,2.72l1.67-1.67a11.67,11.67,0,0,0-7,3.42l.66-3A5.57,5.57,0,0,1,23,19.36a.14.14,0,0,1,0-.27,6.87,6.87,0,0,0,1.52-.55.14.14,0,0,0-.06-.26c-1.45,0-3.23-.61-4.43-.27s-3.32,2.84-4.37,3.84a.14.14,0,0,0,0,.21l1,.72a.14.14,0,0,1,0,.24c-1.74.5-3.47,1.07-5.17,1.74-1.92.75-3.88,1.6-4.78,5.83a26.68,26.68,0,0,0,2.08,2.66A32.46,32.46,0,0,1,11.83,37a.14.14,0,0,0,.25-.09,4,4,0,0,0-.29-1,.14.14,0,0,1,.21-.16,6.35,6.35,0,0,1,.68.8.14.14,0,0,0,.16,0,9.59,9.59,0,0,1,1.7-.61.14.14,0,0,1,.1.25h0a.14.14,0,0,0,0,.25,12.83,12.83,0,0,0,8.1-1A4.13,4.13,0,0,0,21,35.16a39.9,39.9,0,0,1,10.71.77,7.48,7.48,0,0,0-2.46-1.15A17.22,17.22,0,0,0,42,32.4a5.84,5.84,0,0,1-2.64.24A30,30,0,0,0,51.92,25.89Z"/><path class="cls-5" d="M56.34,21.3a5.28,5.28,0,0,1-3.14-.44c.56,0,3.29-.06,3.34-.13A13.79,13.79,0,0,1,53,19a12.68,12.68,0,0,1,3.88-.82,4.87,4.87,0,0,0-3.32-.41c-2.09.33-3.36,2.8-5.45,2.84a3.19,3.19,0,0,0,2.61-.49,3.22,3.22,0,0,1-1.53,1.62,5.29,5.29,0,0,1-1.66.55,5.23,5.23,0,0,1-1.29-.21l.06.08q-.88-.29-1.74-.66A7.34,7.34,0,0,0,48,23.31a15.84,15.84,0,0,1-10.36-1.38,8.58,8.58,0,0,0,5.28,2.73A16.25,16.25,0,0,1,30,24a24.1,24.1,0,0,0,3.31,3.14c-.26,0-14.54,7.34-20.61-3.23,0,0-1.47.9-1.51.92-2,.86-4.3-2.57-4.92-.11C6,25.78-.71,29.52.06,31c0-1.65.53,2.83,1.76,3.55-.4-2.43,9,4,8.86,3.7a.14.14,0,0,1,.21-.16c.16.14,2.16.7,1.26.59-2.44-.11,2.15,1.8,2.92,1.86a29.53,29.53,0,0,0,9.74-.74L21,39.4a54.05,54.05,0,0,0,23.34-6.08l-3.89.39a17.33,17.33,0,0,0,7.88-4.57c.51-.49,1-1,1.46-1.52q1.09-.82,2.11-1.74a6.92,6.92,0,0,1-1.3.8l.65-.8a13.08,13.08,0,0,0,5-4.4C56.17,21.56,56.47,21.17,56.34,21.3Z"/></g></g></svg>