<svg xmlns="http://www.w3.org/2000/svg" width="21.35" height="19.2" viewBox="0 0 21.35 19.2"><defs><style>.cls-1{fill:#465679;fill-rule:evenodd;}.cls-2{fill:#2f3b4f;}</style></defs><title>Asset 7x</title><g id="Layer_2" data-name="Layer 2"><g id="Layer_10" data-name="Layer 10"><path class="cls-1" d="M.1,7.06a4.2,4.2,0,0,1,5.12-3.2c1.19.31,2.17.3,2.76-.5C9,2,12.45.62,14.29,0a.67.67,0,0,1,.89.58c.07,2.23-3.11,3.06-3.53,4.27s1.71,10.71,8.11,12.29c3.22.8,1.77,3.61-6.47.83.44.9-1.34,1.44-3.45-.12a28.46,28.46,0,0,1-4.27-4.69A5.28,5.28,0,0,0,3.1,12.06a4.23,4.23,0,0,1-3-5Z"/><path class="cls-2" d="M13,17.46c-.38-.87-.72-1.76-1.06-2.65s-.64-1.79-1-2.63a3.13,3.13,0,0,0-.33-.58.58.58,0,0,0-.19-.18.14.14,0,0,0-.15,0,2.71,2.71,0,0,0-.56,1.17,8.36,8.36,0,0,0-.12,2.8,6.59,6.59,0,0,1-.16-2.86A2.61,2.61,0,0,1,10,11.19a.48.48,0,0,1,.5-.1.88.88,0,0,1,.34.28,3.36,3.36,0,0,1,.39.65,25.5,25.5,0,0,1,1,2.7C12.49,15.62,12.76,16.53,13,17.46Z"/></g></g></svg>