<svg xmlns="http://www.w3.org/2000/svg" width="153.12" height="123" viewBox="0 0 153.12 123"><defs><style>.cls-1{fill:#f98142;}.cls-2{fill:#f6fbfd;}.cls-3{fill:none;stroke:#de4f03;stroke-linecap:round;stroke-linejoin:round;stroke-width:3px;}</style></defs><title>Asset 6</title><g id="Layer_2" data-name="Layer 2"><g id="Layer_8" data-name="Layer 8"><path class="cls-1" d="M145.77,113.07,4.14,123A4.14,4.14,0,0,1,0,118.86V4.24A4.14,4.14,0,0,1,4.41.11L146,9.31a4.14,4.14,0,0,1,3.87,4.13v95.5A4.14,4.14,0,0,1,145.77,113.07Z"/><path class="cls-2" d="M150.57,118.16,5.93,122.91a2.63,2.63,0,0,1-2.72-2.63V2.63A2.63,2.63,0,0,1,6,0L150.66,9.4A2.63,2.63,0,0,1,153.12,12V115.53A2.63,2.63,0,0,1,150.57,118.16Z"/><line class="cls-3" x1="135.12" y1="18.29" x2="143.12" y2="28.32"/><line class="cls-3" x1="143.08" y1="18.83" x2="135.16" y2="27.61"/></g></g></svg>