<svg xmlns="http://www.w3.org/2000/svg" width="263.76" height="384.77" viewBox="0 0 263.76 384.77"><defs><style>.cls-1{fill:#cc3e00;}.cls-2{fill:#f98142;}.cls-3{fill:#de4f03;}</style></defs><title>Asset 3</title><g id="Layer_2" data-name="Layer 2"><g id="Layer_13" data-name="Layer 13"><path class="cls-1" d="M116.12,304c9-36,26-205.49,21.5-250.49s22-43.5,23.5-1.5-6,202.49-9,240S116.12,304,116.12,304Z"/><path class="cls-2" d="M124.71,117.55C61.34,128.24,14.62,198,.38,331.46c-11.79,110.46,257.23,15,257.23,15S297.11,88.5,124.71,117.55Z"/><path class="cls-3" d="M156.13,127.68c-55.51,9.81-91.51,127.31-89,205,1.92,59.81,194,.34,194,.34S290.12,104,156.13,127.68Z"/><path class="cls-3" d="M103.82.68C58,4.5,59.83,70,80.7,90.89c13.49,13.49,80.83,9.68,126.81,5.29,24.81-2.37,33.61-23.44,33.12-48.36h0c-.5-25.47-10.95-46-36.41-46.68C167.57.21,119.65-.64,103.82.68Z"/><ellipse class="cls-2" cx="96.17" cy="50.82" rx="22.93" ry="38.58"/></g></g></svg>