<?xml version="1.0" encoding="utf-8"?>
<!-- Generator: Adobe Illustrator 21.0.0, SVG Export Plug-In . SVG Version: 6.00 Build 0)  -->
<svg version="1.1" id="Layer_11" xmlns="http://www.w3.org/2000/svg" xmlns:xlink="http://www.w3.org/1999/xlink" x="0px" y="0px"
	 width="1960px" height="1068px" viewBox="0 0 1960 1068" style="enable-background:new 0 0 1960 1068;" xml:space="preserve">
<style type="text/css">
	.st0{fill:#221F66;}
</style>
<path class="st0" d="M1852.3,599.4c-167.4-70.6-279.9-120.3-259-279.9c26.9-205.1-423.8,65.4-342.7-125.6
	c74.3-175-273.9-286.4-509.1-1.7C597.7,366.2,457,44.7,307.7,33.3C119.7,18.9,14,235.8,45.4,424.2S35.7,617.3,61,797
	c50.4,358.1,502.9-155.2,505.5-53.2c2.5,96.5-21,30.2,53.5,162.6c77.3,137.5,180.7-302.2,405.2,33.2
	c200.6,299.8,915.4-161.1,915.4-161.1"/>
</svg>
