<?xml version="1.0" encoding="utf-8"?>
<!-- Generator: Adobe Illustrator 21.0.0, SVG Export Plug-In . SVG Version: 6.00 Build 0)  -->
<svg version="1.1" id="Layer_11" xmlns="http://www.w3.org/2000/svg" xmlns:xlink="http://www.w3.org/1999/xlink" x="0px" y="0px"
	 width="731.7px" height="1523.8px" viewBox="0 0 731.7 1523.8" style="enable-background:new 0 0 731.7 1523.8;"
	 xml:space="preserve">
<style type="text/css">
	.st0{fill:#5454CC;stroke:#5454CC;stroke-width:0.6305;stroke-miterlimit:10;}
	.st1{fill:#5454CC;}
</style>
<g>
	<path class="st0" d="M590.6,1132.3c0-2.2,2.1-3.6,3.6-3.6c0.1,0,0.2-0.1,0.2-0.2s-0.1-0.2-0.2-0.2c-1.5,0-3.6-1.4-3.6-3.6
		c0-0.1-0.1-0.2-0.2-0.2s-0.2,0.1-0.2,0.2c0,2.2-2.1,3.6-3.6,3.6c-0.1,0-0.2,0.1-0.2,0.2s0.1,0.2,0.2,0.2c1.5,0,3.6,1.4,3.6,3.6
		c0,0.1,0.1,0.2,0.2,0.2S590.6,1132.4,590.6,1132.3z"/>
	<path class="st0" d="M556.6,1253.6c0-2.2,2.1-3.6,3.6-3.6c0.1,0,0.2-0.1,0.2-0.2s-0.1-0.2-0.2-0.2c-1.5,0-3.6-1.4-3.6-3.6
		c0-0.1-0.1-0.2-0.2-0.2s-0.2,0.1-0.2,0.2c0,2.2-2.1,3.6-3.6,3.6c-0.1,0-0.2,0.1-0.2,0.2s0.1,0.2,0.2,0.2c1.5,0,3.6,1.4,3.6,3.6
		c0,0.1,0.1,0.2,0.2,0.2S556.6,1253.7,556.6,1253.6z"/>
	<path class="st0" d="M599.1,1236.6c0-2.2,2.1-3.6,3.6-3.6c0.1,0,0.2-0.1,0.2-0.2s-0.1-0.2-0.2-0.2c-1.5,0-3.6-1.4-3.6-3.6
		c0-0.1-0.1-0.2-0.2-0.2s-0.2,0.1-0.2,0.2c0,2.2-2.1,3.6-3.6,3.6c-0.1,0-0.2,0.1-0.2,0.2s0.1,0.2,0.2,0.2c1.5,0,3.6,1.4,3.6,3.6
		c0,0.1,0.1,0.2,0.2,0.2S599.1,1236.7,599.1,1236.6z"/>
	<path class="st0" d="M590,740.8c1.6,1.6,1.1,4,0,5c-0.1,0.1-0.1,0.2,0,0.3c0.1,0.1,0.2,0.1,0.3,0c1.1-1.1,3.5-1.6,5,0
		c0.1,0.1,0.2,0.1,0.3,0c0.1-0.1,0.1-0.2,0-0.3c-1.6-1.6-1.1-4,0-5c0.1-0.1,0.1-0.2,0-0.3c-0.1-0.1-0.2-0.1-0.3,0
		c-1.1,1.1-3.5,1.6-5,0c-0.1-0.1-0.2-0.1-0.3,0C589.9,740.6,589.9,740.7,590,740.8z"/>
	<path class="st0" d="M258.2,510.4c0-2.2,2.1-3.6,3.6-3.6c0.1,0,0.2-0.1,0.2-0.2s-0.1-0.2-0.2-0.2c-1.5,0-3.6-1.4-3.6-3.6
		c0-0.1-0.1-0.2-0.2-0.2s-0.2,0.1-0.2,0.2c0,2.2-2.1,3.6-3.6,3.6c-0.1,0-0.2,0.1-0.2,0.2s0.1,0.2,0.2,0.2c1.5,0,3.6,1.4,3.6,3.6
		c0,0.1,0.1,0.2,0.2,0.2S258.2,510.5,258.2,510.4z"/>
	<path class="st0" d="M414.9,1153.8c0-2.2,2.1-3.6,3.6-3.6c0.1,0,0.2-0.1,0.2-0.2s-0.1-0.2-0.2-0.2c-1.5,0-3.6-1.4-3.6-3.6
		c0-0.1-0.1-0.2-0.2-0.2s-0.2,0.1-0.2,0.2c0,2.2-2.1,3.6-3.6,3.6c-0.1,0-0.2,0.1-0.2,0.2s0.1,0.2,0.2,0.2c1.5,0,3.6,1.4,3.6,3.6
		c0,0.1,0.1,0.2,0.2,0.2S414.9,1154,414.9,1153.8z"/>
	<path class="st0" d="M500.8,224.8c0-2.2,2.1-3.6,3.6-3.6c0.1,0,0.2-0.1,0.2-0.2s-0.1-0.2-0.2-0.2c-1.5,0-3.6-1.4-3.6-3.6
		c0-0.1-0.1-0.2-0.2-0.2s-0.2,0.1-0.2,0.2c0,2.2-2.1,3.6-3.6,3.6c-0.1,0-0.2,0.1-0.2,0.2s0.1,0.2,0.2,0.2c1.5,0,3.6,1.4,3.6,3.6
		c0,0.1,0.1,0.2,0.2,0.2S500.8,225,500.8,224.8z"/>
	<path class="st0" d="M647.6,412.4c0-2.2,2.1-3.6,3.6-3.6c0.1,0,0.2-0.1,0.2-0.2s-0.1-0.2-0.2-0.2c-1.5,0-3.6-1.4-3.6-3.6
		c0-0.1-0.1-0.2-0.2-0.2s-0.2,0.1-0.2,0.2c0,2.2-2.1,3.6-3.6,3.6c-0.1,0-0.2,0.1-0.2,0.2s0.1,0.2,0.2,0.2c1.5,0,3.6,1.4,3.6,3.6
		c0,0.1,0.1,0.2,0.2,0.2S647.6,412.5,647.6,412.4z"/>
	<path class="st0" d="M600.4,138.1c0-3.1,2.9-5,5-5c0.2,0,0.3-0.2,0.3-0.3s-0.2-0.3-0.3-0.3c-2.1,0-5-1.9-5-5c0-0.2-0.2-0.3-0.3-0.3
		c-0.2,0-0.3,0.2-0.3,0.3c0,3.1-2.9,5-5,5c-0.2,0-0.3,0.2-0.3,0.3s0.2,0.3,0.3,0.3c2.1,0,5,1.9,5,5c0,0.2,0.2,0.3,0.3,0.3
		C600.3,138.5,600.4,138.3,600.4,138.1z"/>
	<path class="st0" d="M220.3,169.1c0-3.1,2.9-5,5-5c0.2,0,0.3-0.2,0.3-0.3s-0.2-0.3-0.3-0.3c-2.1,0-5-1.9-5-5c0-0.2-0.2-0.3-0.3-0.3
		s-0.3,0.2-0.3,0.3c0,3.1-2.9,5-5,5c-0.2,0-0.3,0.2-0.3,0.3s0.2,0.3,0.3,0.3c2.1,0,5,1.9,5,5c0,0.2,0.2,0.3,0.3,0.3
		S220.3,169.3,220.3,169.1z"/>
	<path class="st0" d="M523,1258.7c0-3.1,2.9-5,5-5c0.2,0,0.3-0.2,0.3-0.3s-0.2-0.3-0.3-0.3c-2.1,0-5-1.9-5-5c0-0.2-0.2-0.3-0.3-0.3
		c-0.2,0-0.3,0.2-0.3,0.3c0,3.1-2.9,5-5,5c-0.2,0-0.3,0.2-0.3,0.3s0.2,0.3,0.3,0.3c2.1,0,5,1.9,5,5c0,0.2,0.2,0.3,0.3,0.3
		C522.9,1259.1,523,1258.9,523,1258.7z"/>
	<path class="st0" d="M454.9,78.6c0-2.2,2.1-3.6,3.6-3.6c0.1,0,0.2-0.1,0.2-0.2s-0.1-0.2-0.2-0.2c-1.5,0-3.6-1.4-3.6-3.6
		c0-0.1-0.1-0.2-0.2-0.2s-0.2,0.1-0.2,0.2c0,2.2-2.1,3.6-3.6,3.6c-0.1,0-0.2,0.1-0.2,0.2s0.1,0.2,0.2,0.2c1.5,0,3.6,1.4,3.6,3.6
		c0,0.1,0.1,0.2,0.2,0.2S454.9,78.8,454.9,78.6z"/>
	<path class="st0" d="M159.7,1261.6c0-2.2,2.1-3.6,3.6-3.6c0.1,0,0.2-0.1,0.2-0.2s-0.1-0.2-0.2-0.2c-1.5,0-3.6-1.4-3.6-3.6
		c0-0.1-0.1-0.2-0.2-0.2s-0.2,0.1-0.2,0.2c0,2.2-2.1,3.6-3.6,3.6c-0.1,0-0.2,0.1-0.2,0.2s0.1,0.2,0.2,0.2c1.5,0,3.6,1.4,3.6,3.6
		c0,0.1,0.1,0.2,0.2,0.2S159.7,1261.8,159.7,1261.6z"/>
	<path class="st0" d="M284.7,88.2c0-2.2,2.1-3.6,3.6-3.6c0.1,0,0.2-0.1,0.2-0.2s-0.1-0.2-0.2-0.2c-1.5,0-3.6-1.4-3.6-3.6
		c0-0.1-0.1-0.2-0.2-0.2s-0.2,0.1-0.2,0.2c0,2.2-2.1,3.6-3.6,3.6c-0.1,0-0.2,0.1-0.2,0.2s0.1,0.2,0.2,0.2c1.5,0,3.6,1.4,3.6,3.6
		c0,0.1,0.1,0.2,0.2,0.2S284.7,88.3,284.7,88.2z"/>
	<path class="st0" d="M289.9,1074.5c0-2.2,2.1-3.6,3.6-3.6c0.1,0,0.2-0.1,0.2-0.2s-0.1-0.2-0.2-0.2c-1.5,0-3.6-1.4-3.6-3.6
		c0-0.1-0.1-0.2-0.2-0.2s-0.2,0.1-0.2,0.2c0,2.2-2.1,3.6-3.6,3.6c-0.1,0-0.2,0.1-0.2,0.2s0.1,0.2,0.2,0.2c1.5,0,3.6,1.4,3.6,3.6
		c0,0.1,0.1,0.2,0.2,0.2S289.9,1074.6,289.9,1074.5z"/>
	<g>
		<path class="st1" d="M567.7,658"/>
		<g>
			<path class="st1" d="M567.7,659.6c2,0,2-3.2,0-3.2C565.7,656.5,565.7,659.6,567.7,659.6L567.7,659.6z"/>
		</g>
	</g>
	<g>
		<path class="st1" d="M351.3,1405.2"/>
		<g>
			<path class="st1" d="M351.3,1406.8c2,0,2-3.2,0-3.2C349.3,1403.7,349.3,1406.8,351.3,1406.8L351.3,1406.8z"/>
		</g>
	</g>
	<g>
		<path class="st1" d="M552,1483.1"/>
		<g>
			<path class="st1" d="M552,1484.7c2,0,2-3.2,0-3.2C550,1481.5,550,1484.7,552,1484.7L552,1484.7z"/>
		</g>
	</g>
	<g>
		<path class="st1" d="M680.4,38.2"/>
		<g>
			<path class="st1" d="M680.4,39.8c2,0,2-3.2,0-3.2C678.3,36.6,678.3,39.8,680.4,39.8L680.4,39.8z"/>
		</g>
	</g>
	<g>
		<path class="st1" d="M124.8,1425.2"/>
		<g>
			<path class="st1" d="M124.8,1426.8c2,0,2-3.2,0-3.2C122.7,1423.6,122.7,1426.8,124.8,1426.8L124.8,1426.8z"/>
		</g>
	</g>
	<g>
		<path class="st1" d="M153,1472.6"/>
		<g>
			<path class="st1" d="M153,1474.2c2,0,2-3.2,0-3.2C151,1471,151,1474.2,153,1474.2L153,1474.2z"/>
		</g>
	</g>
	<g>
		<path class="st1" d="M61.7,164.3"/>
		<g>
			<path class="st1" d="M61.7,165.9c2,0,2-3.2,0-3.2C59.7,162.7,59.7,165.9,61.7,165.9L61.7,165.9z"/>
		</g>
	</g>
	<g>
		<path class="st1" d="M89.9,211.7"/>
		<g>
			<path class="st1" d="M89.9,213.2c2,0,2-3.2,0-3.2C87.9,210.1,87.9,213.2,89.9,213.2L89.9,213.2z"/>
		</g>
	</g>
	<g>
		<path class="st1" d="M244.5,1344.9"/>
		<g>
			<path class="st1" d="M244.5,1346.5c2,0,2-3.2,0-3.2C242.5,1343.4,242.5,1346.5,244.5,1346.5L244.5,1346.5z"/>
		</g>
	</g>
	<g>
		<path class="st1" d="M561,117.3"/>
		<g>
			<path class="st1" d="M561,118.8c2,0,2-3.2,0-3.2C559,115.7,559,118.8,561,118.8L561,118.8z"/>
		</g>
	</g>
	<g>
		<path class="st1" d="M689.2,1108.8"/>
		<g>
			<path class="st1" d="M689.2,1110.3c2,0,2-3.2,0-3.2C687.1,1107.2,687.1,1110.3,689.2,1110.3L689.2,1110.3z"/>
		</g>
	</g>
	<g>
		<path class="st1" d="M663.6,1158.8"/>
		<g>
			<path class="st1" d="M663.6,1160.4c2,0,2-3.2,0-3.2C661.6,1157.2,661.6,1160.4,663.6,1160.4L663.6,1160.4z"/>
		</g>
	</g>
	<g>
		<path class="st1" d="M697.7,687.2"/>
		<g>
			<path class="st1" d="M697.7,688.8c2,0,2-3.2,0-3.2C695.7,685.6,695.7,688.8,697.7,688.8L697.7,688.8z"/>
		</g>
	</g>
	<g>
		<path class="st1" d="M447.9,1185.6"/>
		<g>
			<path class="st1" d="M447.9,1187.2c2,0,2-3.2,0-3.2C445.9,1184,445.9,1187.2,447.9,1187.2L447.9,1187.2z"/>
		</g>
	</g>
	<g>
		<path class="st1" d="M550.9,1182.2"/>
		<g>
			<path class="st1" d="M550.9,1183.8c2,0,2-3.2,0-3.2C548.8,1180.6,548.8,1183.8,550.9,1183.8L550.9,1183.8z"/>
		</g>
	</g>
	<g>
		<path class="st1" d="M699.9,999.8"/>
		<g>
			<path class="st1" d="M699.9,1001.4c2,0,2-3.2,0-3.2C697.9,998.3,697.9,1001.4,699.9,1001.4L699.9,1001.4z"/>
		</g>
	</g>
	<g>
		<path class="st1" d="M660.5,805"/>
		<g>
			<path class="st1" d="M660.5,806.6c2,0,2-3.2,0-3.2C658.5,803.5,658.5,806.6,660.5,806.6L660.5,806.6z"/>
		</g>
	</g>
	<path class="st0" d="M580.7,1343.5c0-2.2,2.1-3.6,3.6-3.6c0.1,0,0.2-0.1,0.2-0.2s-0.1-0.2-0.2-0.2c-1.5,0-3.6-1.4-3.6-3.6
		c0-0.1-0.1-0.2-0.2-0.2s-0.2,0.1-0.2,0.2c0,2.2-2.1,3.6-3.6,3.6c-0.1,0-0.2,0.1-0.2,0.2s0.1,0.2,0.2,0.2c1.5,0,3.6,1.4,3.6,3.6
		c0,0.1,0.1,0.2,0.2,0.2S580.7,1343.6,580.7,1343.5z"/>
	<path class="st0" d="M663,1378.2c0-2.2,2.1-3.6,3.6-3.6c0.1,0,0.2-0.1,0.2-0.2s-0.1-0.2-0.2-0.2c-1.5,0-3.6-1.4-3.6-3.6
		c0-0.1-0.1-0.2-0.2-0.2s-0.2,0.1-0.2,0.2c0,2.2-2.1,3.6-3.6,3.6c-0.1,0-0.2,0.1-0.2,0.2s0.1,0.2,0.2,0.2c1.5,0,3.6,1.4,3.6,3.6
		c0,0.1,0.1,0.2,0.2,0.2S663,1378.3,663,1378.2z"/>
	<g>
		<path class="st1" d="M650.5,1337.3"/>
		<g>
			<path class="st1" d="M650.5,1338.9c2,0,2-3.2,0-3.2C648.5,1335.7,648.5,1338.9,650.5,1338.9L650.5,1338.9z"/>
		</g>
	</g>
	<path class="st0" d="M555.5,902.1c0-2.2,2.1-3.6,3.6-3.6c0.1,0,0.2-0.1,0.2-0.2s-0.1-0.2-0.2-0.2c-1.5,0-3.6-1.4-3.6-3.6
		c0-0.1-0.1-0.2-0.2-0.2s-0.2,0.1-0.2,0.2c0,2.2-2.1,3.6-3.6,3.6c-0.1,0-0.2,0.1-0.2,0.2s0.1,0.2,0.2,0.2c1.5,0,3.6,1.4,3.6,3.6
		c0,0.1,0.1,0.2,0.2,0.2S555.5,902.3,555.5,902.1z"/>
	<path class="st0" d="M637.7,936.9c0-2.2,2.1-3.6,3.6-3.6c0.1,0,0.2-0.1,0.2-0.2s-0.1-0.2-0.2-0.2c-1.5,0-3.6-1.4-3.6-3.6
		c0-0.1-0.1-0.2-0.2-0.2s-0.2,0.1-0.2,0.2c0,2.2-2.1,3.6-3.6,3.6c-0.1,0-0.2,0.1-0.2,0.2s0.1,0.2,0.2,0.2c1.5,0,3.6,1.4,3.6,3.6
		c0,0.1,0.1,0.2,0.2,0.2S637.7,937,637.7,936.9z"/>
	<g>
		<path class="st1" d="M625.3,896"/>
		<g>
			<path class="st1" d="M625.3,897.6c2,0,2-3.2,0-3.2C623.3,894.4,623.3,897.6,625.3,897.6L625.3,897.6z"/>
		</g>
	</g>
	<g>
		<path class="st1" d="M695.6,1175.8"/>
		<g>
			<path class="st1" d="M695.6,1177.4c2,0,2-3.2,0-3.2C693.5,1174.2,693.5,1177.4,695.6,1177.4L695.6,1177.4z"/>
		</g>
	</g>
	<g>
		<path class="st1" d="M292.9,629.7"/>
		<g>
			<path class="st1" d="M292.9,631.2c2,0,2-3.2,0-3.2C290.9,628.1,290.9,631.2,292.9,631.2L292.9,631.2z"/>
		</g>
	</g>
	<g>
		<path class="st1" d="M212.8,88.7"/>
		<g>
			<path class="st1" d="M212.8,90.3c2,0,2-3.2,0-3.2C210.8,87.1,210.8,90.3,212.8,90.3L212.8,90.3z"/>
		</g>
	</g>
	<g>
		<path class="st1" d="M323,357.3"/>
		<g>
			<path class="st1" d="M323,358.8c2,0,2-3.2,0-3.2C321,355.7,321,358.8,323,358.8L323,358.8z"/>
		</g>
	</g>
	<g>
		<path class="st1" d="M504,191.5"/>
		<g>
			<path class="st1" d="M504,193.1c2,0,2-3.2,0-3.2C502,189.9,502,193.1,504,193.1L504,193.1z"/>
		</g>
	</g>
	<path class="st0" d="M64.6,807.5c0-2.1,2.1-3.4,3.7-3.4c0.1,0,0.2-0.1,0.2-0.2c0-0.1-0.1-0.2-0.2-0.2c-1.5,0-3.7-1.3-3.7-3.4
		c0-0.1-0.1-0.2-0.2-0.2c-0.1,0-0.2,0.1-0.2,0.2c0,2.1-2.1,3.4-3.7,3.4c-0.1,0-0.2,0.1-0.2,0.2c0,0.1,0.1,0.2,0.2,0.2
		c1.5,0,3.7,1.3,3.7,3.4c0,0.1,0.1,0.2,0.2,0.2C64.4,807.7,64.6,807.6,64.6,807.5z"/>
	<path class="st0" d="M167,724.9c0-3,3-4.8,5.2-4.8c0.2,0,0.4-0.1,0.4-0.3c0-0.2-0.2-0.3-0.4-0.3c-2.2,0-5.2-1.8-5.2-4.8
		c0-0.2-0.2-0.3-0.4-0.3c-0.2,0-0.4,0.1-0.4,0.3c0,3-3,4.8-5.2,4.8c-0.2,0-0.4,0.1-0.4,0.3c0,0.2,0.2,0.3,0.4,0.3
		c2.2,0,5.2,1.8,5.2,4.8c0,0.2,0.2,0.3,0.4,0.3C166.8,725.3,167,725.1,167,724.9z"/>
	<g>
		<path class="st1" d="M126.5,705.1"/>
		<g>
			<path class="st1" d="M126.5,706.7c2,0,2-3.2,0-3.2C124.5,703.5,124.5,706.7,126.5,706.7L126.5,706.7z"/>
		</g>
	</g>
	<g>
		<path class="st1" d="M67.9,775.8"/>
		<g>
			<path class="st1" d="M67.9,777.3c2,0,2-3.2,0-3.2C65.9,774.2,65.9,777.3,67.9,777.3L67.9,777.3z"/>
		</g>
	</g>
	<g>
		<path class="st1" d="M685.6,288.6"/>
		<g>
			<path class="st1" d="M685.6,290.2c2,0,2-3.2,0-3.2C683.6,287,683.6,290.2,685.6,290.2L685.6,290.2z"/>
		</g>
	</g>
</g>
</svg>
