<?xml version="1.0" encoding="utf-8"?>
<!-- Generator: Adobe Illustrator 16.0.0, SVG Export Plug-In . SVG Version: 6.00 Build 0)  -->
<!DOCTYPE svg PUBLIC "-//W3C//DTD SVG 1.1//EN" "http://www.w3.org/Graphics/SVG/1.1/DTD/svg11.dtd">
<svg version="1.1"
	 id="Layer_1" xmlns:cc="http://creativecommons.org/ns#" xmlns:dc="http://purl.org/dc/elements/1.1/" xmlns:inkscape="http://www.inkscape.org/namespaces/inkscape" xmlns:rdf="http://www.w3.org/1999/02/22-rdf-syntax-ns#" xmlns:sodipodi="http://sodipodi.sourceforge.net/DTD/sodipodi-0.dtd" xmlns:svg="http://www.w3.org/2000/svg"
	 xmlns="http://www.w3.org/2000/svg" xmlns:xlink="http://www.w3.org/1999/xlink" x="0px" y="0px" width="84.86px"
	 height="27.758px" viewBox="7.57 36.121 84.86 27.758" enable-background="new 7.57 36.121 84.86 27.758" xml:space="preserve">
<g id="g3678" transform="matrix(0.16591248,0,0,0.16591248,-0.76930184,-32.247794)">
	<path id="path7" d="M561.738,556.776c0,12.484-10.118,22.608-22.602,22.608H72.871c-12.484,0-22.608-10.124-22.608-22.608V434.688
		c0-12.487,10.124-22.611,22.608-22.611h466.265c12.484,0,22.602,10.124,22.602,22.611V556.776z"/>
	<g id="PLAY_1_">
		<g>
			<defs>
				<path id="SVGID_1_" d="M161.105,485.722l-23.064-13.314c0,0-42.015-24.262-44.487-25.687c-2.469-1.427-4.929-0.565-4.929,2.416
					c0,4.965,0,51.797,0,51.797s0,50.62,0,52.856c0,2.231,1.76,3.196,3.905,1.954c2.146-1.236,45.511-26.275,45.511-26.275
					l23.061-13.314c0,0,19.568-11.301,22.17-12.796c2.602-1.507,2.352-3.567,0.156-4.747
					C181.235,497.43,161.105,485.722,161.105,485.722z"/>
			</defs>
			<clipPath id="SVGID_2_">
				<use xlink:href="#SVGID_1_"  overflow="visible"/>
			</clipPath>
			
				<linearGradient id="polygon130_1_" gradientUnits="userSpaceOnUse" x1="8452.8633" y1="-12343.6504" x2="8452.8633" y2="-12456.9551" gradientTransform="matrix(0.1659 0 0 -0.1659 -1285.2422 -1603.6807)">
				<stop  offset="0" style="stop-color:#257CB0"/>
				<stop  offset="0.2863" style="stop-color:#4A93B5"/>
				<stop  offset="0.767" style="stop-color:#78BCBB"/>
				<stop  offset="1" style="stop-color:#89CFBD"/>
			</linearGradient>
			<polygon id="polygon130" clip-path="url(#SVGID_2_)" fill="url(#polygon130_1_)" points="145.76,500.941 88.625,444.288 
				88.625,500.935 88.625,557.594 			"/>
		</g>
		<g>
			<defs>
				<path id="SVGID_3_" d="M161.105,485.722l-23.064-13.314c0,0-42.015-24.262-44.487-25.687c-2.469-1.427-4.929-0.565-4.929,2.416
					c0,4.965,0,51.797,0,51.797s0,50.62,0,52.856c0,2.231,1.76,3.196,3.905,1.954c2.146-1.236,45.511-26.275,45.511-26.275
					l23.061-13.314c0,0,19.568-11.301,22.17-12.796c2.602-1.507,2.352-3.567,0.156-4.747
					C181.235,497.43,161.105,485.722,161.105,485.722z"/>
			</defs>
			<clipPath id="SVGID_4_">
				<use xlink:href="#SVGID_3_"  overflow="visible"/>
			</clipPath>
			
				<linearGradient id="polygon137_1_" gradientUnits="userSpaceOnUse" x1="8280.6738" y1="-12513.1533" x2="8353.1543" y2="-12513.1533" gradientTransform="matrix(0.1659 0 0 -0.1659 -1285.2422 -1603.6807)">
				<stop  offset="0" style="stop-color:#52C1AD"/>
				<stop  offset="1" style="stop-color:#DEE89A"/>
			</linearGradient>
			<polygon id="polygon137" clip-path="url(#SVGID_4_)" fill="url(#polygon137_1_)" points="88.625,444.288 145.76,500.941 
				161.105,485.722 138.044,472.405 88.625,443.876 			"/>
		</g>
		<g>
			<defs>
				<path id="SVGID_5_" d="M161.105,485.722l-23.064-13.314c0,0-42.015-24.262-44.487-25.687c-2.469-1.427-4.929-0.565-4.929,2.416
					c0,4.965,0,51.797,0,51.797s0,50.62,0,52.856c0,2.231,1.76,3.196,3.905,1.954c2.146-1.236,45.511-26.275,45.511-26.275
					l23.061-13.314c0,0,19.568-11.301,22.17-12.796c2.602-1.507,2.352-3.567,0.156-4.747
					C181.235,497.43,161.105,485.722,161.105,485.722z"/>
			</defs>
			<clipPath id="SVGID_6_">
				<use xlink:href="#SVGID_5_"  overflow="visible"/>
			</clipPath>
			
				<linearGradient id="polygon150_1_" gradientUnits="userSpaceOnUse" x1="8499.1045" y1="-12685.1113" x2="8499.1045" y2="-12742.1777" gradientTransform="matrix(0.1659 0 0 -0.1659 -1285.2422 -1603.6807)">
				<stop  offset="0" style="stop-color:#EC413D"/>
				<stop  offset="0.1668" style="stop-color:#DA4452"/>
				<stop  offset="0.5748" style="stop-color:#B0487A"/>
				<stop  offset="0.8619" style="stop-color:#954A92"/>
				<stop  offset="1" style="stop-color:#8A4A9D"/>
			</linearGradient>
			<polygon id="polygon150" clip-path="url(#SVGID_6_)" fill="url(#polygon150_1_)" points="161.105,516.156 145.76,500.941 
				88.625,557.594 88.625,558.006 138.044,529.47 			"/>
		</g>
		<g>
			<defs>
				<path id="SVGID_7_" d="M161.105,485.722l-23.064-13.314c0,0-42.015-24.262-44.487-25.687c-2.469-1.427-4.929-0.565-4.929,2.416
					c0,4.965,0,51.797,0,51.797s0,50.62,0,52.856c0,2.231,1.76,3.196,3.905,1.954c2.146-1.236,45.511-26.275,45.511-26.275
					l23.061-13.314c0,0,19.568-11.301,22.17-12.796c2.602-1.507,2.352-3.567,0.156-4.747
					C181.235,497.43,161.105,485.722,161.105,485.722z"/>
			</defs>
			<clipPath id="SVGID_8_">
				<use xlink:href="#SVGID_7_"  overflow="visible"/>
			</clipPath>
			
				<linearGradient id="polygon161_1_" gradientUnits="userSpaceOnUse" x1="8750.7197" y1="-12593.3828" x2="8750.7197" y2="-12623.8164" gradientTransform="matrix(0.1659 0 0 -0.1659 -1285.2422 -1603.6807)">
				<stop  offset="0" style="stop-color:#F58879"/>
				<stop  offset="0.1194" style="stop-color:#F69079"/>
				<stop  offset="0.7128" style="stop-color:#FCB877"/>
				<stop  offset="1" style="stop-color:#FEC874"/>
			</linearGradient>
			<polygon id="polygon161" clip-path="url(#SVGID_8_)" fill="url(#polygon161_1_)" points="187.46,500.935 161.105,485.722 
				145.76,500.941 161.105,516.156 			"/>
		</g>
	</g>
	<g id="g163">
		<path id="path165" fill="#F9F9F9" d="M448.32,523.09c-2.148,0-4.103-0.4-5.88-1.189c-1.772-0.795-3.261-2.013-4.462-3.649h-0.365
			c0.247,1.919,0.365,3.744,0.365,5.468v13.555h-4.991v-47.739h4.061l0.689,4.509h0.241c1.283-1.804,2.778-3.105,4.479-3.908
			c1.701-0.801,3.655-1.204,5.862-1.204c4.367,0,7.74,1.495,10.118,4.482c2.372,2.984,3.561,7.178,3.561,12.564
			c0,5.415-1.207,9.618-3.62,12.614C455.966,521.589,452.611,523.09,448.32,523.09L448.32,523.09z M447.596,493.171
			c-3.367,0-5.804,0.936-7.299,2.796c-1.507,1.866-2.278,4.832-2.319,8.9v1.112c0,4.632,0.771,7.94,2.319,9.942
			c1.542,1.99,4.014,2.99,7.422,2.99c2.843,0,5.08-1.154,6.692-3.461c1.613-2.302,2.413-5.48,2.413-9.53
			c0-4.108-0.801-7.263-2.413-9.456C452.799,494.269,450.527,493.171,447.596,493.171z"/>
		<path id="path167" fill="#F9F9F9" d="M473.553,522.484h-4.991v-46.779h4.991V522.484z"/>
		<path id="path169" fill="#F9F9F9" d="M502.247,522.484l-0.995-4.691h-0.235c-1.648,2.072-3.284,3.467-4.921,4.197
			c-1.63,0.736-3.673,1.101-6.116,1.101c-3.267,0-5.827-0.848-7.681-2.531c-1.854-1.683-2.778-4.073-2.778-7.181
			c0-6.651,5.321-10.142,15.963-10.465l5.592-0.177v-2.048c0-2.584-0.553-4.494-1.672-5.727c-1.107-1.233-2.89-1.848-5.333-1.848
			c-2.749,0-5.857,0.842-9.323,2.525l-1.53-3.82c1.625-0.88,3.402-1.572,5.333-2.072c1.937-0.503,3.873-0.753,5.821-0.753
			c3.926,0,6.84,0.871,8.735,2.616c1.889,1.742,2.843,4.538,2.843,8.385v22.491H502.247L502.247,522.484z M490.976,518.969
			c3.108,0,5.545-0.853,7.322-2.554c1.766-1.707,2.661-4.091,2.661-7.157v-2.978l-4.997,0.212c-3.967,0.141-6.822,0.753-8.582,1.848
			c-1.754,1.095-2.631,2.79-2.631,5.097c0,1.801,0.547,3.178,1.636,4.12C487.479,518.499,489.01,518.969,490.976,518.969z"/>
		<path id="path171" fill="#F9F9F9" d="M508.846,489.533h5.344l7.216,18.794c1.589,4.285,2.566,7.381,2.949,9.288h0.241
			c0.259-1.024,0.806-2.766,1.636-5.25c0.836-2.472,3.555-10.083,8.164-22.832h5.35l-14.162,37.523
			c-1.401,3.708-3.037,6.333-4.915,7.893c-1.872,1.554-4.173,2.325-6.892,2.325c-1.531,0-3.031-0.165-4.515-0.506v-4.003
			c1.101,0.247,2.337,0.365,3.702,0.365c3.426,0,5.863-1.925,7.334-5.774l1.83-4.691L508.846,489.533z"/>
	</g>
	<g id="g173">
		<path id="path175" fill="#F9F9F9" d="M355.868,492.597c1.589,1.31,4.897,4.064,4.897,9.303c0,5.097-2.896,7.516-5.792,9.788
			c-0.895,0.895-1.931,1.866-1.931,3.379s1.036,2.343,1.789,2.961l2.484,1.931c3.037,2.549,5.792,4.897,5.792,9.653
			c0,6.475-6.275,13.02-18.129,13.02c-9.995,0-14.815-4.756-14.815-9.853c0-2.484,1.23-5.992,5.303-8.411
			c4.273-2.619,10.065-2.961,13.167-3.173c-0.971-1.236-2.066-2.549-2.066-4.679c0-1.171,0.341-1.86,0.683-2.69
			c-0.753,0.071-1.519,0.135-2.201,0.135c-7.31,0-11.442-5.445-11.442-10.819c0-3.173,1.448-6.687,4.415-9.235
			c3.926-3.237,8.611-3.791,12.337-3.791h14.197l-4.415,2.481H355.868L355.868,492.597z M350.977,523.196
			c-0.547-0.071-0.901-0.071-1.583-0.071c-0.624,0-4.344,0.141-7.24,1.107c-1.519,0.553-5.927,2.201-5.927,7.099
			c0,4.891,4.762,8.411,12.131,8.411c6.616,0,10.136-3.173,10.136-7.446C358.493,528.776,356.215,526.922,350.977,523.196z
			 M352.972,510.105c1.589-1.589,1.719-3.791,1.719-5.038c0-4.956-2.955-12.676-8.676-12.676c-1.795,0-3.72,0.895-4.827,2.275
			c-1.165,1.448-1.519,3.305-1.519,5.103c0,4.615,2.69,12.267,8.617,12.267C350.011,512.036,351.865,511.206,352.972,510.105z"/>
		<path id="path177" fill="#F9F9F9" d="M312.482,522.095c-10.939,0-16.79-8.529-16.79-16.24c0-9.017,7.36-16.719,17.826-16.719
			c10.106,0,16.44,7.911,16.44,16.237C329.958,513.49,323.701,522.095,312.482,522.095z M321.081,516.521
			c1.654-2.201,2.066-4.956,2.066-7.64c0-6.057-2.89-17.614-11.425-17.614c-2.272,0-4.538,0.895-6.189,2.343
			c-2.684,2.405-3.167,5.436-3.167,8.396c0,6.804,3.37,18.023,11.698,18.023C316.749,520.029,319.504,518.722,321.081,516.521z"/>
		<path id="path179" fill="#F9F9F9" d="M275.188,522.095c-10.942,0-16.793-8.529-16.793-16.24c0-9.017,7.363-16.719,17.826-16.719
			c10.112,0,16.443,7.911,16.443,16.237C292.664,513.49,286.404,522.095,275.188,522.095z M283.788,516.521
			c1.651-2.201,2.066-4.956,2.066-7.64c0-6.057-2.893-17.614-11.425-17.614c-2.269,0-4.541,0.895-6.192,2.343
			c-2.684,2.405-3.164,5.436-3.164,8.396c0,6.804,3.37,18.023,11.698,18.023C279.455,520.029,282.207,518.722,283.788,516.521z"/>
		<path id="path181" fill="#F9F9F9" d="M253.139,521.018l-9.894,2.284c-4.014,0.624-7.608,1.171-11.413,1.171
			c-19.094,0-26.355-14.044-26.355-25.045c0-13.417,10.303-25.866,27.947-25.866c3.738,0,7.331,0.55,10.583,1.451
			c5.189,1.454,7.608,3.249,9.132,4.291l-5.745,5.462l-2.419,0.553l1.728-2.769c-2.349-2.281-6.642-6.498-14.803-6.498
			c-10.93,0-19.165,8.302-19.165,20.41c0,13.002,9.412,25.245,24.489,25.245c4.432,0,6.71-0.901,8.788-1.73v-11.13l-10.445,0.547
			l5.533-2.972h14.665l-1.795,1.725c-0.489,0.418-0.556,0.559-0.695,1.106c-0.071,0.624-0.135,2.631-0.135,3.326V521.018
			L253.139,521.018z"/>
		<path id="path183" fill="#F9F9F9" d="M377.734,519.028c-2.284-0.212-2.761-0.624-2.761-3.325v-0.759v-38.395
			c0.012-0.15,0.024-0.303,0.035-0.448c0.282-2.419,0.971-2.834,3.12-4.082h-9.9l-5.191,2.49h5.297v0.032l-0.012-0.026v40.428v2.284
			c0,1.377-0.271,1.589-1.86,3.661h12.243l2.56-1.519C380.095,519.229,378.918,519.164,377.734,519.028L377.734,519.028z"/>
		<path id="path185" fill="#F9F9F9" d="M405.887,519.664c-0.753,0.412-1.507,0.895-2.26,1.236c-2.272,1.024-4.609,1.307-6.675,1.307
			c-2.19,0-5.627-0.141-9.135-2.684c-4.874-3.438-7.004-9.347-7.004-14.497c0-10.648,8.652-15.869,15.727-15.869
			c2.472,0,5.021,0.618,7.081,1.925c3.432,2.263,4.326,5.218,4.803,6.798l-16.14,6.528l-5.292,0.412
			c1.719,8.723,7.622,13.809,14.15,13.809c3.508,0,6.051-1.236,8.382-2.401L405.887,519.664z M399.43,499.187
			c1.301-0.479,1.989-0.895,1.989-1.854c0-2.746-3.09-5.909-6.798-5.909c-2.755,0-7.905,2.131-7.905,9.547
			c0,1.171,0.135,2.407,0.206,3.649L399.43,499.187z"/>
		<g id="g187">
			<path id="path189" fill="#F9F9F9" d="M412.515,489.628v4.532h-0.547v-4.532h-1.501v-0.471h3.549v0.471H412.515z"/>
			<path id="path191" fill="#F9F9F9" d="M418.695,494.16v-4.573h-0.024l-1.401,4.573h-0.424l-1.413-4.573h-0.018v4.573h-0.5v-5.003
				h0.859l1.271,4.044h0.024l1.248-4.044h0.871v5.003H418.695z"/>
		</g>
	</g>
	<g id="g193">
		<path id="path195" fill="#F9F9FA" d="M219.215,460.092h-3.438c0-0.474-0.327-1.813-0.98-4.02h-4.962
			c-0.674,2.172-1.01,3.511-1.01,4.02h-3.234c0-0.28,0.836-2.572,2.51-6.875c1.672-4.306,2.507-6.675,2.507-7.113h4.061
			c0,0.409,0.756,2.746,2.272,7.01C218.456,457.378,219.215,459.703,219.215,460.092z M214.253,454.02
			c-1.227-3.694-1.839-5.692-1.839-5.992h-0.171c0,0.28-0.636,2.275-1.901,5.992H214.253z"/>
		<path id="path197" fill="#F9F9FA" d="M233.068,460.092h-2.655c0-0.294-0.983-1.845-2.955-4.653
			c-2.063-2.958-3.234-4.979-3.523-6.068h-0.171c0.18,1.569,0.268,2.987,0.268,4.252c0,1.772,0.05,3.926,0.15,6.469h-2.643
			c0.109-2.219,0.162-4.659,0.162-7.316c0-2.614-0.053-4.838-0.162-6.669h3.19c0,0.38,0.886,1.895,2.655,4.544
			c1.881,2.813,2.964,4.721,3.243,5.724h0.162c-0.174-1.595-0.259-3.028-0.259-4.297c0-1.939-0.05-3.932-0.15-5.971h2.687
			c-0.103,1.775-0.15,4-0.15,6.669C232.918,455.468,232.965,457.905,233.068,460.092L233.068,460.092z"/>
		<path id="path199" fill="#F9F9FA" d="M248.636,452.614c0,2.033-0.65,3.811-1.954,5.327c-1.304,1.521-3.131,2.278-5.48,2.278
			c-1.059,0-2.519-0.044-4.382-0.13c0.091-2.163,0.138-4.6,0.138-7.313c0-2.608-0.047-4.833-0.138-6.672h1.88
			c0.306,0,0.765-0.012,1.374-0.032c0.609-0.021,1.007-0.032,1.192-0.032c2.584,0,4.459,0.645,5.624,1.934
			C248.053,449.261,248.636,450.809,248.636,452.614z M245.705,453.075c0-1.374-0.403-2.534-1.204-3.476
			c-0.803-0.942-2.028-1.413-3.676-1.413c-0.306,0-0.73,0.032-1.266,0.097c0.071,1.433,0.106,2.928,0.106,4.491
			c0,1.71,0.035,3.408,0.106,5.091c0.465,0.094,0.933,0.141,1.398,0.141c1.539,0,2.678-0.48,3.42-1.436
			C245.331,455.615,245.705,454.45,245.705,453.075z"/>
		<path id="path201" fill="#F9F9FA" d="M262.992,460.092h-3.178c-0.833-2.537-1.469-4.103-1.913-4.694
			c-0.444-0.597-1.16-0.892-2.148-0.892c-0.415,0-0.812,0.003-1.192,0.009c0,1.842,0.032,3.699,0.097,5.577h-2.987
			c0.094-2.163,0.141-4.603,0.141-7.316c0-2.608-0.047-4.83-0.141-6.672h1.86c0.215,0,0.662-0.009,1.348-0.032
			c0.683-0.021,1.315-0.029,1.895-0.029c3.287,0,4.932,1.124,4.932,3.373c0,1.783-0.939,3.025-2.817,3.726v0.162
			c0.724,0.2,1.357,0.765,1.901,1.692S262.068,457.62,262.992,460.092z M258.966,450.209c0-1.427-0.918-2.14-2.752-2.14
			c-0.674,0-1.268,0.05-1.783,0.15c0.079,1.11,0.118,2.558,0.118,4.341c0.394,0.015,0.727,0.021,1.001,0.021
			C257.824,452.581,258.966,451.789,258.966,450.209z"/>
		<path id="path203" fill="#F9F9FA" d="M278.393,452.84c0,2.198-0.674,4.02-2.022,5.468c-1.345,1.445-3.011,2.169-4.994,2.169
			c-1.892,0-3.473-0.662-4.747-1.992c-1.277-1.327-1.913-3.017-1.913-5.065c0-2.198,0.674-4.02,2.019-5.468
			c1.348-1.445,3.011-2.169,4.997-2.169c1.889,0,3.473,0.662,4.747,1.987C277.754,449.094,278.393,450.783,278.393,452.84z
			 M275.427,453.152c0-1.498-0.383-2.714-1.148-3.644c-0.768-0.93-1.713-1.395-2.837-1.395c-1.045,0-1.934,0.468-2.663,1.407
			c-0.73,0.936-1.098,2.122-1.098,3.555c0,1.489,0.386,2.702,1.157,3.638c0.771,0.933,1.713,1.401,2.831,1.401
			c1.045,0,1.934-0.471,2.663-1.413C275.062,455.76,275.427,454.576,275.427,453.152z"/>
		<path id="path205" fill="#F9F9FA" d="M284.464,460.092h-3.04c0.094-2.222,0.141-4.659,0.141-7.316
			c0-2.614-0.047-4.838-0.141-6.672h3.04c-0.091,1.807-0.138,4.029-0.138,6.672C284.326,455.477,284.373,457.914,284.464,460.092z"
			/>
		<path id="path207" fill="#F9F9FA" d="M300.036,452.614c0,2.033-0.653,3.811-1.954,5.327c-1.304,1.521-3.131,2.278-5.48,2.278
			c-1.059,0-2.522-0.044-4.382-0.13c0.091-2.163,0.138-4.6,0.138-7.313c0-2.608-0.047-4.833-0.138-6.672h1.881
			c0.306,0,0.765-0.012,1.374-0.032c0.606-0.021,1.006-0.032,1.192-0.032c2.584,0,4.459,0.645,5.624,1.934
			C299.453,449.261,300.036,450.809,300.036,452.614z M297.102,453.075c0-1.374-0.4-2.534-1.201-3.476
			c-0.803-0.942-2.028-1.413-3.676-1.413c-0.306,0-0.73,0.032-1.268,0.097c0.074,1.433,0.109,2.928,0.109,4.491
			c0,1.71,0.035,3.408,0.106,5.091c0.465,0.094,0.93,0.141,1.395,0.141c1.542,0,2.681-0.48,3.423-1.436
			C296.731,455.615,297.102,454.45,297.102,453.075z"/>
		<path id="path209" fill="#F9F9FA" d="M320.693,460.092h-3.438c0-0.474-0.33-1.813-0.983-4.02h-4.962
			c-0.671,2.172-1.012,3.511-1.012,4.02h-3.228c0-0.28,0.836-2.572,2.51-6.875c1.672-4.306,2.507-6.675,2.507-7.113h4.061
			c0,0.409,0.753,2.746,2.272,7.01C319.928,457.378,320.693,459.703,320.693,460.092z M315.725,454.02
			c-1.224-3.694-1.837-5.692-1.837-5.992h-0.171c0,0.28-0.63,2.275-1.901,5.992H315.725z"/>
		<path id="path211" fill="#F9F9FA" d="M333.219,449.768c0,1.713-0.636,2.975-1.907,3.791c-1.271,0.818-2.825,1.227-4.674,1.227
			c-0.341,0-0.577-0.009-0.718-0.021c0,1.345,0.035,3.119,0.118,5.327h-3.025c0.094-2.069,0.141-4.509,0.141-7.316
			c0-2.578-0.047-4.8-0.141-6.669h1.872c0.265,0,0.777-0.012,1.53-0.032c0.748-0.021,1.401-0.032,1.954-0.032
			c1.354,0,2.507,0.306,3.443,0.924C332.748,447.581,333.219,448.514,333.219,449.768z M330.452,450.356
			c0-1.531-1.018-2.299-3.049-2.299c-0.512,0-1.048,0.056-1.613,0.162c0.077,1.354,0.118,2.884,0.118,4.597
			c0.177,0.015,0.389,0.021,0.624,0.021C329.145,452.84,330.452,452.013,330.452,450.356z"/>
		<path id="path213" fill="#F9F9FA" d="M346.109,449.768c0,1.713-0.636,2.975-1.907,3.791c-1.271,0.818-2.837,1.227-4.685,1.227
			c-0.33,0-0.571-0.009-0.718-0.021c0,1.345,0.041,3.119,0.118,5.327h-3.014c0.088-2.069,0.135-4.509,0.135-7.316
			c0-2.578-0.047-4.8-0.135-6.669h1.866c0.265,0,0.771-0.012,1.525-0.032c0.753-0.021,1.401-0.032,1.954-0.032
			c1.36,0,2.507,0.306,3.449,0.924C345.638,447.581,346.109,448.514,346.109,449.768z M343.331,450.356
			c0-1.531-1.012-2.299-3.049-2.299c-0.506,0-1.048,0.056-1.613,0.162c0.082,1.354,0.118,2.884,0.118,4.597
			c0.182,0.015,0.388,0.021,0.624,0.021C342.024,452.84,343.331,452.013,343.331,450.356z"/>
		<path id="path215" fill="#F9F9FA" d="M367.169,452.84c0,2.198-0.671,4.02-2.019,5.468c-1.348,1.445-3.008,2.169-4.997,2.169
			c-1.889,0-3.473-0.662-4.744-1.992c-1.271-1.327-1.913-3.017-1.913-5.065c0-2.198,0.671-4.02,2.019-5.468
			c1.348-1.445,3.014-2.169,4.991-2.169c1.895,0,3.479,0.662,4.756,1.987C366.533,449.094,367.169,450.783,367.169,452.84z
			 M364.203,453.152c0-1.498-0.377-2.714-1.148-3.644c-0.765-0.93-1.713-1.395-2.831-1.395c-1.048,0-1.937,0.468-2.666,1.407
			c-0.73,0.936-1.101,2.122-1.101,3.555c0,1.489,0.389,2.702,1.16,3.638c0.771,0.933,1.713,1.401,2.831,1.401
			c1.048,0,1.931-0.471,2.66-1.413C363.838,455.76,364.203,454.576,364.203,453.152z"/>
		<path id="path217" fill="#F9F9FA" d="M381.731,460.092h-2.655c0-0.294-0.983-1.845-2.955-4.653
			c-2.06-2.958-3.231-4.979-3.526-6.068h-0.165c0.177,1.569,0.265,2.987,0.265,4.252c0,1.772,0.053,3.926,0.147,6.469h-2.637
			c0.106-2.219,0.159-4.659,0.159-7.316c0-2.614-0.053-4.838-0.159-6.669h3.19c0,0.38,0.883,1.895,2.649,4.544
			c1.884,2.813,2.967,4.721,3.249,5.724h0.159c-0.171-1.595-0.259-3.028-0.259-4.297c0-1.939-0.053-3.932-0.147-5.971h2.684
			c-0.106,1.775-0.153,4-0.153,6.669C381.578,455.468,381.631,457.905,381.731,460.092L381.731,460.092z"/>
	</g>
</g>
</svg>
