<svg xmlns="http://www.w3.org/2000/svg" viewBox="0 0 114 181.58"><defs><style>.cls-1{fill:#655c99;}.cls-2{fill:#addcf1;}.cls-3{fill:#f6fbfd;}.cls-4{fill:#877db2;}.cls-5{fill:none;stroke:#877db2;stroke-miterlimit:10;stroke-width:5.04px;}</style></defs><title>Asset 2m</title><g id="Layer_2" data-name="Layer 2"><g id="Layer_1-2" data-name="Layer 1"><path class="cls-1" d="M92.69,181.58H22.5A18.72,18.72,0,0,1,3.79,162.45l3-137.83A18.72,18.72,0,0,1,25.48,6.3H89.71a18.72,18.72,0,0,1,18.72,18.32L105,95.41l6.41,67A18.72,18.72,0,0,1,92.69,181.58Z"/><path class="cls-2" d="M95.21,175.27H25A18.72,18.72,0,0,1,6.31,156.15l3-137.83A18.72,18.72,0,0,1,28,0H92.23a18.72,18.72,0,0,1,18.72,18.32l3,137.83A18.72,18.72,0,0,1,95.21,175.27Z"/><path class="cls-3" d="M88.9,175.27H18.72A18.72,18.72,0,0,1,0,156.15L3,18.32A18.72,18.72,0,0,1,21.7,0H85.93a18.72,18.72,0,0,1,18.72,18.32l3,137.83A18.72,18.72,0,0,1,88.9,175.27Z"/><path class="cls-4" d="M33.26,133.74V59.59L19.77,69.93V54.8L33.26,44H46.63v89.78Z"/><path class="cls-4" d="M88.77,127.56c-3.53,5-9.46,7.19-16,7.19-7.19,0-12.48-2.65-15.64-7.19-3.53-5-4.54-10.21-4.54-21.06a61.87,61.87,0,0,1,3.66-21.18L72,44H85.87L71.11,80.27a9.45,9.45,0,0,1,5.55-1.51,14.29,14.29,0,0,1,11.85,5.55c3.28,4.16,4.54,9,4.54,22.19C93.05,118.48,91.67,123.4,88.77,127.56ZM77.67,92a5.86,5.86,0,0,0-4.79-2.27A6.1,6.1,0,0,0,68,92c-2.14,2.77-2,9-2,14.37s-.13,11.22,2,14.12a6.1,6.1,0,0,0,4.92,2.27,5.69,5.69,0,0,0,4.79-2.27c2.14-2.77,2-8.7,2-14.12S79.81,94.77,77.67,92Z"/><line class="cls-5" x1="0.5" y1="88.27" x2="114" y2="88.27"/></g></g></svg>