<svg xmlns="http://www.w3.org/2000/svg" width="73.01" height="46.91" viewBox="0 0 73.01 46.91"><defs><style>.cls-1{fill:#c5e9fa;}.cls-2{fill:#f6fbfd;}.cls-3,.cls-4{fill:none;stroke:#bde5f4;stroke-linecap:round;stroke-linejoin:round;}.cls-3{stroke-width:0.76px;}.cls-4{stroke-width:1.13px;}</style></defs><title>Asset 9x</title><g id="Layer_2" data-name="Layer 2"><g id="Layer_7" data-name="Layer 7"><rect class="cls-1" x="1.69" width="71.31" height="46.91" rx="2.6" ry="2.6"/><rect class="cls-2" width="71.31" height="46.91" rx="2.6" ry="2.6"/><rect class="cls-1" x="14.75" y="3.22" width="48.61" height="5.3" rx="2.65" ry="2.65"/><circle class="cls-1" cx="66.58" cy="3.97" r="0.57"/><circle class="cls-1" cx="66.58" cy="5.86" r="0.57"/><circle class="cls-1" cx="66.58" cy="7.75" r="0.57"/><polyline class="cls-3" points="5.46 4.16 3.4 6.04 5.46 7.75"/><polyline class="cls-3" points="9.29 7.75 11.35 5.87 9.29 4.16"/><rect class="cls-1" x="8.32" y="15.89" width="16.27" height="9.46"/><rect class="cls-1" x="27.05" y="15.89" width="16.46" height="9.46"/><rect class="cls-1" x="45.96" y="15.89" width="16.27" height="9.46"/><line class="cls-3" x1="8.89" y1="28.56" x2="18.72" y2="28.56"/><line class="cls-3" x1="8.89" y1="30.45" x2="20.24" y2="30.45"/><line class="cls-3" x1="8.89" y1="32.34" x2="13.81" y2="32.34"/><line class="cls-3" x1="27.61" y1="28.56" x2="37.45" y2="28.56"/><line class="cls-3" x1="27.61" y1="30.45" x2="39.15" y2="30.45"/><line class="cls-4" x1="27.8" y1="38.4" x2="43.31" y2="38.4"/><line class="cls-3" x1="27.61" y1="32.34" x2="32.53" y2="32.34"/><line class="cls-3" x1="46.34" y1="28.56" x2="56.17" y2="28.56"/><line class="cls-3" x1="46.34" y1="30.45" x2="57.88" y2="30.45"/><line class="cls-3" x1="46.34" y1="32.34" x2="51.26" y2="32.34"/></g></g></svg>