<?xml version="1.0" encoding="utf-8"?>
<!-- Generator: Adobe Illustrator 21.0.0, SVG Export Plug-In . SVG Version: 6.00 Build 0)  -->
<svg version="1.1" id="Layer_1" xmlns="http://www.w3.org/2000/svg" xmlns:xlink="http://www.w3.org/1999/xlink" x="0px" y="0px"
	 width="73px" height="46.9px" viewBox="0 0 73 46.9" style="enable-background:new 0 0 73 46.9;" xml:space="preserve">
<style type="text/css">
	.st0{fill:#C5E9FA;}
	.st1{fill:#F6FBFD;}
	.st2{fill:none;stroke:#BDE5F4;stroke-width:0.76;stroke-linecap:round;stroke-linejoin:round;}
	.st3{fill:#DE4F03;}
	.st4{fill:none;stroke:#F6FBFD;stroke-width:2.3046;stroke-linecap:round;stroke-miterlimit:10;}
</style>
<title>Asset 9x</title>
<g id="Layer_2">
	<g id="Layer_7">
		<path class="st0" d="M4.3,0h66.1C71.8,0,73,1.2,73,2.6v41.7c0,1.4-1.2,2.6-2.6,2.6H4.3c-1.4,0-2.6-1.2-2.6-2.6V2.6
			C1.7,1.2,2.9,0,4.3,0z"/>
		<path class="st1" d="M2.6,0h66.1c1.4,0,2.6,1.2,2.6,2.6v41.7c0,1.4-1.2,2.6-2.6,2.6H2.6c-1.4,0-2.6-1.2-2.6-2.6V2.6
			C0,1.2,1.2,0,2.6,0z"/>
		<path class="st0" d="M17.4,3.2h43.3c1.5,0,2.7,1.2,2.7,2.6v0c0,1.5-1.2,2.7-2.7,2.7H17.4c-1.5,0-2.6-1.2-2.6-2.7v0
			C14.8,4.4,15.9,3.2,17.4,3.2z"/>
		<circle class="st0" cx="66.6" cy="4" r="0.6"/>
		<circle class="st0" cx="66.6" cy="5.9" r="0.6"/>
		<circle class="st0" cx="66.6" cy="7.8" r="0.6"/>
		<polyline class="st2" points="5.5,4.2 3.4,6 5.5,7.8 		"/>
		<polyline class="st2" points="9.3,7.8 11.4,5.9 9.3,4.2 		"/>
	</g>
	<g>
		<path class="st3" d="M23.6,40.8h27.1c1.1,0,1.8-1.2,1.3-2.2l-13.5-27c-0.6-1.1-2.1-1.1-2.7,0l-13.6,27
			C21.7,39.7,22.4,40.8,23.6,40.8z"/>
		<line class="st4" x1="37.4" y1="19.7" x2="37.4" y2="30.8"/>
		<circle class="st1" cx="37.4" cy="34.7" r="1.5"/>
	</g>
</g>
</svg>
