<svg xmlns="http://www.w3.org/2000/svg" width="76.66" height="136.29" viewBox="0 0 76.66 136.29"><defs><style>.cls-1{fill:#c5e9fa;}.cls-2{fill:#f98142;}.cls-3{fill:#de4f03;}.cls-4{fill:#18baaa;}.cls-5{fill:#009995;}</style></defs><title>Asset 2</title><g id="Layer_2" data-name="Layer 2"><g id="Layer_2-2" data-name="Layer 2"><ellipse class="cls-1" cx="28.41" cy="131.61" rx="28.58" ry="3.49" transform="translate(-14.31 3.92) rotate(-6.32)"/><path class="cls-2" d="M62,97.92V93.69h0v-.2h0c-.47-2.08-8.23-3.74-17.75-3.74-9.83,0-17.79,1.76-17.79,3.94a1,1,0,0,0,.08.37v3.77a.94.94,0,0,0,0,.19c0,.72.89,1.39,2.42,2l5.32,28.12h.1c.45,1.15,4.8,2.06,10.12,2.06s9.68-.9,10.12-2.06h.18l5.08-28.2c1.4-.56,2.2-1.21,2.2-1.9,0,0,0-.06,0-.09Z"/><ellipse class="cls-3" cx="44.18" cy="93.35" rx="15.67" ry="2.9"/><path class="cls-4" d="M38.9,93.64C34.26,82.78,11.31-.83,44,0c27.66.71,16.55,73.68,5.71,93.64C45.7,95.52,43.45,95.58,38.9,93.64Z"/><path class="cls-5" d="M44.89,93.33c3-14,6-52-5-47C26.23,52.54,42-4.08,33.68,3.9c-9.8,9.43-10.33,45.37,5.44,90.9C49.65,95.86,44.89,93.33,44.89,93.33Z"/><path class="cls-4" d="M56.89,51.33c7-6,12.11-17,17-13,11,9-14,22-18,20S56.89,51.33,56.89,51.33Z"/><path class="cls-5" d="M32.82,66.34C27.77,62,24.08,54.06,20.55,57c-7.94,6.5,10.11,15.88,13,14.44S32.82,66.34,32.82,66.34Z"/><path class="cls-5" d="M59.89,58.33c-13,5-8.75,19-3,13A86.7,86.7,0,0,0,59.89,58.33Z"/><circle class="cls-5" cx="55.89" cy="43.33" r="2"/></g></g></svg>