<svg xmlns="http://www.w3.org/2000/svg" xmlns:xlink="http://www.w3.org/1999/xlink" width="64.09" height="151.46" viewBox="0 0 64.09 151.46"><defs><style>.cls-1{fill:none;}.cls-2{isolation:isolate;}.cls-3,.cls-8{fill:#addcf1;}.cls-4{fill:#f6fbfd;}.cls-5{clip-path:url(#clip-path);}.cls-6{fill:#c5e9fa;}.cls-7{fill:#1b1a18;}.cls-8{opacity:0.5;mix-blend-mode:multiply;}</style><clipPath id="clip-path"><path class="cls-1" d="M47.51,72c-.2-.56,5.28,4.56,5.08,4-2.15,3.57-4.71,7.13-8.43,8.42-4.14,1.44-18.77-5.18-22.6-3,0,1.23.06,2.06.11,3.3a19.47,19.47,0,0,1-2.35-7.14,3.6,3.6,0,0,0-.25,2.26,25.13,25.13,0,0,1-2.68-9.44,17.6,17.6,0,0,0-.33,4,32.3,32.3,0,0,1-4.71-13.6l-.12,3.1C7.55,58.66,9.55,51.37,9.9,45.11l-1,2.49a22.48,22.48,0,0,1,.21-13.46l-1.38,1.3c-1.43-3.79-.71-8.27,1.75-10.86A2.39,2.39,0,0,0,7.56,26a22.44,22.44,0,0,1,3.37-10,2.08,2.08,0,0,0-1.33.74c.64-3.46,6.78-3.18,9.76-4.21a2.8,2.8,0,0,0-2.87-.53,13.35,13.35,0,0,1,7.91-2.16,4,4,0,0,0-3.11-1.35c3.23-1.87,3.46-5.19,7.1-3.64l-2-1.64a15.07,15.07,0,0,1,6.37,2,34.1,34.1,0,0,1,3.69,2.93c2.45,2,4.79,3.1,7.28,5.07a16.5,16.5,0,0,0,4.41,2.51,2.47,2.47,0,0,1-1.68.1,14.51,14.51,0,0,1,3,3.91,2.82,2.82,0,0,0-1.48-1.09A26.18,26.18,0,0,1,50.8,25.9a10.61,10.61,0,0,0-1.6-2.18,23.6,23.6,0,0,1,1.74,8.6l-1.4-2.59a32.2,32.2,0,0,1-.79,7.46l-.22-.86a20.2,20.2,0,0,0-.8,3.87c-.14,1.24-.71,3-.94,2.28a10.15,10.15,0,0,0-1.42,6.28l-.66-1.59a21.82,21.82,0,0,0,2.66,9.15A2.78,2.78,0,0,1,46.07,55a17.14,17.14,0,0,0,4.43,7.14L49,61.83"/></clipPath></defs><title>Asset 5x</title><g class="cls-2"><g id="Layer_2" data-name="Layer 2"><g id="Layer_4" data-name="Layer 4"><path class="cls-3" d="M41.33,12.62a16.5,16.5,0,0,0,4.6,2.15,2.47,2.47,0,0,1-1.67.23,14.51,14.51,0,0,1,3.29,3.66,2.82,2.82,0,0,0-1.56-1,26.18,26.18,0,0,1,3.43,7,10.61,10.61,0,0,0-1.77-2A23.6,23.6,0,0,1,50.07,31l-1.6-2.47a32.2,32.2,0,0,1-.19,7.5L48,35.22a19,19,0,0,0-.49,3.93c-1,1.84-2.05,6.48-1.66,8.71L45,46.33a21.82,21.82,0,0,0,3.38,8.91A2.78,2.78,0,0,1,47,54c1.09,2.65,3.52,9.24,5,11.68a7.66,7.66,0,0,1-2.13-1.89,37.73,37.73,0,0,1,2.36,9.67c-.57-.76-1.13-1.17-1.1-.82.25,3.21.43,6.34.57,7.63-.24-.54-2.38.81-2.62.27-1.86,3.73-.34,5.59-3.94,7.17s-15-6.61-19.54-5.8a1.83,1.83,0,0,0-1,.6c-1,1.09-9.12,1.89-9,3a19.47,19.47,0,0,1-2.91-6.93c-.27.69.34,3.4.56,4.17-1.73-2.8.24,7.27-.27,4-.16,1.31,0-10.58.1-9.23-2-3.54-3.12-10.35-4-15.07l.13,3.1c-4.1-4.86,1.11-12.28,1-18.55l-.78,2.57A22.48,22.48,0,0,1,8.54,36.2L7.27,37.61c-1.73-3.66-1.37-8.19.88-11a2.39,2.39,0,0,0-1.82,1.61A22.44,22.44,0,0,1,8.88,18.06a2.08,2.08,0,0,0-1.26.85c.36-3.5,6.5-3.71,9.39-5a2.8,2.8,0,0,0-2.9-.3,13.35,13.35,0,0,1,7.71-2.79,4,4,0,0,0-3.21-1.09c3.07-2.12,3-5.45,6.78-4.2L23.25,4.08a15.07,15.07,0,0,1,6.51,1.45,34.1,34.1,0,0,1,3.91,2.62C36.27,10,38.69,10.86,41.33,12.62Z"/><path class="cls-4" d="M41,18.48A13.45,13.45,0,0,0,44.89,20a2.47,2.47,0,0,1-1.47.26,10.06,10.06,0,0,1,2.69,2.73,2.18,2.18,0,0,0-1.31-.69,17.3,17.3,0,0,1,2.66,5.32A7.31,7.31,0,0,0,46,26.06a15.76,15.76,0,0,1,1.72,6.53l-1.28-1.87a23.37,23.37,0,0,1-.52,5.92L45.73,36A20.5,20.5,0,0,0,45,42.56L44.34,41A7.75,7.75,0,0,0,43.25,46l-.61-1.17a14.46,14.46,0,0,0,2.53,6.86,2,2,0,0,1-1.17-.9,11.62,11.62,0,0,0,4,5.09l-1.3-.06a16.28,16.28,0,0,0,3,3.59A4.38,4.38,0,0,0,45.65,64l-.56-1.24C45,67.16,41.21,77.44,38,78.86c-.34.15.5-1,.15-.82-3.39,1.38-7.35,2.39-10.25.16.07,1,1.38,2.1.62,1.52-3.42-2.65-6.25-5.89-6.57-7.8a2.63,2.63,0,0,0-.16,1.8,16.65,16.65,0,0,1-2.56-7.09,12.67,12.67,0,0,0-.2,3.16,21.37,21.37,0,0,1-4.42-10.12l0,2.44C11.22,58.46,12,52,12.2,47.1l-.8,2.06a15.87,15.87,0,0,1-.13-10.55L10.1,39.78a8.07,8.07,0,0,1,1.28-8.69,2.36,2.36,0,0,0-1.67,1.35,17.92,17.92,0,0,1,2.71-8.15,2.12,2.12,0,0,0-1.14.73,8.72,8.72,0,0,1,5-6.39,2.6,2.6,0,0,0-2.51-.1A13.77,13.77,0,0,1,20.62,16a3.42,3.42,0,0,0-2.75-.71,12.21,12.21,0,0,1,9.54-1.6l-1.81-1.06a13.51,13.51,0,0,1,5.61.83,25.93,25.93,0,0,1,3.29,1.88C36.69,16.65,38.76,17.22,41,18.48Z"/><g class="cls-5"><path class="cls-3" d="M6.8,59.94a3.7,3.7,0,0,0,.83-2.56c0-.17-.22-.21-.26-.06s-.15.52-.21.79-.25.13-.27,0A68.84,68.84,0,0,1,8.07,38.72a13,13,0,0,0-2,4.85c.29-2.29-.64-6.39.21-8.46a44.27,44.27,0,0,1,2.38-5l0,0q.05-.46.11-.92A5.09,5.09,0,0,1,7.3,30.18,1.28,1.28,0,0,1,6,30.11c3.51-1.25,1.68-7.45,2.12-8.52-.44.18-.88.37-1.31.58A6.27,6.27,0,0,1,9.4,19.27l0-.07A12.89,12.89,0,0,0,7,20.58c4-5.35,9.11-5.58,10.3-5.23,5.09-1.17,5.54,3.91,5.86,8.06a47.38,47.38,0,0,1-.06,6.06,41.32,41.32,0,0,0,2.16,12.76,3.62,3.62,0,0,1-2-2.63c.33,3.66.86,3.83,2.09,7.3,1.08,0-2.86,2.17-1.77,2.18.14,0-2.52.89,5.28-1.55a7.47,7.47,0,0,1-1.52.55.14.14,0,0,0,0,.27A5.57,5.57,0,0,0,33,44.17l-.66,3a11.67,11.67,0,0,1,7-3.42l-1.67,1.67c4.47-2.11,9.55-2.43,14.48-2.72a4.08,4.08,0,0,0-2.65,1.5,18.81,18.81,0,0,0,9.94-3.61,3.7,3.7,0,0,1-2.3,2.4c.77-.26,5.87,2.71,6.2,5.13a3.79,3.79,0,0,0-3-.68,2.6,2.6,0,0,0,1.76.57,2.45,2.45,0,0,1-1.91,1,31.64,31.64,0,0,1,3.9,1.77q-.48,0-1,.08l-.17,0h0a12.75,12.75,0,0,0-2.74.71c.63.44.4-2.43,1.1-2.11.5.23.94.39,1.21.49l.28.1c0,.06-1.93.08-2.89.11l-.38,0a4.7,4.7,0,0,0,1.29.43,8.39,8.39,0,0,0,1.78,0c.13-.13-.17.26-.13.19l-.11.16-.12.18-.27.37-.15.18-.18.22-.15.18-.26.29-.2.21-.21.22-.17.17-.22.2-.18.16-.33.28-.18.15-.23.18-.18.14-.38.27-.17.11-.26.17-.2.12-.28.16-.2.11-.33.17-.65.8.17-.08h0l.16-.08h0l.16-.09h0l.15-.09,0,0,.14-.09,0,0,.12-.08.06,0,.1-.07.16-.11-.61.53-.2.17-.43.35-.23.19-.48.37-.16.13c-.47.52-1,1-1.46,1.52A17.33,17.33,0,0,1,46.72,63l3.89-.39c-7.19,3.75-14.09,7.23-22.19,7.47l3.8.38a42.5,42.5,0,0,1-10.49,1c-.77,0-4.87-.39-2.42-.28.9.11-1.1-.45-1.26-.59a.14.14,0,0,0-.21.16c.13.32-2.33-3.61-1.93-1.17-1.23-.72-1.8-5.21-1.76-3.55a5.4,5.4,0,0,1-.43-1.22l-.1.1a1,1,0,0,1-.6.28,1.23,1.23,0,0,1-.51-.13,18.6,18.6,0,0,1-4-3c-1.19-1-.15-1.91-1.57-1.87A.16.16,0,0,1,6.8,59.94Z"/></g><path class="cls-6" d="M22.25,54.19a11.13,11.13,0,0,0,4-1.79,4.24,4.24,0,0,0,1.05-1.12,1.59,1.59,0,0,0,.23-.56.45.45,0,0,0,0-.23,1.2,1.2,0,0,0,0-.22.63.63,0,0,1,.4-.74.15.15,0,0,0,.07-.2,44.1,44.1,0,0,1-2.87-12.09,3.62,3.62,0,0,0,2,2.63,34.48,34.48,0,0,1-1.64-11.71,59.62,59.62,0,0,0,.21-6.8c-.33-4.15-3.89-9.67-9-8.5C12,27.13,14.61,28.37,15,42.4q.18,5.92.5,11.85a.16.16,0,0,0,.11.15A13.74,13.74,0,0,0,22.25,54.19Z"/><path class="cls-3" d="M16.26,2.85,17.39,0a83.42,83.42,0,0,1,7.17,5.71c2,1.91,4.13,4.77,7,5.26a1.77,1.77,0,0,0,1.87.11c.35.82,1.54,1.19,2.06,1.92C37.08,14.76,48,14.86,48,14.86l-1.06,3-1.21-1-.13,4.86-3.74-2.7L40.07,22.1l-1.95-3.67-2.18,2.71-1.05-4.21-1.27,1.73-3.31-3.45L28.49,19l-3.7-7.58-3,2.64-.18-5-3.26,3.78,1-8.46S15.34,5.26,16.26,2.85Z"/><path class="cls-6" d="M62.9,51.39l-.11.17Z"/><path class="cls-4" d="M7,63c1.15-.7,1.53-2.16,1.74-3.47.16-1,.28-1.92.37-2.89,1.86,1.48,4.09,2.87,6.08,2.9a.15.15,0,0,0,.14-.22c-1.05-2.24-1-3.68-.78-4.3,0-.11-.35.26-.28.36A11.51,11.51,0,0,1,16,57.61a.16.16,0,0,0,.3,0c.54-5.15,1.12-11.29-.16-16.25a6.71,6.71,0,0,1,3,3.8A41.55,41.55,0,0,0,17.58,37a6.88,6.88,0,0,1,1.64,2.46,14.24,14.24,0,0,1,1.26-9.72l.67,3.72c-.64-3.56,4.2-17.38-1.82-19.59C18,13.38,12.09,13.08,6.69,18A16.76,16.76,0,0,1,9.6,16.87l0,.08a7.42,7.42,0,0,0-3.46,2.63c.53-.17,1.06-.31,1.59-.44-.68,1,.41,7.39-3.8,8.27a1.63,1.63,0,0,0,1.5.2,6.47,6.47,0,0,0,1.9-.93l-.28.91,0,0A46.51,46.51,0,0,0,3.5,32.43c-1.31,2-.9,6.16-1.61,8.42A13.32,13.32,0,0,1,5,36.21,62.46,62.46,0,0,0,.47,55.4a.16.16,0,0,0,.3.07,8.3,8.3,0,0,1,.37-.77.16.16,0,0,1,.29.09A3.7,3.7,0,0,1,.06,57.25a.15.15,0,0,0,.08.27c1.62.11.29.92,1.49,2A19.35,19.35,0,0,0,5.74,63a1.5,1.5,0,0,0,.56.19A1.28,1.28,0,0,0,7,63Z"/><path class="cls-4" d="M17.86,23.07q-.61.89-1.29,1.73a17.12,17.12,0,0,0,.72-5.5,8,8,0,0,1-.84,2.54,8,8,0,0,0,.19-3.27c0-.36-1-5.81-5-4.87,2.38-.91,3.87-1.59,4.72-2.9,1.12-1.72,11.88-3,11.94-2.8.57,2.07-3.16,9.88-3.17,9.87S23.43,17.2,24,24.47c-.26-.86-1-1.16-1-2.06-.4.49-1.44,5.81-2,6.27.28-1.17-.64-2.79-.89-4a4.88,4.88,0,0,0-2.49,2.05A23.51,23.51,0,0,0,17.86,23.07Z"/><path class="cls-7" d="M13.83,55.52l.1.11,0,.1C13.87,55.66,13.86,55.59,13.83,55.52Z"/><path class="cls-4" d="M31,71.17c-.44,2.08-1,4.16-1,4.16a7.41,7.41,0,0,0-.57-2.46C29,72.49,31,71.17,31,71.17"/><path class="cls-3" d="M9.87,66.78a11.93,11.93,0,0,1-.76,6.12c1.13-.95,1.7-1.51,1.89-2.46S9.87,66.78,9.87,66.78Z"/><path class="cls-4" d="M44,68.36a30.27,30.27,0,0,1-1,5.4l-1.05-3.45Z"/><path class="cls-3" d="M28.84,89.21c.3-4,4.8-3.75,5-.15.12,2.8,5.55-2.25,5.4-2.55s-4.05-6-4.05-6l-10.2.15L25.69,88Z"/><path class="cls-3" d="M29.46,103a25.9,25.9,0,0,0,.73,4.37,1.86,1.86,0,0,1-1.5-1.2C28.09,105,29.46,103,29.46,103Z"/><path class="cls-3" d="M32.11,129a11.14,11.14,0,0,0-1.1-2,27.18,27.18,0,0,1,.69,9.9,9.74,9.74,0,0,0-1-3.57,16.37,16.37,0,0,1,.21,3.89,6.07,6.07,0,0,1-1.49,3.57,71.54,71.54,0,0,0-3.35-13.11,2.8,2.8,0,0,1-.25-1.56,2.93,2.93,0,0,1,.39-.82,51.4,51.4,0,0,0,3.11-7S32.16,127.22,32.11,129Z"/><rect class="cls-3" x="8.29" y="144.23" width="16.64" height="3.43" transform="translate(0.26 -0.03) rotate(0.1)"/><path class="cls-3" d="M28.89,151.45l-19.51,0c-.78,0-2.53-1.23-2.53-2v.09a1.4,1.4,0,0,1,1.43-1.35l20.62,0a1.4,1.4,0,0,1,1.42,1.36v.53A1.4,1.4,0,0,1,28.89,151.45Z"/><path class="cls-3" d="M31.95,147.28c0,1.41.27,3.43-1,4.18H26.77c-2.86,0-5.17-1.88-5.16-4.19s2.32-4.18,5.18-4.17S32,145,31.95,147.28Z"/><path class="cls-3" d="M22.29,148.4c0,2.57-1.09,3-3.39,3-1.71,0-2.13-1.47-2.12-3.15s-.16-2.93,2.14-2.93S22.3,146.72,22.29,148.4Z"/><path class="cls-3" d="M17.09,148.63a2.5,2.5,0,0,1-2.49,2.79,2.8,2.8,0,1,1,0-5.6A2.51,2.51,0,0,1,17.09,148.63Z"/><path class="cls-3" d="M12.47,148.95a2.69,2.69,0,0,1-2.87,2.48,2.51,2.51,0,1,1,0-5,2.78,2.78,0,0,1,2.67,1.74A2.21,2.21,0,0,1,12.47,148.95Z"/><path class="cls-3" d="M7.84,144.48c-.07.41-.77,4-.74,4.15a8.53,8.53,0,0,1,2.48-1,4.91,4.91,0,0,1,2.7.4c.5-.22,2.84-1.19,4.82-.22a7,7,0,0,1,5.34,0v0s.24-.12.67-.29c1.59-.62,6.63-1.53,8.87.64a6.54,6.54,0,0,0-.2-2,9.18,9.18,0,0,0-.37-2.07Z"/><path class="cls-8" d="M27.24,147.18a4.74,4.74,0,0,1,3.67,1.8,4.12,4.12,0,1,0-7.74-.14A4.84,4.84,0,0,1,27.24,147.18Z"/><path class="cls-8" d="M19.82,147.94a2.15,2.15,0,0,1,1.67.82A1.87,1.87,0,1,0,18,148.7,2.2,2.2,0,0,1,19.82,147.94Z"/><path class="cls-8" d="M14.78,147.89a1.69,1.69,0,0,1,1.31.64,1.47,1.47,0,1,0-2.76-.05A1.73,1.73,0,0,1,14.78,147.89Z"/><path class="cls-8" d="M9.44,148.23a1.69,1.69,0,0,1,1.31.64A1.47,1.47,0,1,0,8,148.82,1.73,1.73,0,0,1,9.44,148.23Z"/><path class="cls-3" d="M21.86,150.45s.35-.35.42-2.21c0,0,.07,1.94,1,2.59Z"/><path class="cls-3" d="M12,149.25h0a2.15,2.15,0,0,1-1.51,2.16l3.53,0A2.35,2.35,0,0,1,12,149.25Z"/><path class="cls-3" d="M16.91,149.27h0c-.18,1.3-.69,1.6-.69,1.6l1.36.09A2.53,2.53,0,0,1,16.91,149.27Z"/><path class="cls-3" d="M30.76,95.72c-.65-3.31-1.13-5.41-.62-8.7l0-.14a46.08,46.08,0,0,0-3-4.82,31.33,31.33,0,0,0-4-4.74,18.42,18.42,0,0,0-4.82-3.37c-1.73-.8-5.29-4.06-7.22-4-.23,3.25-.07,10.53.51,11.47a16.28,16.28,0,0,1,1.78-2.52c-2.45,3.81-1.52,8.62-1.54,12.93a6.33,6.33,0,0,1,2.4-3.66A26.13,26.13,0,0,0,11,103.21c.42-1.14.71-3.23,1.41-3.19-2.56,5.05-1.67,21.91.43,25.67a10.47,10.47,0,0,1,.12-4.09,30.94,30.94,0,0,1,.49,6.46,7,7,0,0,1-2,3.93,2.36,2.36,0,0,0,1.1-.71,6.36,6.36,0,0,1-1.72,4.09,3.23,3.23,0,0,0,1.86-1,10.32,10.32,0,0,1-2.6,4.07c2.68.74,7.36-1.09,10.13-.94,1.47.08,2.91.09,4.37,0a7.63,7.63,0,0,1,3.41.33c-.27-1.54-.63-3.07-1-4.53a4.31,4.31,0,0,1,1.55,3.47c.84-5.86,1.16-18.83.35-24.74l1.25,1.87c.31-6.07,1-14.38-1-19.58C29.82,94.81,30.13,95.27,30.76,95.72Z"/><path class="cls-3" d="M30.55,137.63a6.12,6.12,0,0,0-2.11-2.86c-3.4-2.3-12,.19-15.29,2.15-2,1.21-3.4,3.39-4.55,5.21-1.68,2.67-1.78,4.68-1.87,7.27a.54.54,0,0,1,.22-.08,7.44,7.44,0,0,1,2.46-3.61,2.42,2.42,0,0,1,1.43,1.65,2.81,2.81,0,0,1,1.69-2.27,3.06,3.06,0,0,1,0,2.66,4.23,4.23,0,0,0,2.1-3.12,2,2,0,0,1,2,1.13,4.26,4.26,0,0,1,.21,2.19q1.28-1.64,2.68-3.19c.19,1.47,3.43,3.12,5.16,3.06a2.58,2.58,0,0,1-1.47-2.33,5,5,0,0,1,2.1-1.12,5.29,5.29,0,0,1,5.17,1.27,4.44,4.44,0,0,1,1,1.53c.14-.52.27-1.08.46-1.73C32.38,143.54,31.55,140,30.55,137.63Z"/><path class="cls-3" d="M31.81,141.69h0a39.94,39.94,0,0,0-2.54-8.23c-.31-.7-.55.71-1.24.25a4.63,4.63,0,0,0-2.2-.6,21.46,21.46,0,0,0-4,.11,12.62,12.62,0,0,0-3.61.84c-.71.31-1.35.72-2,1.09-1.54.84-3.25,1.46-4.43,2.67a22.17,22.17,0,0,0-3.54,5c2.29-1.45,10.25.15,9.89,1.26a10.8,10.8,0,0,0,1.15-3.66c2,.07,1.77,2.41,1.68,3,.53-.63,1.55-4.67,6.51-2.84a4.76,4.76,0,0,0-3.86,1.66,10.26,10.26,0,0,1,4-.34,4.8,4.8,0,0,1,3.83,5.28A5.2,5.2,0,0,0,31.81,141.69Z"/><path class="cls-3" d="M31.81,141.72h0a39.94,39.94,0,0,0-2.54-8.23c-.31-.7-.55.71-1.24.25a4.63,4.63,0,0,0-2.2-.6,21.46,21.46,0,0,0-4,.11,12.62,12.62,0,0,0-3.61.84c-.71.31-1.35.72-2,1.09-1.54.84-3.25,1.46-4.43,2.67a22,22,0,0,0-3.54,5c2.29-1.45,10.25.18,9.89,1.29a10.8,10.8,0,0,0,1.15-3.66c2,.07,1.77,2.41,1.68,3,.53-.63,1.55-4.67,6.51-2.84a4.76,4.76,0,0,0-3.86,1.66,10.26,10.26,0,0,1,4-.34,4.8,4.8,0,0,1,3.83,5.28A5.2,5.2,0,0,0,31.81,141.72Z"/><path class="cls-3" d="M12.48,113.36s3.4,4.63,7.08,1.12A5.67,5.67,0,0,1,12.48,113.36Z"/><path class="cls-3" d="M31,129A11.2,11.2,0,0,1,32,127a27.66,27.66,0,0,0-.68,9.9,9.88,9.88,0,0,1,.93-3.57,16.67,16.67,0,0,0-.2,3.89,6.13,6.13,0,0,0,1.46,3.57,72.61,72.61,0,0,1,3.29-13.11,2.84,2.84,0,0,0,.24-1.56,3,3,0,0,0-.39-.82,51.88,51.88,0,0,1-3.05-7S30.91,127.22,31,129Z"/><rect class="cls-3" x="38" y="144.23" width="16.34" height="3.43" transform="translate(92.62 291.8) rotate(179.89)"/><path class="cls-3" d="M34.12,151.45l19.16,0c.77,0,2.49-1.23,2.49-2v.09a1.38,1.38,0,0,0-1.4-1.35l-20.24,0a1.38,1.38,0,0,0-1.4,1.36v.53A1.38,1.38,0,0,0,34.12,151.45Z"/><path class="cls-3" d="M31.12,147.28c0,1.41-.27,3.43,1,4.18H36.2c2.8,0,5.07-1.88,5.07-4.19s-2.28-4.18-5.08-4.17S31.11,145,31.12,147.28Z"/><path class="cls-3" d="M40.6,148.4c0,2.57,1.07,3,3.33,3,1.68,0,2.09-1.47,2.09-3.15s.16-2.93-2.1-2.93S40.59,146.72,40.6,148.4Z"/><path class="cls-3" d="M45.7,148.63c0,1.55.85,2.79,2.44,2.79a2.8,2.8,0,1,0,0-5.6C46.55,145.82,45.7,147.09,45.7,148.63Z"/><path class="cls-3" d="M50.24,148.95A2.83,2.83,0,1,0,53,146.46a2.73,2.73,0,0,0-2.63,1.74A2.24,2.24,0,0,0,50.24,148.95Z"/><path class="cls-3" d="M31.65,144.12a9.33,9.33,0,0,0-.37,2.07,6.66,6.66,0,0,0-.19,2c2.21-2.16,7.15-1.26,8.71-.64.42.17.66.29.66.29v0a6.78,6.78,0,0,1,5.24,0c1.95-1,4.24,0,4.74.22a4.74,4.74,0,0,1,2.65-.4,8.29,8.29,0,0,1,2.43,1c0-.12-.66-3.74-.73-4.15Z"/><path class="cls-8" d="M35.74,147.18a4.62,4.62,0,0,0-3.6,1.8,4.17,4.17,0,0,1-.27-1.47,4,4,0,1,1,8.08,0,4.18,4.18,0,0,1-.22,1.34A4.71,4.71,0,0,0,35.74,147.18Z"/><path class="cls-8" d="M43,147.94a2.1,2.1,0,0,0-1.64.82,1.9,1.9,0,0,1-.12-.67,1.84,1.84,0,1,1,3.67,0,1.9,1.9,0,0,1-.1.61A2.14,2.14,0,0,0,43,147.94Z"/><path class="cls-8" d="M48,147.89a1.65,1.65,0,0,0-1.29.64,1.49,1.49,0,0,1-.1-.52,1.44,1.44,0,1,1,2.88,0,1.49,1.49,0,0,1-.08.48A1.68,1.68,0,0,0,48,147.89Z"/><path class="cls-8" d="M53.22,148.23a1.65,1.65,0,0,0-1.29.64,1.49,1.49,0,0,1-.1-.52,1.44,1.44,0,1,1,2.88,0,1.49,1.49,0,0,1-.08.48A1.68,1.68,0,0,0,53.22,148.23Z"/><path class="cls-3" d="M41,150.45s-.34-.35-.41-2.21c0,0-.07,1.94-1,2.59Z"/><path class="cls-3" d="M50.72,149.25h0a2.14,2.14,0,0,0,1.48,2.16l-3.46,0A2.34,2.34,0,0,0,50.72,149.25Z"/><path class="cls-3" d="M45.88,149.27h0c.18,1.3.67,1.6.67,1.6l-1.33.09A2.56,2.56,0,0,0,45.88,149.27Z"/><path class="cls-3" d="M32.13,100.07c.63-3.31,1.27-9.76.77-13.05l0-.14a46.24,46.24,0,0,1,2.91-4.82,31.19,31.19,0,0,1,4-4.74,18.09,18.09,0,0,1,4.73-3.37c1.7-.8,5.2-4.06,7.09-4,.23,3.25.06,10.53-.5,11.47a16.28,16.28,0,0,0-1.75-2.52c2.41,3.81,1.49,8.62,1.51,12.93a6.33,6.33,0,0,0-2.35-3.66,26.53,26.53,0,0,1,3.15,15.07c-.42-1.14-.69-3.23-1.39-3.19,2.52,5.05,1.64,21.91-.42,25.67a10.66,10.66,0,0,0-.12-4.09,31.49,31.49,0,0,0-.48,6.46A7.07,7.07,0,0,0,51.17,132a2.31,2.31,0,0,1-1.08-.71,6.42,6.42,0,0,0,1.69,4.09,3.16,3.16,0,0,1-1.83-1,10.34,10.34,0,0,0,2.55,4.07c-2.63.74-7.23-1.09-9.94-.94-1.44.08-2.85.09-4.29,0a7.37,7.37,0,0,0-3.35.33c.27-1.54.62-3.07,1-4.53a4.35,4.35,0,0,0-1.52,3.47c-.83-5.86-1.14-18.83-.34-24.74l-1.22,1.87a56.28,56.28,0,0,1,.52-15.23C32.75,99.16,32.75,99.62,32.13,100.07Z"/><path class="cls-3" d="M32.49,137.63a6.12,6.12,0,0,1,2.07-2.86c3.34-2.3,11.79.19,15,2.15,2,1.21,3.34,3.39,4.47,5.21,1.65,2.67,1.75,4.68,1.83,7.27a.52.52,0,0,0-.21-.08,7.45,7.45,0,0,0-2.42-3.61,2.41,2.41,0,0,0-1.41,1.65,2.81,2.81,0,0,0-1.66-2.27,3.11,3.11,0,0,0,0,2.66,4.23,4.23,0,0,1-2.06-3.12,2,2,0,0,0-2,1.13,4.34,4.34,0,0,0-.21,2.19q-1.26-1.64-2.64-3.19c-.18,1.47-3.37,3.12-5.06,3.06a2.59,2.59,0,0,0,1.45-2.33,4.93,4.93,0,0,0-2.06-1.12,5.13,5.13,0,0,0-5.08,1.27,4.45,4.45,0,0,0-1,1.53c-.14-.52-.27-1.08-.45-1.73C30.7,143.54,31.51,140,32.49,137.63Z"/><path class="cls-3" d="M31.25,141.69h0a40.47,40.47,0,0,1,2.5-8.23c.31-.7.54.71,1.22.25a4.49,4.49,0,0,1,2.16-.6,20.69,20.69,0,0,1,4,.11,12.21,12.21,0,0,1,3.55.84c.7.31,1.33.72,2,1.09,1.51.84,3.19,1.46,4.35,2.67a22.17,22.17,0,0,1,3.47,5c-2.25-1.45-10.07.15-9.71,1.26a10.94,10.94,0,0,1-1.13-3.66c-1.94.07-1.74,2.41-1.65,3-.52-.63-1.53-4.67-6.39-2.84a4.64,4.64,0,0,1,3.79,1.66,9.9,9.9,0,0,0-4-.34,4.78,4.78,0,0,0-3.76,5.28A5.27,5.27,0,0,1,31.25,141.69Z"/><path class="cls-3" d="M31.25,141.72h0a40.47,40.47,0,0,1,2.5-8.23c.31-.7.54.71,1.22.25a4.49,4.49,0,0,1,2.16-.6,20.69,20.69,0,0,1,4,.11,12.21,12.21,0,0,1,3.55.84c.7.31,1.33.72,2,1.09,1.51.84,3.19,1.46,4.35,2.67a22,22,0,0,1,3.47,5c-2.25-1.45-10.07.18-9.71,1.29a10.94,10.94,0,0,1-1.13-3.66c-1.94.07-1.74,2.41-1.65,3-.52-.63-1.53-4.67-6.39-2.84a4.64,4.64,0,0,1,3.79,1.66,9.9,9.9,0,0,0-4-.34,4.78,4.78,0,0,0-3.76,5.28A5.27,5.27,0,0,1,31.25,141.72Z"/><path class="cls-3" d="M50.24,113.36s-3.34,4.63-7,1.12A5.49,5.49,0,0,0,50.24,113.36Z"/><path class="cls-3" d="M51.54,72.56c-.8,2.4-5.6,10.2-6.8,10.8a10.12,10.12,0,0,0,.75-3.45s-3.6,7-5.55,8.1c-.6-.3-.9-2.7-.9-3s-6,5.73-6,5.4c.3-4.8-2.74-2.87-2.4-.6.45,3-3.45-3.15-3.3-3.15S34.09,81,34.09,81l12-8.7,4.8-3,.45.6Z"/><path class="cls-6" d="M40.23,97.31c-1.15-.15-2,.15-2-.45-.29.3,3.44,7,2.86,8.85-1.29-1.35-2-2-2.58-1.8s0,3.3.72,5.85-6.44,1.65-6.66.22.64-10.72.79-11.32S32.07,100,32.07,100a74.65,74.65,0,0,0,1.15-10.95C34.07,93.86,39.37,96.11,40.23,97.31Z"/><path class="cls-3" d="M28.09,90c.15,2.17,1.35,7.13.45,10.42,1.5-1.8,2.85,4.2,2.7,5.25s-.15-9-1.2-11.4l1.5,1.35s-.75-4-.82-5.77S25.84,85,26,85.46,28.09,90,28.09,90Z"/></g></g></g></svg>