<svg xmlns="http://www.w3.org/2000/svg" width="341.17" height="455.68" viewBox="0 0 341.17 455.68"><defs><style>.cls-1,.cls-4{fill:#f6fbfd;}.cls-1,.cls-2,.cls-3{fill-rule:evenodd;}.cls-2{fill:#465679;}.cls-3{fill:#2f3b4f;}.cls-5{fill:#c5e9fa;}.cls-6{fill:#c4e8f7;}.cls-7{fill:#addcf1;}.cls-8{fill:#00b4d2;}.cls-9{fill:#049cbe;}</style></defs><title>Asset 4</title><g id="Layer_2" data-name="Layer 2"><g id="Layer_14" data-name="Layer 14"><path class="cls-1" d="M114.74,26.83c-4.11.29-11.94-10.83-11.59-16.21C99.33,15,92.87,34,103.88,41.93S114.74,26.83,114.74,26.83Z"/><path class="cls-1" d="M105.41,31.69c-9-5-15-14-16-21-1,16,3,28,10,33S105.41,31.69,105.41,31.69Z"/><path class="cls-2" d="M264.57,59.65,247.9,86.23s-12.57-9.41-20-12.1-26.75-6.45-29.93-7.52-1.47-1.31-5.9-5.44-7.48-5.06-7.8-7.08,1.71-6.16,2.1-8.93.15-3.41.15-3.41a31.39,31.39,0,0,0-7.59-9.52c-4.87-3.91,4.57-8.72,7.59-6.34s3.7,3.63,4.51,3.22-3.09-2.66-3.89-4.89a4.23,4.23,0,0,1,2.22-5.66c2.5-1.21,3.68-.67,6,.17a19.44,19.44,0,0,1,3.88,1.85s-1.92-6.18,6.42-7.35c6.18-.87,16.1,4.36,25.28,12.73,3,6,11.68,15.57,17.09,21.66s16.55,12,16.55,12"/><path class="cls-3" d="M188.52,46.45l-1.42-2.8s.63.71,2.85,3.55,4.42,4.44,6.4,7.47a54.26,54.26,0,0,1,3.81,7.46s-3.94-5.33-5.6-7.16-4.82-.8-4.82-.8l3.36-1.74s-5.89.61-5.18.39,4.39-1.71,4.07-2.09-1.5-.69-1.81-1.52A21.3,21.3,0,0,0,188.52,46.45Z"/><path class="cls-4" d="M301.74,161.8a44.51,44.51,0,0,0-8.29-13.06,15.47,15.47,0,0,0-4.21-3.18,5,5,0,0,0-1.91-.55c-.62-.08-.18-.06-.73,0a3.32,3.32,0,0,0-.69.13,2.11,2.11,0,0,1-2.58-1.07.47.47,0,0,0-.66-.16A120.53,120.53,0,0,1,247,158.78a10.67,10.67,0,0,0,6.85-8,94.82,94.82,0,0,1-35.36,10.46c-7.12.65-14.34.5-21.32,2-12.72,2.83-27.47,17.41-20.37,34.53,29,6.31,63.93-1.39,93.16-6.23q18.33-3,36.58-6.58a.48.48,0,0,0,.39-.45C307.15,176.75,304.71,168.53,301.74,161.8Z"/><path class="cls-5" d="M259.86,49.69c2.89,2.49,6.06,5.72,5.39,9.47a45.71,45.71,0,0,0-24.44-21.09c1.5,3.36,8.76,2.27,7.9-1a46.92,46.92,0,0,1-3.25,13.37,45.07,45.07,0,0,1-5.71-12.75c-1.35,4.82-10.4,7.43-8.5,4.59-.83,1.4,1.43,7.3-2.58,7a65.87,65.87,0,0,1,19.92,31.21,14.3,14.3,0,0,1-7.16-7.91c4.74,16.65,9.71,33.77,20.34,47.43l-7-4.44a40.87,40.87,0,0,0,17,21.25l-10.81,0c8.95-.1,17.19,7.32,18.6,16a.48.48,0,0,1-.9.27,24,24,0,0,0-3.06-4.79.48.48,0,0,0-.83.4c1,5,.39,11.52,2.47,15.35,2.2,4.07,2.24,9.2,6.44,12a.48.48,0,0,0,.7-.2c.62-1.39,1.18-2.66,1.71-3.87a.47.47,0,0,1,.85,0c3,5.58,6.32,11,9.89,16.33,4,6,15.48,21.1,23.44,13,2.62-2.66,5.35-7.26,7.63-10.29,3.48-4.62,6.49-9.67,10.61-13.68a.48.48,0,0,0-.49-.79,14,14,0,0,0-3.17,1.73.48.48,0,0,1-.69-.61,22.22,22.22,0,0,1,2.2-2.93.48.48,0,0,0,0-.59,33.58,33.58,0,0,1-3.37-5.35.48.48,0,0,1,.77-.55l0,0a.48.48,0,0,0,.84-.32,44.91,44.91,0,0,0-9.77-26.9,14.47,14.47,0,0,0,.23,6.45,139.71,139.71,0,0,1-5.52-37.2,26.18,26.18,0,0,0-2,9.28c-.21-15.54-16.73-30.2-27.85-41.07a20.44,20.44,0,0,1,2.82,8.84A104.92,104.92,0,0,0,259.86,49.69Z"/><path class="cls-5" d="M242.81,38.07l.65.24Z"/><path class="cls-4" d="M242.81,38.07c-.53-.28-1.79-.14-2.07-.27,0,.05-7.1,7.71-9,.62-.67,5.51,9,5.61,11.12,10.95,2.7,6.88,12.14,9.35,13.86,16.46-.18-3.27-1-6.29-3.65-8.56a11.29,11.29,0,0,1,6.69,4,18.53,18.53,0,0,1,3.13,5.26c.59,1.76.08,3.1.27,4.57a3,3,0,0,0,.22-.26q-.33,3.25-.91,6.46A25.71,25.71,0,0,0,266,64.35a55.47,55.47,0,0,1,3.18,36.46,30,30,0,0,0,5.31-20.13,56.92,56.92,0,0,1,7.68,44.63c2.46-2.66,7.81-12.59,8.2-13.71.14.91,16,24.75-1.08,77.66a.47.47,0,0,0,.06.42c4.48,6.32,23.8,22.42,31.54,14.58,2.62-2.66,5.35-7.26,7.63-10.29,3.48-4.62,6.49-9.67,10.61-13.68a.48.48,0,0,0-.49-.79,14,14,0,0,0-3.17,1.73.48.48,0,0,1-.69-.61,12,12,0,0,1,1.38-1.92,3.66,3.66,0,0,0,3.52.08c2.93-1.82.64-11.65.29-14.32a103.41,103.41,0,0,0-10-32.74l1.6,13.29A189.29,189.29,0,0,0,293,69.88l4.29,13c-4.67-9.69-12.66-17.5-21.62-23.45-2.05-1.37-4.16-2.64-6.31-3.84q-3.63-3.12-7.54-5.89a24.24,24.24,0,0,1,3.73,3.84q-1.6-.82-3.21-1.6a45.79,45.79,0,0,0-18.81-13.58C243.82,38.45,242.28,37.72,242.81,38.07Z"/><path class="cls-5" d="M333.83,177.58c-3.2-2-7.34-1.08-10.94.06-2.61.83-5.2,1.75-7.77,2.74,1.44-6.52,2.18-13.85-.22-18.85a.43.43,0,0,0-.73-.08c-4.36,5.47-8,7.24-9.89,7.4a.43.43,0,0,1-.42-.63c1-1.91,3.77-4.56,5.33-6.13a.43.43,0,0,0-.46-.71c-13.69,5.19-29.89,11.51-40.82,21a19,19,0,0,1,5.86-12.3,119.16,119.16,0,0,0-18.63,14.17,19.55,19.55,0,0,1,4.18-7.22,40.71,40.71,0,0,1-26.11,9.2l8.56-6.38c-8.21,6.12-48.4,8.82-46.51,26.63.41,3.87,1.48,12.67,20.61,19.88-2.56-2.26-4.41-3.26-6.48-5.82l.17-.15a20.6,20.6,0,0,0,10.94,5.3q-1.61-1.66-3.1-3.41c3.4.4,25.1,3.86,32.58,13.24.39-1.49-4.39-9.92-5.36-11-1.3-1.47-2.94,4.42-4.7,3.43.88-.15,1.76-7.31,2.64-7.46.05,0,.11,7,.16,7,3.27,1,24.78,1.56,44.59-1.77a37.51,37.51,0,0,1-15.5-1.77,178.18,178.18,0,0,0,54-13.17.43.43,0,0,0-.2-.83,23.52,23.52,0,0,1-2.39.06.44.44,0,0,1-.15-.84,10.44,10.44,0,0,1,7.92.28.43.43,0,0,0,.58-.55c-1.74-4.18-1-9.13.33-13.53,1.45-4.83,3.55-9.59,3.61-14.63a4.15,4.15,0,0,0-.23-1.64A3.51,3.51,0,0,0,333.83,177.58Z"/><path class="cls-6" d="M301.53,393.93c-4.45,10.88-18.6,13.22-18.6,13.22,5.14-7.39.76-19.71.76-19.71-2.38,2.42-2.64,5.72-2.3,8.42-.7-5.1-30.92-17.61-21.31-35.57a158.78,158.78,0,0,0,16-47.71c-3,10-10.35,17.64-10.35,17.64,17.43-29.32-3.21-84.84-3.21-84.84,3.62,15.55-4.6,24.6-4.6,24.6,4.6-24.6-14.82-51.72-14.82-51.72,6.41,8.82,5.52,23,5.52,23C230.1,198.65,198,190.72,198,190.72l-16.23-48.62s15.5-11.69,26.23-13c6.71,2.38,32.37,13,32.37,13-11.17-2.07-25.06.21-25.06.21C259.45,148.69,279,184,279,184c-8.94-9.95-27.83-17.39-27.83-17.39,56,34.71,53,113.37,53,113.37-2.74-5-10-11.72-10-11.72,11.23,17.91,10.32,41.32,10.32,41.32-3.65-16.57-12.42-32.65-12.42-32.65,25.93,88.22,6.2,130.41,6.2,130.41C300.83,402.64,301.53,393.93,301.53,393.93Z"/><path class="cls-4" d="M216.14,149.16c141.5,163,64.33,381.35-6.65,281.2-7.62-10.75-25.15-3.18-64.2-4.37-5.9-5-51.64-20.13-57.3-25.35C91.25,398.22,112,327,113.35,299.27c-6.69-17.77,8.63-125.11,20.06-143.69C151.13,169.62,201,131.73,216.14,149.16Z"/><path class="cls-6" d="M34.08,443.53c-10.17,5.89-22.8-.91-22.8-.91,8.59-2.71,12.65-15.13,12.65-15.13-3.37.46-5.59,2.91-7,5.26,2.56-4.46,10-14.5,28.62-22.84a158.78,158.78,0,0,0,41.84-28c-8.46,6.1-19,7.64-19,7.64,31.71-12.55,39.31-69.11,39.31-69.11-6.64,14.52-18.67,16.66-18.67,16.66,18.67-16.66,19.88-50,19.88-50-.32,10.9-9.68,21.58-9.68,21.58,11.37-45.05-9.16-70.91-9.16-70.91L107,189.39s19.41.22,28.71,5.74c3.86,6,17.67,30.07,17.67,30.07-7.57-8.47-20-15.15-20-15.15,31,32,24.88,71.94,24.88,71.94-1-13.34-11.4-30.78-11.4-30.78,23.11,61.7-27.35,122.11-27.35,122.11.89-5.63-.75-15.38-.75-15.38-2.06,21-17.09,39-17.09,39,7.24-15.34,10.13-33.44,10.13-33.44-33.4,85.67-88.54,88.66-88.54,88.66C28.2,450,34.08,443.53,34.08,443.53Z"/><path class="cls-4" d="M167.86,171.07s40.35,46.48,51.53,95.53c0,0,3.18-8-1-21.75,0,0,14.81,41.9,6.28,65.38a40.82,40.82,0,0,0,8.53-23.48S239.4,329,222.85,349a36.55,36.55,0,0,0,16.55-20c-3.18,15.39,23.82,13.77-18.34,35.51,15.58-4.94,17.08-9.77,12.31-6.35,0,0,12.39,10,7.75,14.79,0,0,3.74-3.79,7.26-7.11,0,0,18.71,9.27,20.94,15.21,0,0-20.12-9.32-15.68-13.28,0,0,21.17,11.09,25.38,16.54,0,0-23.78-8.4-19-13.26,0,0,24.38,12.32,19.24,19.71,0,0,14.15-2.34,18.6-13.22,0,0-.7,8.71-3.24,13.42,0,0,19.73-42.19-6.2-130.41,0,0,8.78,16.09,12.42,32.65,0,0,.91-23.4-10.32-41.32,0,0,7.26,6.71,10,11.72,0,0-7.09-60-63.09-94.73,0,0,18.89,7.45,27.83,17.39,0,0-19.57-35.33-63.66-41.72,0,0,13.89-2.28,25.06-.21,0,0-19.46-11.86-43.16-8.5s-31.67-1.18-31.67-1.18S159,163.32,167.86,171.07Z"/><path class="cls-7" d="M252.3,113.88c3.52,10.08.52,31.52-.62,42.11-8.86-8.91-12.26-6.67-14.6-3.87l-2.93,10.41-3.84-7.05c-5.09,5.09-6,8.63-6,8.63l-3.06-4.57L200.95,184l-1.68-5.6-19.55,5.37.55-.51-.54.4-3.42-3.49-9.06,14-2.2-8.82L152.2,197.12l-.38-6.74-16,.46.84-4.36-14-8.78,4.93-5.07L118,157.82l-4.09-2.67Z"/><path class="cls-5" d="M177.41,0S169.77,13.76,176,20.24L159.09,32.58S158.22,5.94,177.41,0Z"/><path class="cls-5" d="M203.15,2.76s-9.88,14.14-1.88,19.81l-26.51,12.7,3.33-18.2S189.86,4.47,203.15,2.76Z"/><polygon class="cls-5" points="134.67 190.29 154.39 183.17 154.39 172.77 134.67 190.29"/><polygon class="cls-5" points="152.2 190.84 165.89 178.24 165.89 167.84 152.2 190.84"/><polygon class="cls-5" points="167.26 187.83 178.38 170.71 171.35 161.26 167.26 187.83"/><polygon class="cls-5" points="179.73 177.47 204.33 170.71 197.3 161.26 179.73 177.47"/><polygon class="cls-5" points="200.95 177.7 222.59 151.68 216.56 142.91 200.95 177.7"/><path class="cls-5" d="M224.33,157.82s2.55-8.12,8.25-10.24c-.55-2.84-5-17.63-5-17.63Z"/><path class="cls-5" d="M233.55,149.68s7-11.93,18.84,0c-4.22-19.08-16.57-38.29-16.57-38.29Z"/><polygon class="cls-5" points="248.6 107.77 260.58 107.22 245.68 92.8 248.6 107.77"/><polygon class="cls-5" points="252.27 96.26 260.58 82.94 249.35 81.29 252.27 96.26"/><polygon class="cls-5" points="229.76 68.42 255.15 63.35 226.84 53.44 229.76 68.42"/><polygon class="cls-5" points="216.59 50.24 241.98 45.17 208.28 35.27 216.59 50.24"/><polygon class="cls-5" points="187.77 40.08 225.97 26.66 203.11 22.57 187.77 40.08"/><polygon class="cls-5" points="122.62 177.7 137.96 180.44 140.15 169.48 122.62 177.7"/><polygon class="cls-5" points="108.38 160.72 125.36 172.77 127.55 162.36 108.38 160.72"/><path class="cls-8" d="M108.82,118.64c1-4.22,3-8.24,3.2-12.58.32-7.95-6.18-16.61.19-36.73,1.12-2.5-3.38-.41-2.48-3,.79-2.26,3.59,4.17,4.8,2.11a9.45,9.45,0,0,1,7.32-4.22,21,21,0,0,1,8.6,1.37,56.3,56.3,0,0,1,12.6,6.06,36.21,36.21,0,0,1,10.34,9.55c5.3,7.67,6.2,17.45,6.94,26.74.32,4,.63,8.11-.44,12-1.25,4.56-4.28,8.4-6.3,12.68s-3.09,8.94-6.36,12.2c-2.78,2.76,9.5,15.42,6.31,17.7-3.45,2.46-10.28-1.79-14.49-1.26-9,1.12-8.83-1.39-15.61-4.11C111.54,152.39,106.7,127.36,108.82,118.64Z"/><path class="cls-9" d="M112.21,69.33s5.12,5,1.55,15c0,0,12.64,10.77,10.38,18.49s-5.35,10.41-10.23,8.19l4.89,12.38-6.43,2.49,1.19,5.83-3.76.55,7.31,8L112,142.59l3,4.88,13.47-4.63.72-54.79-8.84-21.44Z"/><path class="cls-4" d="M161,116.35c3.75-11.07,3.52-16.65,1.1-27.94-6.2-29-21.36-26.84-48.5-28l3.14-.92c-4.39-3.44-18.48-3.82-25.22,2.63A35.06,35.06,0,0,1,113,49.5l5.83-1.07c-7.67-1.64-13.69-6.57-24.1-9.31,9.8-5.53,19.92-8.37,30.15-3.64A32.18,32.18,0,0,1,133,44.27c-2.69-10.63-9.81-17.21-22.41-23.78,9.71-.36,20.39,18.85,27.63,25.15L133.68,35c5,.86,9.33-16.42,12.26-12.34A57.11,57.11,0,0,1,177.41,0c-12.15,7.47-12,21.53-12.11,27.3,4.79-8,7.47-9.75,7.47-9.75A44.94,44.94,0,0,1,203.15,2.76c-13.83,4.72-23.47,15.12-25.09,28a28.14,28.14,0,0,1,15.74-9.29,47.16,47.16,0,0,1,31.87,5.21c-16.06-2.17-25.29,2.16-29.46,5.61a37.54,37.54,0,0,1,16.18-.94A82.18,82.18,0,0,1,242.1,45.29l-29.65-7.2,17.1,9.15,25.6,16.11-27.84-9.41,15.8,12.93,17.46,16.07-10.42.18h0c3.93,7.31,8.57,17.55,10.42,24.1L247.8,95.39l4.41,12c3.59,10.15,7.15,33.57.17,42.36-3.62-10.87-13.26-31.82-13.26-31.82l-4.41,36.63-5.38-22.25-5,25.56-7.77-11.62-15.61,31.5-4-13.26-17.24,12.93-8.86-9-3.62,19.51-3.87-15.52-11.2,18.53-.82-14.52-16.71,14,3.29-17-15.34,4.38,2.74-13.15-17-3.83c25.2,5.48,39.73-23.51,46.56-30.67C157.2,127.09,159.42,119.72,161,116.35Z"/><path class="cls-4" d="M106.05,62.28s-5.66,4.14-5.29,6.13c26.78-1.19,13.94,15.93,13.94,15.93S133,95.67,127,107s-13.09,4-13.09,4l7.92,14.9-9.46,0,3.23,7.58-5.8-1.21,11.73,9-15.48,2.11,7.82,5.48-5.5,11.85s23.55,8.22,40.53-10.41c18.14-19.95,27-68.08,14.24-83.26C138.9,42.75,106.05,62.28,106.05,62.28Z"/><path class="cls-8" d="M130,112.53s-1.29-18.08,6.79-17.6,12.35,19.39,6.63,27.16c0,0-7.87,5.67-8,11.52S129.84,117.65,130,112.53Z"/><path class="cls-9" d="M143.63,103.07a8.07,8.07,0,0,0-5.41-5.1c-1.21-.33-2.39-.31-3.06.63-1.78,2.49-4.1,13.25.45,14.47s5.19,3.52,4.69,5.29-3.21,5.06-3.21,5.06S148.54,116.8,143.63,103.07Z"/><path class="cls-5" d="M132.93,47.72a32.18,32.18,0,0,0-8.48-8.47,50.73,50.73,0,0,0-14.11-18.67C126.72,25.1,134.51,36.23,132.93,47.72Z"/><path class="cls-5" d="M125,56.3l-9.63-5-20.91-12C111.31,37.5,123.84,42.78,125,56.3Z"/><path class="cls-5" d="M117.17,59.16,114,60.1c-2.34.54-4.62,1.17-6.82,1.88-1.08.35-4.2-1.68-15.74.18C98.17,55.66,112.75,55.76,117.17,59.16Z"/><path class="cls-5" d="M177.1,41.41s18.9,11.53,8.73,37.11c0,0-1.83-27.42-23.29-26.91C162,46.28,177.1,41.41,177.1,41.41Z"/><path class="cls-4" d="M179.95,39.12s21.9,10.2,11.73,35.78c0,0-7.68-23.8-29.14-23.3C162,46.28,179.95,39.12,179.95,39.12Z"/><path class="cls-2" d="M72.56,77.38l24.1,20.09s9-12.85,15.28-17.72,23.42-14.44,26.12-16.45,1-1.7,3.92-7,5.54-7.14,5.22-9.15-3.53-5.32-4.77-7.84-1.2-3.19-1.2-3.19a31.39,31.39,0,0,1,4.26-11.41c3.41-5.23-7.05-6.87-9.18-3.67s-2.39,4.6-3.29,4.47,2.11-3.49,2.18-5.85A4.23,4.23,0,0,0,131.33,15c-2.75-.37-3.71.5-5.69,2a19.44,19.44,0,0,0-3.11,3s-.1-6.47-8.39-5c-6.15,1.1-14,9.15-20.07,20-1,6.63-6.27,18.42-9.51,25.9s-12,16.57-12,16.57"/><path class="cls-3" d="M140.75,41.22l.48-3.1s-.37.87-1.61,4.26-2.82,5.59-3.76,9.09a54.26,54.26,0,0,0-1.3,8.28s2.09-6.29,3.1-8.54S142,48.94,142,48.94l-3.73-.61s5.79-1.25,5-1.23-4.7-.26-4.51-.72,1.21-1.12,1.25-2A21.3,21.3,0,0,1,140.75,41.22Z"/><path class="cls-4" d="M36.15,182.4a44.51,44.51,0,0,1,8.28-13.06,15.47,15.47,0,0,1,4.21-3.18,5,5,0,0,1,1.91-.55c.62-.08.18-.06.73,0a3.32,3.32,0,0,1,.69.13,2.11,2.11,0,0,0,2.58-1.08.47.47,0,0,1,.66-.16,120.53,120.53,0,0,0,35.7,14.88,10.67,10.67,0,0,1-6.85-8,94.82,94.82,0,0,0,35.37,10.45c7.12.65,14.34.5,21.32,2,12.72,2.82,27.47,17.4,20.38,34.52C132.17,224.7,97.19,217,68,212.19q-18.33-3-36.58-6.57a.48.48,0,0,1-.39-.45C30.75,197.35,33.18,189.13,36.15,182.4Z"/><path class="cls-4" d="M70.17,63.75c-2.7,2.69-5.63,6.14-4.69,9.83a45.71,45.71,0,0,1,22.85-22.8,16.63,16.63,0,0,0-.14,10.83,9.42,9.42,0,0,1,.33-1.3l1.86-9.94a46.92,46.92,0,0,0,4.21,13.1,45.07,45.07,0,0,0,4.78-13.13,110.81,110.81,0,0,1,4.12,14.43,8.59,8.59,0,0,1,4.4-6.11c-.65,2,.17,4.66,1.09,6.38.91-3.29,1.3-8-.8-10.74,8.22,2.38,4.87,10.26,3.58,12.81a13,13,0,0,1,9.48-6.72A65.87,65.87,0,0,0,103.62,93a14.3,14.3,0,0,0,6.57-8.41c-3.52,17-7.24,34.38-16.86,48.78l6.64-4.94a40.87,40.87,0,0,1-15.45,22.43l10.79-.74c-8.93.55-16.62,8.54-17.39,17.35a.48.48,0,0,0,.92.21,24,24,0,0,1,2.7-5,.48.48,0,0,1,.86.34c-.69,5,.44,11.52-1.35,15.49-1.9,4.21-11.55,10.06-15.53,13.18a.48.48,0,0,1-.71-.15c-.72-1.34-1.37-2.57-2-3.74a.47.47,0,0,0-.85,0c-2.63,5.79-5.5,11.46-8.69,17-3.59,6.25-13.91,22.17-22.44,14.7C28,217,25,212.63,22.5,209.77c-3.81-4.36-7.17-9.18-11.57-12.88a.48.48,0,0,1,.43-.83,14,14,0,0,1,3.28,1.5.48.48,0,0,0,.65-.66,22.22,22.22,0,0,0-2.41-2.77.48.48,0,0,1,0-.58,33.58,33.58,0,0,0,3-5.58.48.48,0,0,0-.81-.49l0,0a.48.48,0,0,1-.86-.26,44.91,44.91,0,0,1,7.8-27.53,14.47,14.47,0,0,1,.24,6.45A139.71,139.71,0,0,0,25,128.67a26.18,26.18,0,0,1,2.71,9.11,60.29,60.29,0,0,1,14.81-43,20.44,20.44,0,0,0-2.18,9A104.92,104.92,0,0,1,70.17,63.75Z"/><path class="cls-5" d="M88.33,50.79l-.63.29Z"/><path class="cls-5" d="M88.33,50.79c.51-.31-2.34,4.51-.1,11.09.4-1.91,1.88-11.37,2.15-11.52,0,.05,1.19,7.47,4.16,13a44.39,44.39,0,0,0,4.83-13c1.07,5.45,1.41,6.24-.3,11.72-2.2,7.06-11.43,10.21-12.63,17.42-.06-3.28.51-6.34,3-8.8a11.29,11.29,0,0,0-6.38,4.47,18.53,18.53,0,0,0-2.75,5.47c-.46,1.79.15,3.1.06,4.58a3,3,0,0,1-.24-.24q.57,3.21,1.38,6.38a25.71,25.71,0,0,1-4.46-12.65,55.47,55.47,0,0,0-.54,36.59,30,30,0,0,1-6.75-19.7,56.92,56.92,0,0,0-4.44,45.07c-2.65-2.47-8.7-12-9.17-13.09-.07.92-24.21,25.85-3.31,77.38a.47.47,0,0,1,0,.42c-4,6.63-22.12,24.08-30.4,16.82-2.81-2.46-5.86-6.85-8.35-9.71-3.81-4.36-7.17-9.18-11.57-12.88a.48.48,0,0,1,.43-.83,14,14,0,0,1,3.28,1.5.48.48,0,0,0,.65-.66,12,12,0,0,0-1.52-1.82,3.66,3.66,0,0,1-3.5.33c-3.06-1.6-1.48-11.57-1.33-14.27a103.41,103.41,0,0,1,7.58-33.37l-.64,13.37a189.29,189.29,0,0,1,33-77.72L37.19,99.42c4-10,11.36-18.36,19.87-25,2-1.51,4-2.93,6-4.29q3.4-3.37,7.1-6.42a24.24,24.24,0,0,0-3.44,4.1q1.53-.93,3.09-1.83a45.79,45.79,0,0,1,17.78-14.9C87.35,51.24,88.84,50.4,88.33,50.79Z"/><path class="cls-5" d="M4.06,198.19c3.2-2,7.34-1.08,10.94.05,2.62.83,5.2,1.75,7.77,2.73-1.45-6.51-2.18-13.85.21-18.85a.43.43,0,0,1,.73-.08c4.36,5.46,8,7.24,9.9,7.4a.43.43,0,0,0,.42-.63c-1-1.91-3.77-4.55-5.34-6.13a.43.43,0,0,1,.46-.71c13.69,5.19,29.9,11.51,40.83,21a19,19,0,0,0-5.86-12.3,119.16,119.16,0,0,1,18.63,14.16,19.55,19.55,0,0,0-4.18-7.22,40.71,40.71,0,0,0,26.12,9.2l-8.57-6.38c8.21,6.11,48.41,8.81,46.52,26.62-.41,3.87-1.47,12.67-20.6,19.89,2.56-2.26,4.4-3.26,6.47-5.82l-.17-.15a20.6,20.6,0,0,1-10.94,5.3q1.61-1.66,3.1-3.41c-3.4.41-25.1,3.86-32.57,13.24-.39-1.49,4.39-9.92,5.35-11,1.3-1.47,2.94,4.42,4.7,3.43-.88-.15-1.76-7.3-2.64-7.46-.05,0-.11,7-.16,7-3.27,1-24.78,1.57-44.59-1.76a37.51,37.51,0,0,0,15.49-1.78,178.18,178.18,0,0,1-54-13.15.43.43,0,0,1,.2-.83,23.52,23.52,0,0,0,2.39.06.44.44,0,0,0,.15-.84,10.44,10.44,0,0,0-7.92.29.43.43,0,0,1-.58-.55c1.74-4.18,1-9.13-.33-13.53-1.45-4.83-3.55-9.59-3.61-14.63a4.15,4.15,0,0,1,.23-1.64A3.51,3.51,0,0,1,4.06,198.19Z"/><path class="cls-5" d="M138,50c5.5,4.44,17.43,3.17,21.31,1.76-5,.53-17-8.25-17.6-14.22S138,50,138,50Z"/><path class="cls-5" d="M139.54,42.77c5.26,3.8,13.58-3.12,13.05-8.09-2.77,2.31-10.53,2.51-11.23,1.89S139.54,42.77,139.54,42.77Z"/></g></g></svg>