<svg xmlns="http://www.w3.org/2000/svg" width="292.19" height="290.42" viewBox="0 0 292.19 290.42"><defs><style>.cls-1{fill:#addcf1;}.cls-2{fill:#655c99;}.cls-3{fill:#877db2;}.cls-4{fill:#524e7f;}.cls-5{fill:#c5e9fa;}.cls-6{fill:#88cfe2;}</style></defs><title>Asset 7</title><g id="Layer_2" data-name="Layer 2"><g id="Layer_16" data-name="Layer 16"><ellipse class="cls-1" cx="125.25" cy="275.93" rx="79.52" ry="11.39" transform="translate(-30.64 16.07) rotate(-6.55)"/><ellipse class="cls-2" cx="148.41" cy="271.89" rx="53.95" ry="9.25" transform="translate(-30.02 18.69) rotate(-6.55)"/><ellipse class="cls-3" cx="148.48" cy="267.84" rx="53.95" ry="9.25" transform="translate(-29.56 18.67) rotate(-6.55)"/><path class="cls-2" d="M161.81,262.56s-19.28-57.5-19-113.91a.3.3,0,0,0-.3-.31c-7.73,0-23.17-.32-23.17-.32s2.77,73.76,10.13,113.18a10,10,0,0,0,10.71,8.21C151.25,268.42,161.78,262.56,161.81,262.56Z"/><path class="cls-3" d="M168.47,273S151,204.5,151.34,148H127.86s1.27,85.35,9.84,121.84C151.34,273,168.47,273,168.47,273Z"/><path class="cls-3" d="M291.12,233.18,19.31,264.42A9.36,9.36,0,0,1,9,256.76c-3-17-9-58.77-9-124.55C0,72.45,6.24,26.72,9.21,8.34A9.36,9.36,0,0,1,19.52.53L281.6,41.27a640.83,640.83,0,0,1,6.3,85.56C287.9,187,291.12,233.18,291.12,233.18Z"/><path class="cls-2" d="M292.19,229.14a4.53,4.53,0,0,1-4,4.5l-267,31.25a3.54,3.54,0,0,1-4-3.51V3.54a3.54,3.54,0,0,1,4-3.51L289.1,31.39a3.5,3.5,0,0,1,3.09,3.47Z"/><path class="cls-1" d="M287.25,214.83,29.72,232.6a3.36,3.36,0,0,1-3.78-3.33V10.91a3.36,3.36,0,0,1,3.78-3.33L285.51,37.52a2,2,0,0,1,1.74,2Z"/><ellipse class="cls-4" cx="160.24" cy="233.69" rx="6.58" ry="6.98"/><ellipse class="cls-3" cx="159.86" cy="233.69" rx="4.62" ry="5.22"/><polygon class="cls-5" points="167 130.36 50.09 129.52 50.09 33.46 167 44.95 167 130.36"/><path class="cls-6" d="M227,199.44l-79.54,4.87a3.19,3.19,0,0,1-3.38-3.18V137.21a3.19,3.19,0,0,1,3.28-3.18l79.54,2.37a3.19,3.19,0,0,1,3.09,3.18v56.67A3.19,3.19,0,0,1,227,199.44Z"/><path class="cls-6" d="M256.41,129.27l-77.71.25a2.6,2.6,0,0,1-2.61-2.6V63.71a2.6,2.6,0,0,1,2.77-2.59l77.71,5.22A2.6,2.6,0,0,1,259,68.93v57.74A2.6,2.6,0,0,1,256.41,129.27Z"/></g></g></svg>