<svg xmlns="http://www.w3.org/2000/svg" width="50.89" height="49.09" viewBox="0 0 50.89 49.09"><defs><style>.cls-1{fill:#addcf1;}.cls-2{fill:#f6fbfd;}.cls-3{fill:#c5e9fa;}</style></defs><title>Asset 6x</title><g id="Layer_2" data-name="Layer 2"><g id="Layer_9" data-name="Layer 9"><path class="cls-1" d="M21.89,41.64a3.44,3.44,0,0,0-.54-2.77c-.33-.62-.69-1.24-1.06-1.84,1.72.06,3.61-.11,4.77-1a.11.11,0,0,0,0-.19c-1.59-.84-2.22-1.68-2.35-2.16a.11.11,0,0,1,.14-.14,9,9,0,0,1,1.81,1.06.11.11,0,0,0,.16-.15c-2-3.22-4.34-7-7.27-9.35a4.9,4.9,0,0,1,3.4.9,30.74,30.74,0,0,0-4.48-4,5,5,0,0,1,2,.71,10.5,10.5,0,0,1-3.58-6.18l2,1.87C15,16.62,12.39,6.56,8,7.88a10.56,10.56,0,0,0-6.14,7.83A11.9,11.9,0,0,1,3,13.8l0,0a5.31,5.31,0,0,0-.82,3q.34-.49.72-.95c.06.88,1.8,5.2-.22,7.54a1.16,1.16,0,0,0,1-.53,4.6,4.6,0,0,0,.68-1.36l.24.65v0c-.1.88-.85-.89-.75.43.12,1.71,3,7.84,3.63,9.46a9.67,9.67,0,0,1-.29-4,46,46,0,0,0,5.91,13.07.11.11,0,0,0,.2-.09,6.07,6.07,0,0,1-.13-.6.11.11,0,0,1,.21-.08,2.69,2.69,0,0,1,.31,2,.11.11,0,0,0,.17.12A5.31,5.31,0,0,1,17.28,42a14,14,0,0,0,3.88.22,1.07,1.07,0,0,0,.41-.14A.91.91,0,0,0,21.89,41.64Z"/><path class="cls-2" d="M19.88,30.33a10.43,10.43,0,0,0,3.29-1.52,3.62,3.62,0,0,0,.87-.88,1.18,1.18,0,0,0,.19-.43c0-.14,0,0,0-.17a.78.78,0,0,0,0-.16.49.49,0,0,1,.33-.57.11.11,0,0,0,.06-.15,28.24,28.24,0,0,1-2.34-8.75,2.5,2.5,0,0,0,1.64,1.84A22.21,22.21,0,0,1,22.61,11a39.47,39.47,0,0,0,.19-5C22.54,3,19.61-.92,15.41.2,6.56,24.61,13.23-1.55,14,22c.09,2.9.21,5.8.39,8.7a.11.11,0,0,0,.09.1A12.78,12.78,0,0,0,19.88,30.33Z"/><path class="cls-2" d="M41.56,48.24c-.89,0-1.95-.16-2.37-.95a10.71,10.71,0,0,0,7.56.29A3.89,3.89,0,0,1,45,45.74l.26.17,1.9,1.42a11,11,0,0,1-1.36-2.92,10.56,10.56,0,0,1,2.91,1.5,26,26,0,0,0-1.58-3.14,2,2,0,0,0,1.73.35A2.13,2.13,0,0,1,48,41.85a3.11,3.11,0,0,1,1.57,2c1-1.72-.79-2.54-1.42-2.77a3,3,0,0,0,2.7-.35,15.43,15.43,0,0,1-8.21-2.81,3.35,3.35,0,0,1,2.47.4c-3.3-2.36-6.71-4.77-10.65-5.72l1.93-.21A9.57,9.57,0,0,0,30.2,31l2-1.59a4.57,4.57,0,0,1-5.75-.22.11.11,0,0,1,.13-.18,5.63,5.63,0,0,0,1.26.43.11.11,0,0,0,.09-.19c-.92-.76-1.75-2.05-2.69-2.45s-3.59.1-4.77.2a.11.11,0,0,0-.1.14l.25,1a.11.11,0,0,1-.15.13c-1.37-.58-2.77-1.1-4.2-1.55-1.61-.5-5.92-1.6-6.2,1a25.84,25.84,0,0,0,.1,3,26.63,26.63,0,0,1,.05,4.06.11.11,0,0,0,.21.07,3.27,3.27,0,0,0,.33-.78A.11.11,0,0,1,11,34a5.21,5.21,0,0,1,0,.86.11.11,0,0,0,.09.11,7.87,7.87,0,0,1,1.4.49.11.11,0,0,1-.06.21h0a.11.11,0,0,0-.11.18A10.52,10.52,0,0,0,18,39.38a3.39,3.39,0,0,0-1-1.15,32.73,32.73,0,0,1,6.45,6,6.13,6.13,0,0,0-1-2,14.12,14.12,0,0,0,9.38,5,4.79,4.79,0,0,1-1.81-1.21A24.58,24.58,0,0,0,41.56,48.24Z"/><path class="cls-3" d="M46.75,47.58l-.15.05Z"/><path class="cls-3" d="M46.75,47.58A4.33,4.33,0,0,1,45,45.69c.37.27,2.13,1.66,2.2,1.64a11.32,11.32,0,0,1-1.35-2.9,10.4,10.4,0,0,1,2.9,1.48,4,4,0,0,0-1.91-2c-1.5-.87-3.59.06-4.94-1a2.62,2.62,0,0,0,1.92,1,2.64,2.64,0,0,1-1.81.24,4.34,4.34,0,0,1-1.34-.51c-.36-.24-.47-.56-.72-.8a.71.71,0,0,0,0,.08q-.41-.64-.78-1.32a6,6,0,0,0,1.24,2.89,13,13,0,0,1-5.91-6.21,7,7,0,0,0,2,4.46,13.33,13.33,0,0,1-7.93-7.05,19.77,19.77,0,0,0,.5,3.71c-.16-.15-8.27-.6-12.87-12.8a.11.11,0,0,0-.07-.07c-1.74-.5-7.63-.63-7.91,1.94a25.84,25.84,0,0,0,.1,3,26.63,26.63,0,0,1,.05,4.06.11.11,0,0,0,.21.07,3.27,3.27,0,0,0,.33-.78.11.11,0,0,1,.22,0,2.82,2.82,0,0,1,0,.55.86.86,0,0,0-.66.5c-.27.76,1.58,2.23,2,2.67a24.23,24.23,0,0,0,6.61,4.54L14.86,41a44.35,44.35,0,0,0,18,8.13l-2.69-1.75a14.22,14.22,0,0,0,7.39,1.14c.58,0,1.15-.12,1.72-.22q1.12,0,2.24,0a5.68,5.68,0,0,1-1.24-.16l.82-.18a10.73,10.73,0,0,0,5.43-.26C46.51,47.66,46.9,47.57,46.75,47.58Z"/><path class="cls-3" d="M13.5,36.65A3.44,3.44,0,0,0,14.34,34c0-.71,0-1.42-.06-2.12,1.49.87,3.23,1.62,4.65,1.43a.11.11,0,0,0,.08-.17c-1-1.5-1.15-2.54-1-3a.11.11,0,0,1,.19-.05,9,9,0,0,1,1.09,1.79.11.11,0,0,0,.21-.06c-.2-3.77-.48-8.25-2-11.68a4.9,4.9,0,0,1,2.56,2.41,30.74,30.74,0,0,0-2-5.69,5,5,0,0,1,1.45,1.59,10.5,10.5,0,0,1-.21-7.14l.89,2.61c-.86-2.5,1.64-12.58-2.89-13.52a10.56,10.56,0,0,0-9.13,4,11.9,11.9,0,0,1,1.94-1.13l0,.05A5.31,5.31,0,0,0,8,5.5Q8.49,5.23,9,5c-.37.8-.89,5.43-3.78,6.53a1.16,1.16,0,0,0,1.09,0,4.6,4.6,0,0,0,1.25-.87l-.09.68,0,0a33.7,33.7,0,0,0-2,3.84c-.71,1.57.06,4.53-.19,6.24A9.67,9.67,0,0,1,7,17.77,46,46,0,0,0,6,32.07a.11.11,0,0,0,.22,0,6.07,6.07,0,0,1,.17-.59.11.11,0,0,1,.22,0,2.69,2.69,0,0,1-.69,1.92.11.11,0,0,0,.09.19,5.31,5.31,0,0,1,3.3,1.14,14,14,0,0,0,3.31,2,1.07,1.07,0,0,0,.42.07A.91.91,0,0,0,13.5,36.65Z"/><path class="cls-2" d="M5.62,12.21q.24,1,.55,2A16.19,16.19,0,0,1,7.4,9.08a7.53,7.53,0,0,0-.11,2.52,7.59,7.59,0,0,1,.94-3C8.36,8.33,11.11,3.87,14.3,6,13,2.39,5.55.25,5.43.43,4.23,2.06,1.58,3.65,1,5.16a21.52,21.52,0,0,1-1,6.92A9.93,9.93,0,0,0,1.28,9.89c.19.56-.69,5.62-.37,6.21C1.06,15,2.42,13.85,3,12.89a4.62,4.62,0,0,1,1.5,2.65A22.23,22.23,0,0,1,5.62,12.21Z"/><path class="cls-2" d="M10.8,13.33a7,7,0,0,1,.53-3.26,2,2,0,0,1-.06,2.47A6.7,6.7,0,0,0,13,10.94a2.76,2.76,0,0,0,.48-2.23c-.16-.57-.86-1.46-1.56-1.34S11,8.51,10.84,9A6.46,6.46,0,0,0,10.8,13.33Z"/><path class="cls-2" d="M14.17,14.83a6.81,6.81,0,0,1-1.62-5.72l1.59,1.44c.33.3.61.55.57,1a11.57,11.57,0,0,1-.35,1.36C14.3,13.24,14,14.59,14.17,14.83Z"/></g></g></svg>