<svg xmlns="http://www.w3.org/2000/svg" width="9.08" height="67.67" viewBox="0 0 9.08 67.67"><defs><style>.cls-1{fill:#f6fbfd;}</style></defs><title>Asset 10</title><g id="Layer_2" data-name="Layer 2"><g id="Layer_11" data-name="Layer 11"><path class="cls-1" d="M6.25,67.67a14.1,14.1,0,0,0,1.64-4,14.93,14.93,0,0,0,.22-4.24,39.31,39.31,0,0,0-1.93-8.36L3.42,42.8C2.53,40,1.75,37.16,1.14,34.27A58.55,58.55,0,0,1,0,25.46a47.61,47.61,0,0,1,.49-8.87A49.2,49.2,0,0,1,6.25,0,72.26,72.26,0,0,0,3.59,8.29a53.41,53.41,0,0,0-1.52,8.49,55.51,55.51,0,0,0,1,17.08c1.11,5.64,3,11.11,4.57,16.78a35.1,35.1,0,0,1,1.41,8.76,15.68,15.68,0,0,1-.68,4.42A12.17,12.17,0,0,1,6.25,67.67Z"/></g></g></svg>