<?xml version="1.0" encoding="utf-8"?>
<!-- Generator: Adobe Illustrator 21.0.0, SVG Export Plug-In . SVG Version: 6.00 Build 0)  -->
<svg version="1.1" id="Layer_2" xmlns="http://www.w3.org/2000/svg" xmlns:xlink="http://www.w3.org/1999/xlink" x="0px" y="0px"
	 width="197px" height="158.2px" viewBox="0 0 197 158.2" style="enable-background:new 0 0 197 158.2;" xml:space="preserve">
<style type="text/css">
	.st0{fill:#FFFFFF;}
	.st1{fill:#FF5000;}
	.st2{fill:url(#SVGID_1_);}
	.st3{fill:url(#SVGID_2_);}
	.st4{fill:#FF8C44;}
</style>
<path class="st0" d="M27.1,99.8c0-0.5,0.3-0.7,0.7-0.7h0.5c0.4,0,0.7,0.3,0.7,0.7v1.7c0,0.6-0.1,1.1-0.1,1.1H29
	c0.6-1.4,2.5-3.9,6-3.9c3.7,0,5,2.1,5,5.8v8.8c0,0.5-0.3,0.7-0.7,0.7h-0.6c-0.5,0-0.7-0.3-0.7-0.7v-8.2c0-2.3-0.4-4.4-3.3-4.4
	c-3.2,0-5.7,2.6-5.7,6.1v6.6c0,0.5-0.2,0.7-0.7,0.7h-0.6c-0.5,0-0.7-0.3-0.7-0.7V99.8z"/>
<g id="_x34__2_">
	<path class="st1" d="M135.2,38.5c-3,0-5.6,1.7-7,4.1L128,43l-6.3,12.4l-8,15.7l5.2,10.3l0.3,0.6c0.8,1.4,2,2.6,3.5,3.3
		c1.5-0.7,2.7-1.9,3.5-3.3l0.3-0.6l15.6-30.8l0.4-0.7c0.4-1,0.7-2.1,0.7-3.2C143.2,42.1,139.7,38.5,135.2,38.5z"/>
	<path class="st1" d="M87,53.4l-5.2-10.2l-0.3-0.6c-0.8-1.4-2-2.6-3.5-3.3c-1.5,0.7-2.7,1.9-3.5,3.3l-0.3,0.6L58.6,74l-0.4,0.7
		c-0.4,1-0.7,2.1-0.7,3.2c0,4.4,3.6,8,8,8c3,0,5.6-1.7,7-4.1l0.2-0.3l6.3-12.4L87,53.4L87,53.4z"/>
	<linearGradient id="SVGID_1_" gradientUnits="userSpaceOnUse" x1="117.7132" y1="82.801" x2="138.1214" y2="39.0356">
		<stop  offset="0" style="stop-color:#D4202B"/>
		<stop  offset="3.862810e-02" style="stop-color:#D72C2A;stop-opacity:0.9614"/>
		<stop  offset="0.1734" style="stop-color:#E25125;stop-opacity:0.8266"/>
		<stop  offset="0.3146" style="stop-color:#EA7022;stop-opacity:0.6854"/>
		<stop  offset="0.4618" style="stop-color:#F1881F;stop-opacity:0.5382"/>
		<stop  offset="0.6177" style="stop-color:#F5991D;stop-opacity:0.3823"/>
		<stop  offset="0.788" style="stop-color:#F8A31C;stop-opacity:0.212"/>
		<stop  offset="1" style="stop-color:#F9A61C;stop-opacity:0"/>
	</linearGradient>
	<path class="st2" d="M135.2,38.5c-3,0-5.6,1.7-7,4.1L128,43l-6.3,12.4l-8,15.7l5.2,10.3l0.3,0.6c0.8,1.4,2,2.6,3.5,3.3
		c1.5-0.7,2.7-1.9,3.5-3.3l0.3-0.6l15.6-30.8l0.4-0.7c0.4-1,0.7-2.1,0.7-3.2C143.2,42.1,139.6,38.5,135.2,38.5z"/>
	
		<linearGradient id="SVGID_2_" gradientUnits="userSpaceOnUse" x1="1737.0911" y1="1006.9043" x2="1757.4995" y2="963.1382" gradientTransform="matrix(-1 0 0 -1 1820.166 1048.6016)">
		<stop  offset="0" style="stop-color:#D4202B"/>
		<stop  offset="3.862810e-02" style="stop-color:#D72C2A;stop-opacity:0.9614"/>
		<stop  offset="0.1734" style="stop-color:#E25125;stop-opacity:0.8266"/>
		<stop  offset="0.3146" style="stop-color:#EA7022;stop-opacity:0.6854"/>
		<stop  offset="0.4618" style="stop-color:#F1881F;stop-opacity:0.5382"/>
		<stop  offset="0.6177" style="stop-color:#F5991D;stop-opacity:0.3823"/>
		<stop  offset="0.788" style="stop-color:#F8A31C;stop-opacity:0.212"/>
		<stop  offset="1" style="stop-color:#F9A61C;stop-opacity:0"/>
	</linearGradient>
	<path class="st3" d="M65.6,86c3,0,5.6-1.7,7-4.1l0.2-0.3l6.3-12.4l8-15.7l-5.2-10.3l-0.3-0.6c-0.8-1.4-2-2.6-3.5-3.3
		c-1.5,0.7-2.7,1.9-3.5,3.3l-0.3,0.6L58.6,74l-0.4,0.7c-0.4,1-0.7,2.1-0.7,3.2C57.6,82.4,61.2,86,65.6,86z"/>
	<path class="st4" d="M87,53.4l-5.2-10.2l-0.3-0.6c-0.8-1.4-2-2.6-3.5-3.3c0.5-0.2,1-0.4,1.5-0.6c0.6-0.2,1.3-0.3,2-0.3c0,0,0,0,0,0
		h0l10.8,0c0,0,0,0,0.1,0c0,0,0,0,0.1,0c3,0,5.6,1.7,7,4.1l0.3,0.6l14.1,27.9l5.2,10.2l0.3,0.6c0.8,1.4,2,2.6,3.5,3.3
		c-0.5,0.2-1,0.4-1.5,0.6c-0.6,0.2-1.3,0.3-2,0.3c0,0,0,0,0,0s0,0,0,0l-10.8,0c0,0,0,0-0.1,0s0,0-0.1,0c-3,0-5.6-1.7-7-4.1l-0.3-0.6
		L87,53.4z"/>
</g>
<path class="st0" d="M47.3,112.7c2.9,0,4.6-3,4.6-5.6v-0.7H51c-2.3,0-7.1,0.1-7.1,3.4C43.9,111.3,45,112.7,47.3,112.7 M51,104.9h0.9
	v-0.5c0-2.9-1.6-3.9-3.7-3.9c-1.7,0-2.9,0.6-3.6,1c-0.4,0.2-0.7,0.1-1-0.2l-0.2-0.3c-0.2-0.4-0.2-0.8,0.2-1c0.8-0.5,2.4-1.3,4.8-1.3
	c3.6,0,5.6,2,5.6,5.7v8.8c0,0.5-0.2,0.7-0.7,0.7h-0.5c-0.5,0-0.7-0.2-0.7-0.7v-1.2c0-0.7,0.1-1.1,0.1-1.1h-0.1c0,0-1.3,3.4-5.1,3.4
	c-2.5,0-5.1-1.5-5.1-4.4C41.8,105.2,48.1,104.9,51,104.9"/>
<path class="st0" d="M56.7,99.8c0-0.5,0.3-0.7,0.7-0.7H58c0.4,0,0.7,0.3,0.7,0.7v1.7c0,0.6-0.1,1.1-0.1,1.1h0.1
	c0.7-2,3.1-3.9,5.5-3.9c2.8,0,4.2,1.3,4.6,3.7h0.1c0.8-1.9,3-3.7,5.5-3.7c3.6,0,5,2.1,5,5.8v8.8c0,0.5-0.3,0.7-0.7,0.7H78
	c-0.5,0-0.7-0.3-0.7-0.7V105c0-2.4-0.5-4.5-3.2-4.5c-3,0-5,3.2-5,6.2v6.5c0,0.5-0.2,0.7-0.7,0.7h-0.6c-0.5,0-0.7-0.3-0.7-0.7V105
	c0-2.3-0.3-4.5-3.1-4.5c-3,0-5.1,3.2-5.1,6.2v6.5c0,0.5-0.2,0.7-0.7,0.7h-0.6c-0.5,0-0.7-0.3-0.7-0.7V99.8z"/>
<path class="st0" d="M92.8,105.1c-0.1-3.1-2-4.7-4.3-4.7c-2.5,0-4.7,1.7-5.1,4.7H92.8z M88.6,98.7c4,0,6.2,2.9,6.2,7.1
	c0,0.4-0.3,0.7-0.8,0.7H83.3c0.1,3.8,2.7,6,5.8,6c1.9,0,3.2-0.8,3.9-1.4c0.4-0.3,0.7-0.2,1,0.2l0.2,0.4c0.2,0.4,0.1,0.7-0.2,1
	c-0.8,0.6-2.6,1.7-5,1.7c-4.5,0-7.8-3.2-7.8-7.8C81.2,101.7,84.5,98.7,88.6,98.7"/>
<path class="st0" d="M104.4,98.7c2.6,0,4.2,1.1,5,1.7c0.4,0.3,0.4,0.6,0.1,1l-0.2,0.3c-0.3,0.4-0.6,0.4-1,0.1
	c-0.7-0.5-2-1.4-3.8-1.4c-3.3,0-5.8,2.5-5.8,6c0,3.5,2.6,6,5.9,6c2.1,0,3.5-1,4.2-1.6c0.4-0.3,0.7-0.2,1,0.2l0.2,0.3
	c0.2,0.4,0.1,0.7-0.2,1c-0.8,0.6-2.6,1.9-5.3,1.9c-4.5,0-7.8-3.2-7.8-7.8C96.6,102,100,98.7,104.4,98.7"/>
<path class="st0" d="M111.9,93.9c0-0.5,0.2-0.7,0.7-0.7h0.6c0.5,0,0.7,0.3,0.7,0.7v7.5c0,0.7-0.1,1.2-0.1,1.2h0.1
	c0.6-1.4,2.6-3.8,6-3.8c3.7,0,5,2.1,5,5.8v8.8c0,0.5-0.2,0.7-0.7,0.7h-0.6c-0.5,0-0.7-0.3-0.7-0.7v-8.2c0-2.3-0.4-4.4-3.3-4.4
	c-3.1,0-5.6,2.6-5.6,6.2v6.5c0,0.5-0.3,0.7-0.7,0.7h-0.6c-0.5,0-0.7-0.3-0.7-0.7V93.9z"/>
<path class="st0" d="M138.4,105.1c-0.1-3.1-2-4.7-4.2-4.7c-2.5,0-4.7,1.7-5.1,4.7H138.4z M134.2,98.7c4,0,6.2,2.9,6.2,7.1
	c0,0.4-0.3,0.7-0.8,0.7h-10.8c0.1,3.8,2.7,6,5.8,6c1.9,0,3.2-0.8,3.9-1.4c0.4-0.3,0.7-0.2,1,0.2l0.2,0.4c0.2,0.4,0.1,0.7-0.2,1
	c-0.8,0.6-2.6,1.7-5,1.7c-4.5,0-7.8-3.2-7.8-7.8C126.8,101.7,130.2,98.7,134.2,98.7"/>
<path class="st0" d="M146.8,112.7c2.9,0,4.6-3,4.6-5.6v-0.7h-0.8c-2.3,0-7.1,0.1-7.1,3.4C143.4,111.3,144.5,112.7,146.8,112.7
	 M150.5,104.9h0.9v-0.5c0-2.9-1.6-3.9-3.7-3.9c-1.7,0-2.9,0.6-3.6,1c-0.4,0.2-0.7,0.1-1-0.2l-0.2-0.3c-0.2-0.4-0.2-0.8,0.2-1
	c0.8-0.5,2.4-1.3,4.8-1.3c3.6,0,5.6,2,5.6,5.7v8.8c0,0.5-0.2,0.7-0.7,0.7h-0.5c-0.5,0-0.7-0.2-0.7-0.7v-1.2c0-0.7,0.1-1.1,0.1-1.1
	h-0.1c0,0-1.3,3.4-5.1,3.4c-2.5,0-5.1-1.5-5.1-4.4C141.4,105.2,147.6,104.9,150.5,104.9"/>
<path class="st0" d="M163,112.6c2.7,0,4.8-2.2,4.8-6c0-3.7-2-6-4.7-6c-2.5,0-4.8,1.8-4.8,6C158.2,109.6,159.9,112.6,163,112.6
	 M156.3,99.8c0-0.5,0.2-0.7,0.7-0.7h0.5c0.5,0,0.7,0.3,0.7,0.7v1.1c0,0.6-0.1,1-0.1,1h0.1c0,0,1.3-3.1,5.2-3.1c4,0,6.5,3.2,6.5,7.8
	c0,4.7-2.8,7.8-6.7,7.8c-3.6,0-4.9-3-4.9-3h-0.1c0,0,0.1,0.5,0.1,1.3v6.1c0,0.5-0.3,0.7-0.7,0.7H157c-0.5,0-0.7-0.3-0.7-0.7V99.8z"
	/>
</svg>
